<?xml version="1.0" encoding="UTF-8"?>
<svg xmlns="http://www.w3.org/2000/svg" viewBox="0 0 470.53 710.52">
  <defs>
    <style>
      .cls-1 {
        fill: #616161;
      }

      .cls-1, .cls-2, .cls-3, .cls-4, .cls-5, .cls-6, .cls-7, .cls-8, .cls-9, .cls-10, .cls-11, .cls-12, .cls-13, .cls-14, .cls-15, .cls-16, .cls-17, .cls-18, .cls-19 {
        stroke: #323232;
        stroke-width: .25px;
      }

      .cls-1, .cls-2, .cls-3, .cls-4, .cls-5, .cls-6, .cls-8, .cls-10, .cls-11, .cls-12, .cls-13, .cls-15, .cls-16, .cls-17, .cls-18, .cls-19 {
        stroke-linecap: square;
      }

      .cls-1, .cls-2, .cls-3, .cls-8, .cls-10, .cls-13, .cls-14, .cls-18, .cls-19 {
        stroke-miterlimit: 10;
      }

      .cls-2, .cls-16 {
        fill: #626262;
      }

      .cls-3, .cls-7, .cls-14, .cls-15 {
        fill: none;
      }

      .cls-4, .cls-5, .cls-6, .cls-7, .cls-9, .cls-11, .cls-12, .cls-15, .cls-16, .cls-17 {
        stroke-linejoin: round;
      }

      .cls-4, .cls-9, .cls-18 {
        fill: #616161;
      }

      .cls-5 {
        fill: #E8E8E8;
      }

      .cls-6 {
        fill: #1B1B1B;
      }

      .cls-7, .cls-9 {
        stroke-linecap: round;
      }

      .cls-8, .cls-11 {
        fill: #DADADA;
      }

      .cls-10, .cls-12 {
        fill: #303030;
      }

      .cls-13, .cls-17 {
        fill: #717171;
      }

      .cls-19 {
        fill: #404040;
      }
    </style>
  </defs>
  <g id="_第1体育館" data-name="第1体育館">
      <path class="cls-4" d="M286.67,446.18h-60.3v-24.11h0s60.3,0,60.3,0c0,0,0,24.11,0,24.11h0Z"/>
      <g>
        <line class="cls-3" x1="276.87" y1="446.01" x2="276.87" y2="422.39"/>
        <line class="cls-3" x1="235.29" y1="446.02" x2="235.29" y2="422.39"/>
        <line class="cls-3" x1="231.78" y1="440.13" x2="231.78" y2="435.93"/>
        <line class="cls-3" x1="230.42" y1="446.01" x2="230.42" y2="440.23"/>
        <line class="cls-3" x1="231.78" y1="432.32" x2="231.78" y2="427.75"/>
        <line class="cls-3" x1="276.87" y1="439.76" x2="286.41" y2="439.76"/>
        <line class="cls-3" x1="226.2" y1="435.93" x2="231.63" y2="435.93"/>
        <line class="cls-3" x1="226.35" y1="432.32" x2="231.78" y2="432.32"/>
        <line class="cls-3" x1="226.52" y1="427.84" x2="235.29" y2="427.84"/>
        <line class="cls-3" x1="226.35" y1="423.87" x2="235.11" y2="423.87"/>
        <line class="cls-3" x1="226.35" y1="438.63" x2="231.78" y2="438.63"/>
        <line class="cls-3" x1="230.42" y1="440.23" x2="235.29" y2="440.23"/>
        <line class="cls-3" x1="277.01" y1="427.75" x2="286.55" y2="427.75"/>
      </g>
    </g>
</svg>