<?xml version="1.0" encoding="UTF-8"?>
<svg xmlns="http://www.w3.org/2000/svg" viewBox="0 0 470.53 710.52">
  <defs>
    <style>
      .cls-1 {
        fill: #616161;
      }

      .cls-1, .cls-2, .cls-3, .cls-4, .cls-5, .cls-6, .cls-7, .cls-8, .cls-9, .cls-10, .cls-11, .cls-12, .cls-13, .cls-14, .cls-15, .cls-16, .cls-17, .cls-18, .cls-19 {
        stroke: #323232;
        stroke-width: .25px;
      }

      .cls-1, .cls-2, .cls-3, .cls-4, .cls-5, .cls-6, .cls-8, .cls-10, .cls-11, .cls-12, .cls-13, .cls-15, .cls-16, .cls-17, .cls-18, .cls-19 {
        stroke-linecap: square;
      }

      .cls-1, .cls-2, .cls-3, .cls-8, .cls-10, .cls-13, .cls-14, .cls-18, .cls-19 {
        stroke-miterlimit: 10;
      }

      .cls-2, .cls-16 {
        fill: #626262;
      }

      .cls-3, .cls-7, .cls-14, .cls-15 {
        fill: none;
      }

      .cls-4, .cls-5, .cls-6, .cls-7, .cls-9, .cls-11, .cls-12, .cls-15, .cls-16, .cls-17 {
        stroke-linejoin: round;
      }

      .cls-4, .cls-9, .cls-18 {
        fill: #616161;
      }

      .cls-5 {
        fill: #E8E8E8;
      }

      .cls-6 {
        fill: #1B1B1B;
      }

      .cls-7, .cls-9 {
        stroke-linecap: round;
      }

      .cls-8, .cls-11 {
        fill: #DADADA;
      }

      .cls-10, .cls-12 {
        fill: #303030;
      }

      .cls-13, .cls-17 {
        fill: #717171;
      }

      .cls-19 {
        fill: #404040;
      }
    </style>
  </defs>
  <g id="_1F-4" data-name="1F">
      <line class="cls-7" x1="144.99" y1="595.2" x2="144.99" y2="573.92"/>
      <line class="cls-7" x1="142.03" y1="595.2" x2="142.03" y2="581.23"/>
      <line class="cls-7" x1="153.3" y1="595.05" x2="153.3" y2="589.51"/>
      <line class="cls-7" x1="153.34" y1="584.34" x2="153.34" y2="579.39"/>
      <line class="cls-7" x1="156.05" y1="584.34" x2="156.05" y2="579.39"/>
      <line class="cls-7" x1="152.06" y1="589.4" x2="152.06" y2="584.45"/>
      <line class="cls-7" x1="133.66" y1="581.23" x2="133.66" y2="569.36"/>
      <line class="cls-7" x1="137.87" y1="573.92" x2="137.87" y2="569.27"/>
      <line class="cls-7" x1="135.98" y1="573.92" x2="135.98" y2="571.59"/>
      <line class="cls-7" x1="135.98" y1="571.59" x2="135.98" y2="569.27"/>
      <line class="cls-7" x1="135.55" y1="571.59" x2="135.55" y2="569.27"/>
      <line class="cls-7" x1="135.16" y1="571.59" x2="135.16" y2="569.27"/>
      <line class="cls-7" x1="134.75" y1="571.59" x2="134.75" y2="569.27"/>
      <line class="cls-7" x1="135.98" y1="573.92" x2="135.98" y2="571.59"/>
      <line class="cls-7" x1="135.55" y1="573.92" x2="135.55" y2="571.59"/>
      <line class="cls-7" x1="135.16" y1="573.92" x2="135.16" y2="571.59"/>
      <line class="cls-7" x1="134.75" y1="573.92" x2="134.75" y2="571.59"/>
      <line class="cls-7" x1="145.17" y1="584.34" x2="153.3" y2="584.34"/>
      <line class="cls-7" x1="145.21" y1="589.51" x2="153.34" y2="589.51"/>
      <line class="cls-7" x1="144.99" y1="579.39" x2="153.34" y2="579.39"/>
      <line class="cls-7" x1="156.05" y1="579.39" x2="161.08" y2="579.39"/>
      <line class="cls-7" x1="157.52" y1="579.22" x2="157.52" y2="575.05"/>
      <line class="cls-7" x1="148.18" y1="573.5" x2="148.18" y2="569.32"/>
      <line class="cls-7" x1="153.34" y1="576.22" x2="153.34" y2="572.04"/>
      <line class="cls-7" x1="150.97" y1="573.75" x2="150.97" y2="569.44"/>
      <line class="cls-7" x1="153.34" y1="571.84" x2="153.34" y2="569.6"/>
      <line class="cls-7" x1="154.01" y1="571.84" x2="154.01" y2="569.6"/>
      <line class="cls-7" x1="154.6" y1="571.84" x2="154.6" y2="569.6"/>
      <line class="cls-7" x1="155.32" y1="571.84" x2="155.32" y2="569.6"/>
      <line class="cls-7" x1="155.99" y1="571.84" x2="155.99" y2="569.6"/>
      <line class="cls-7" x1="157.7" y1="575.05" x2="161.28" y2="575.05"/>
      <line class="cls-7" x1="153.34" y1="576.36" x2="157.52" y2="576.36"/>
      <line class="cls-7" x1="150.97" y1="573.75" x2="153.34" y2="573.75"/>
      <line class="cls-7" x1="150.97" y1="573.19" x2="153.34" y2="573.19"/>
      <line class="cls-7" x1="150.97" y1="572.58" x2="153.34" y2="572.58"/>
      <line class="cls-7" x1="150.97" y1="571.94" x2="153.34" y2="571.94"/>
      <line class="cls-7" x1="153.41" y1="571.84" x2="155.99" y2="571.84"/>
      <line class="cls-7" x1="156.05" y1="584.34" x2="161.08" y2="584.34"/>
      <line class="cls-7" x1="145.25" y1="573.57" x2="148.18" y2="573.57"/>
      <line class="cls-7" x1="130.05" y1="590.59" x2="142.03" y2="590.59"/>
      <line class="cls-7" x1="133.66" y1="581.23" x2="142.08" y2="581.23"/>
      <line class="cls-7" x1="134.75" y1="571.59" x2="135.98" y2="571.59"/>
      <line class="cls-7" x1="136.11" y1="572.04" x2="137.87" y2="572.04"/>
      <line class="cls-7" x1="136.11" y1="571.59" x2="137.87" y2="571.59"/>
      <line class="cls-7" x1="133.87" y1="573.92" x2="135.98" y2="573.92"/>
      <line class="cls-7" x1="136.11" y1="572.58" x2="137.87" y2="572.58"/>
      <line class="cls-7" x1="136.11" y1="573.11" x2="137.87" y2="573.11"/>
      <line class="cls-7" x1="136.11" y1="573.65" x2="137.87" y2="573.65"/>
    </g>
</svg>
