<?xml version="1.0" encoding="UTF-8"?>
<svg xmlns="http://www.w3.org/2000/svg" viewBox="0 0 470.53 710.52">
  <defs>
    <style>
      .cls-1 {
        fill: #616161;
      }

      .cls-1, .cls-2, .cls-3, .cls-4, .cls-5, .cls-6, .cls-7, .cls-8, .cls-9, .cls-10, .cls-11, .cls-12, .cls-13, .cls-14, .cls-15, .cls-16, .cls-17, .cls-18, .cls-19 {
        stroke: #323232;
        stroke-width: .25px;
      }

      .cls-1, .cls-2, .cls-3, .cls-4, .cls-5, .cls-6, .cls-8, .cls-10, .cls-11, .cls-12, .cls-13, .cls-15, .cls-16, .cls-17, .cls-18, .cls-19 {
        stroke-linecap: square;
      }

      .cls-1, .cls-2, .cls-3, .cls-8, .cls-10, .cls-13, .cls-14, .cls-18, .cls-19 {
        stroke-miterlimit: 10;
      }

      .cls-2, .cls-16 {
        fill: #626262;
      }

      .cls-3, .cls-7, .cls-14, .cls-15 {
        fill: none;
      }

      .cls-4, .cls-5, .cls-6, .cls-7, .cls-9, .cls-11, .cls-12, .cls-15, .cls-16, .cls-17 {
        stroke-linejoin: round;
      }

      .cls-4, .cls-9, .cls-18 {
        fill: #616161;
      }

      .cls-5 {
        fill: #E8E8E8;
      }

      .cls-6 {
        fill: #1B1B1B;
      }

      .cls-7, .cls-9 {
        stroke-linecap: round;
      }

      .cls-8, .cls-11 {
        fill: #DADADA;
      }

      .cls-10, .cls-12 {
        fill: #303030;
      }

      .cls-13, .cls-17 {
        fill: #717171;
      }

      .cls-19 {
        fill: #404040;
      }
    </style>
  </defs>
  <g id="_1F-5" data-name="1F">
      <line class="cls-7" x1="218.01" y1="608.63" x2="218.01" y2="616.37"/>
      <line class="cls-7" x1="221.63" y1="622.86" x2="221.63" y2="637.05"/>
      <line class="cls-7" x1="223.37" y1="646.84" x2="223.37" y2="653.56"/>
      <line class="cls-7" x1="225.24" y1="622.89" x2="225.24" y2="627.49"/>
      <line class="cls-7" x1="225.24" y1="582.11" x2="225.24" y2="591.3"/>
      <line class="cls-7" x1="225.24" y1="573.84" x2="225.24" y2="576.87"/>
      <line class="cls-7" x1="218.18" y1="568.23" x2="218.18" y2="581.13"/>
      <line class="cls-7" x1="221.16" y1="568.52" x2="221.16" y2="614.83"/>
      <line class="cls-7" x1="215.28" y1="608.63" x2="215.28" y2="616.37"/>
      <line class="cls-7" x1="212.55" y1="608.8" x2="212.55" y2="616.54"/>
      <line class="cls-7" x1="201.05" y1="608.63" x2="201.05" y2="616.37"/>
      <line class="cls-7" x1="196.38" y1="608.77" x2="196.38" y2="616.52"/>
      <line class="cls-7" x1="189.48" y1="608.8" x2="189.48" y2="616.54"/>
      <line class="cls-7" x1="191.7" y1="608.77" x2="191.7" y2="616.52"/>
      <line class="cls-7" x1="186.89" y1="611.03" x2="186.89" y2="616.54"/>
      <line class="cls-7" x1="184.3" y1="608.63" x2="184.3" y2="616.37"/>
      <line class="cls-7" x1="184.49" y1="620.33" x2="184.49" y2="644.21"/>
      <line class="cls-7" x1="187.95" y1="620.33" x2="187.95" y2="624.56"/>
      <line class="cls-7" x1="184.3" y1="589.64" x2="184.3" y2="608.4"/>
      <line class="cls-7" x1="184.3" y1="583.6" x2="184.3" y2="589.33"/>
      <line class="cls-7" x1="184.3" y1="568.24" x2="184.3" y2="574.21"/>
      <line class="cls-7" x1="215.28" y1="610.14" x2="218.01" y2="610.14"/>
      <line class="cls-7" x1="215.28" y1="611.4" x2="218.01" y2="611.4"/>
      <line class="cls-7" x1="215.28" y1="612.67" x2="218.01" y2="612.67"/>
      <line class="cls-7" x1="215.28" y1="613.94" x2="218.01" y2="613.94"/>
      <line class="cls-7" x1="215.28" y1="615.21" x2="218.01" y2="615.21"/>
      <line class="cls-7" x1="212.65" y1="610.14" x2="215.38" y2="610.14"/>
      <line class="cls-7" x1="212.65" y1="611.4" x2="215.38" y2="611.4"/>
      <line class="cls-7" x1="212.65" y1="612.67" x2="215.38" y2="612.67"/>
      <line class="cls-7" x1="212.65" y1="613.94" x2="215.38" y2="613.94"/>
      <line class="cls-7" x1="212.65" y1="615.21" x2="215.38" y2="615.21"/>
      <line class="cls-7" x1="184.3" y1="574.21" x2="191.6" y2="574.21"/>
      <line class="cls-7" x1="184.3" y1="583.6" x2="191.6" y2="583.6"/>
      <line class="cls-7" x1="184.49" y1="595.68" x2="191.79" y2="595.68"/>
      <line class="cls-7" x1="184.49" y1="602.02" x2="191.79" y2="602.02"/>
      <line class="cls-7" x1="184.49" y1="608.52" x2="191.79" y2="608.52"/>
      <line class="cls-7" x1="189.12" y1="616.66" x2="212.55" y2="616.66"/>
      <line class="cls-7" x1="218.45" y1="646.84" x2="229.67" y2="646.84"/>
      <line class="cls-7" x1="218.45" y1="637.08" x2="229.67" y2="637.08"/>
      <line class="cls-7" x1="221.56" y1="622.86" x2="229.67" y2="622.86"/>
      <line class="cls-7" x1="221.51" y1="614.77" x2="229.62" y2="614.77"/>
      <line class="cls-7" x1="221.18" y1="591.48" x2="229.29" y2="591.48"/>
      <line class="cls-7" x1="221.18" y1="582.09" x2="229.29" y2="582.09"/>
      <line class="cls-7" x1="215.05" y1="577.24" x2="218.15" y2="577.24"/>
      <line class="cls-7" x1="214.85" y1="571.23" x2="217.95" y2="571.23"/>
      <line class="cls-7" x1="214.85" y1="572.43" x2="217.95" y2="572.43"/>
      <line class="cls-7" x1="214.85" y1="573.84" x2="217.95" y2="573.84"/>
      <line class="cls-7" x1="214.85" y1="575.01" x2="217.95" y2="575.01"/>
      <line class="cls-7" x1="214.85" y1="576.12" x2="217.95" y2="576.12"/>
      <line class="cls-7" x1="221.16" y1="576.87" x2="225.24" y2="576.87"/>
      <line class="cls-7" x1="221.16" y1="588.35" x2="225.05" y2="588.35"/>
      <line class="cls-7" x1="225.24" y1="573.97" x2="229.51" y2="573.97"/>
      <line class="cls-7" x1="221.56" y1="632.25" x2="229.67" y2="632.25"/>
      <line class="cls-7" x1="221.56" y1="627.49" x2="225.17" y2="627.49"/>
      <line class="cls-7" x1="186.89" y1="611.03" x2="189.37" y2="611.03"/>
      <line class="cls-7" x1="184.35" y1="611.81" x2="186.84" y2="611.81"/>
      <line class="cls-7" x1="187" y1="611.81" x2="189.48" y2="611.81"/>
      <line class="cls-7" x1="186.95" y1="612.67" x2="189.43" y2="612.67"/>
      <line class="cls-7" x1="186.89" y1="613.79" x2="189.37" y2="613.79"/>
      <line class="cls-7" x1="186.71" y1="614.77" x2="189.19" y2="614.77"/>
      <line class="cls-7" x1="186.89" y1="615.62" x2="189.37" y2="615.62"/>
      <line class="cls-7" x1="184.35" y1="612.79" x2="186.84" y2="612.79"/>
      <line class="cls-7" x1="184.35" y1="613.79" x2="186.84" y2="613.79"/>
      <line class="cls-7" x1="184.35" y1="614.77" x2="186.84" y2="614.77"/>
      <line class="cls-7" x1="184.35" y1="615.62" x2="186.84" y2="615.62"/>
      <line class="cls-7" x1="184.49" y1="620.33" x2="191.79" y2="620.33"/>
      <line class="cls-7" x1="184.49" y1="624.56" x2="191.79" y2="624.56"/>
      <line class="cls-7" x1="184.49" y1="635.54" x2="191.79" y2="635.54"/>
      <line class="cls-7" x1="184.49" y1="639.96" x2="191.79" y2="639.96"/>
      <line class="cls-7" x1="180.29" y1="589.33" x2="191.46" y2="589.33"/>
      <line class="cls-7" x1="180.15" y1="644.38" x2="191.32" y2="644.38"/>
    </g>
</svg>
