<?xml version="1.0" encoding="UTF-8"?>
<svg xmlns="http://www.w3.org/2000/svg" viewBox="0 0 470.53 710.52">
  <defs>
    <style>
      .cls-1 {
        fill: #616161;
      }

      .cls-1, .cls-2, .cls-3, .cls-4, .cls-5, .cls-6, .cls-7, .cls-8, .cls-9, .cls-10, .cls-11, .cls-12, .cls-13, .cls-14, .cls-15, .cls-16, .cls-17, .cls-18, .cls-19 {
        stroke: #323232;
        stroke-width: .25px;
      }

      .cls-1, .cls-2, .cls-3, .cls-4, .cls-5, .cls-6, .cls-8, .cls-10, .cls-11, .cls-12, .cls-13, .cls-15, .cls-16, .cls-17, .cls-18, .cls-19 {
        stroke-linecap: square;
      }

      .cls-1, .cls-2, .cls-3, .cls-8, .cls-10, .cls-13, .cls-14, .cls-18, .cls-19 {
        stroke-miterlimit: 10;
      }

      .cls-2, .cls-16 {
        fill: #626262;
      }

      .cls-3, .cls-7, .cls-14, .cls-15 {
        fill: none;
      }

      .cls-4, .cls-5, .cls-6, .cls-7, .cls-9, .cls-11, .cls-12, .cls-15, .cls-16, .cls-17 {
        stroke-linejoin: round;
      }

      .cls-4, .cls-9, .cls-18 {
        fill: #616161;
      }

      .cls-5 {
        fill: #E8E8E8;
      }

      .cls-6 {
        fill: #1B1B1B;
      }

      .cls-7, .cls-9 {
        stroke-linecap: round;
      }

      .cls-8, .cls-11 {
        fill: #DADADA;
      }

      .cls-10, .cls-12 {
        fill: #303030;
      }

      .cls-13, .cls-17 {
        fill: #717171;
      }

      .cls-19 {
        fill: #404040;
      }
    </style>
  </defs>
  <g id="_1F-6" data-name="1F">
      <line class="cls-7" x1="218.18" y1="550.97" x2="218.18" y2="540.55"/>
      <line class="cls-7" x1="263.04" y1="545.54" x2="263.04" y2="492.31"/>
      <line class="cls-7" x1="263.04" y1="488.59" x2="263.04" y2="462.83"/>
      <line class="cls-7" x1="259.16" y1="488.22" x2="259.16" y2="462.88"/>
      <line class="cls-7" x1="259.16" y1="545.86" x2="259.16" y2="497.02"/>
      <line class="cls-7" x1="255.18" y1="545.9" x2="255.18" y2="540.26"/>
      <line class="cls-7" x1="253.69" y1="545.91" x2="253.69" y2="543.17"/>
      <line class="cls-7" x1="254.25" y1="545.83" x2="254.25" y2="543.1"/>
      <line class="cls-7" x1="254.74" y1="545.83" x2="254.74" y2="543.1"/>
      <line class="cls-7" x1="259.16" y1="497" x2="259.16" y2="492.35"/>
      <line class="cls-7" x1="255.13" y1="496.87" x2="255.13" y2="494.55"/>
      <line class="cls-7" x1="255.74" y1="496.87" x2="255.74" y2="494.55"/>
      <line class="cls-7" x1="256.34" y1="496.87" x2="256.34" y2="494.55"/>
      <line class="cls-7" x1="256.95" y1="496.87" x2="256.95" y2="494.55"/>
      <line class="cls-7" x1="257.55" y1="496.87" x2="257.55" y2="494.55"/>
      <line class="cls-7" x1="216.17" y1="548.17" x2="216.17" y2="542.45"/>
      <line class="cls-7" x1="222.38" y1="545.86" x2="222.38" y2="500.67"/>
      <line class="cls-7" x1="226.31" y1="505.09" x2="226.31" y2="501.06"/>
      <line class="cls-7" x1="224.33" y1="500.8" x2="224.33" y2="496.77"/>
      <line class="cls-7" x1="228.3" y1="498.78" x2="228.3" y2="496.77"/>
      <line class="cls-7" x1="227.57" y1="498.91" x2="227.57" y2="496.9"/>
      <line class="cls-7" x1="226.79" y1="498.78" x2="226.79" y2="496.77"/>
      <line class="cls-7" x1="225.99" y1="498.78" x2="225.99" y2="496.77"/>
      <line class="cls-7" x1="225.16" y1="498.78" x2="225.16" y2="496.77"/>
      <line class="cls-7" x1="228.36" y1="500.68" x2="228.36" y2="498.66"/>
      <line class="cls-7" x1="227.63" y1="500.81" x2="227.63" y2="498.79"/>
      <line class="cls-7" x1="226.85" y1="500.68" x2="226.85" y2="498.66"/>
      <line class="cls-7" x1="226.05" y1="500.68" x2="226.05" y2="498.66"/>
      <line class="cls-7" x1="225.22" y1="500.68" x2="225.22" y2="498.66"/>
      <line class="cls-7" x1="222.38" y1="496.65" x2="222.38" y2="481.28"/>
      <line class="cls-7" x1="216.17" y1="548.06" x2="217.97" y2="548.06"/>
      <line class="cls-7" x1="222.22" y1="546.23" x2="229.94" y2="546.23"/>
      <line class="cls-7" x1="253.1" y1="545.92" x2="259.16" y2="545.92"/>
      <line class="cls-7" x1="253.69" y1="543.08" x2="255.16" y2="543.08"/>
      <line class="cls-7" x1="253.1" y1="524.7" x2="259.16" y2="524.7"/>
      <line class="cls-7" x1="252.92" y1="512.97" x2="258.98" y2="512.97"/>
      <line class="cls-7" x1="250.69" y1="483.09" x2="258.98" y2="483.09"/>
      <line class="cls-7" x1="250.87" y1="478.07" x2="259.16" y2="478.07"/>
      <line class="cls-7" x1="263.04" y1="483.09" x2="270.46" y2="483.09"/>
      <line class="cls-7" x1="263.04" y1="506.28" x2="270.46" y2="506.28"/>
      <line class="cls-7" x1="263.04" y1="512.97" x2="270.46" y2="512.97"/>
      <line class="cls-7" x1="263.04" y1="531.57" x2="270.46" y2="531.57"/>
      <line class="cls-7" x1="263.04" y1="518.74" x2="270.46" y2="518.74"/>
      <line class="cls-7" x1="263.2" y1="478.07" x2="270.62" y2="478.07"/>
      <line class="cls-7" x1="254.95" y1="540.26" x2="259.16" y2="540.26"/>
      <line class="cls-7" x1="254.74" y1="535.92" x2="258.94" y2="535.92"/>
      <line class="cls-7" x1="254.95" y1="531.57" x2="259.16" y2="531.57"/>
      <line class="cls-7" x1="254.92" y1="506.39" x2="259.13" y2="506.39"/>
      <line class="cls-7" x1="254.92" y1="497.08" x2="259.13" y2="497.08"/>
      <line class="cls-7" x1="254.43" y1="494.55" x2="258" y2="494.55"/>
      <line class="cls-7" x1="254.95" y1="501.5" x2="259.16" y2="501.5"/>
      <line class="cls-7" x1="222.45" y1="531.25" x2="230.18" y2="531.25"/>
      <line class="cls-7" x1="222.52" y1="517.88" x2="230.25" y2="517.88"/>
      <line class="cls-7" x1="222.52" y1="511.67" x2="230.25" y2="511.67"/>
      <line class="cls-7" x1="222.38" y1="505.17" x2="230.1" y2="505.17"/>
      <line class="cls-7" x1="222.38" y1="500.83" x2="230.25" y2="500.83"/>
      <line class="cls-7" x1="224.33" y1="498.78" x2="228.3" y2="498.78"/>
      <line class="cls-7" x1="222.38" y1="496.9" x2="230.25" y2="496.9"/>
      <line class="cls-7" x1="218.68" y1="481.28" x2="229.99" y2="481.28"/>
      <line class="cls-7" x1="216.17" y1="546.65" x2="217.97" y2="546.65"/>
      <line class="cls-7" x1="216.17" y1="545.25" x2="217.97" y2="545.25"/>
      <line class="cls-7" x1="216.17" y1="543.85" x2="217.97" y2="543.85"/>
      <line class="cls-7" x1="216.17" y1="542.45" x2="217.97" y2="542.45"/>
      <line class="cls-7" x1="214.25" y1="548.06" x2="216.04" y2="548.06"/>
      <line class="cls-7" x1="214.25" y1="546.65" x2="216.04" y2="546.65"/>
      <line class="cls-7" x1="214.25" y1="545.25" x2="216.04" y2="545.25"/>
      <line class="cls-7" x1="214.25" y1="543.85" x2="216.04" y2="543.85"/>
      <line class="cls-7" x1="214.25" y1="542.45" x2="216.04" y2="542.45"/>
    </g>
</svg>
