<?xml version="1.0" encoding="UTF-8"?>
<svg xmlns="http://www.w3.org/2000/svg" viewBox="0 0 470.53 710.52">
  <defs>
    <style>
      .cls-1 {
        fill: #616161;
      }

      .cls-1, .cls-2, .cls-3, .cls-4, .cls-5, .cls-6, .cls-7, .cls-8, .cls-9, .cls-10, .cls-11, .cls-12, .cls-13, .cls-14, .cls-15, .cls-16, .cls-17, .cls-18, .cls-19 {
        stroke: #323232;
        stroke-width: .25px;
      }

      .cls-1, .cls-2, .cls-3, .cls-4, .cls-5, .cls-6, .cls-8, .cls-10, .cls-11, .cls-12, .cls-13, .cls-15, .cls-16, .cls-17, .cls-18, .cls-19 {
        stroke-linecap: square;
      }

      .cls-1, .cls-2, .cls-3, .cls-8, .cls-10, .cls-13, .cls-14, .cls-18, .cls-19 {
        stroke-miterlimit: 10;
      }

      .cls-2, .cls-16 {
        fill: #626262;
      }

      .cls-3, .cls-7, .cls-14, .cls-15 {
        fill: none;
      }

      .cls-4, .cls-5, .cls-6, .cls-7, .cls-9, .cls-11, .cls-12, .cls-15, .cls-16, .cls-17 {
        stroke-linejoin: round;
      }

      .cls-4, .cls-9, .cls-18 {
        fill: #616161;
      }

      .cls-5 {
        fill: #E8E8E8;
      }

      .cls-6 {
        fill: #1B1B1B;
      }

      .cls-7, .cls-9 {
        stroke-linecap: round;
      }

      .cls-8, .cls-11 {
        fill: #DADADA;
      }

      .cls-10, .cls-12 {
        fill: #303030;
      }

      .cls-13, .cls-17 {
        fill: #717171;
      }

      .cls-19 {
        fill: #404040;
      }
    </style>
  </defs>
  <g id="_1F-7" data-name="1F">
      <line class="cls-15" x1="124.98" y1="534.36" x2="130.1" y2="534.36"/>
      <line class="cls-15" x1="121.16" y1="529.86" x2="130.1" y2="529.86"/>
      <line class="cls-15" x1="113.82" y1="542.27" x2="122.76" y2="542.27"/>
      <line class="cls-15" x1="113.82" y1="538.03" x2="122.76" y2="538.03"/>
      <line class="cls-15" x1="141.06" y1="534.5" x2="158.8" y2="534.5"/>
      <line class="cls-15" x1="129.92" y1="541.53" x2="158.74" y2="541.53"/>
      <line class="cls-15" x1="155.21" y1="538.37" x2="158.74" y2="538.37"/>
      <line class="cls-15" x1="136.81" y1="538.37" x2="140.34" y2="538.37"/>
      <line class="cls-15" x1="130.1" y1="542.27" x2="133.63" y2="542.27"/>
      <line class="cls-15" x1="130.1" y1="542.93" x2="133.63" y2="542.93"/>
      <line class="cls-15" x1="130.1" y1="543.47" x2="133.63" y2="543.47"/>
      <line class="cls-15" x1="130.1" y1="544.01" x2="133.63" y2="544.01"/>
      <line class="cls-15" x1="133.62" y1="542.27" x2="136.81" y2="542.27"/>
      <line class="cls-15" x1="133.62" y1="542.93" x2="136.81" y2="542.93"/>
      <line class="cls-15" x1="133.62" y1="543.47" x2="136.81" y2="543.47"/>
      <line class="cls-15" x1="133.62" y1="544.01" x2="136.81" y2="544.01"/>
      <line class="cls-15" x1="121.16" y1="527.29" x2="130.1" y2="527.29"/>
      <line class="cls-15" x1="99.37" y1="528.1" x2="113.81" y2="528.1"/>
      <line class="cls-15" x1="99.37" y1="542.27" x2="102.81" y2="542.27"/>
      <line class="cls-15" x1="99.38" y1="532.61" x2="104.74" y2="532.61"/>
      <line class="cls-15" x1="113.81" y1="545.87" x2="113.81" y2="522.17"/>
      <line class="cls-15" x1="120.99" y1="529.86" x2="120.99" y2="522.37"/>
      <line class="cls-15" x1="124.98" y1="534.26" x2="124.98" y2="529.93"/>
      <line class="cls-15" x1="122.77" y1="538.03" x2="122.77" y2="530.15"/>
      <line class="cls-15" x1="122.77" y1="545.9" x2="122.77" y2="542.27"/>
      <line class="cls-15" x1="140.4" y1="546.28" x2="140.4" y2="541.53"/>
      <line class="cls-15" x1="143.72" y1="548.65" x2="143.72" y2="541.64"/>
      <line class="cls-15" x1="146.73" y1="548.65" x2="146.73" y2="541.64"/>
      <line class="cls-15" x1="136.84" y1="546.38" x2="136.84" y2="541.64"/>
      <line class="cls-15" x1="129.91" y1="546.38" x2="129.91" y2="541.64"/>
      <line class="cls-15" x1="140.4" y1="538.37" x2="140.4" y2="534.74"/>
      <line class="cls-15" x1="155.21" y1="538.37" x2="155.21" y2="534.74"/>
      <line class="cls-15" x1="136.84" y1="538.37" x2="136.84" y2="534.74"/>
      <line class="cls-15" x1="133.62" y1="544.31" x2="133.62" y2="541.82"/>
      <line class="cls-15" x1="102.81" y1="545.9" x2="102.81" y2="542.27"/>
      <line class="cls-15" x1="104.74" y1="532.56" x2="104.74" y2="528.26"/>
      <line class="cls-15" x1="109.12" y1="528.15" x2="109.12" y2="522.37"/>
    </g>
</svg>
