<?xml version="1.0" encoding="UTF-8"?>
<svg xmlns="http://www.w3.org/2000/svg" viewBox="0 0 470.53 710.52">
  <defs>
    <style>
      .cls-1 {
        fill: #616161;
      }

      .cls-1, .cls-2, .cls-3, .cls-4, .cls-5, .cls-6, .cls-7, .cls-8, .cls-9, .cls-10, .cls-11, .cls-12, .cls-13, .cls-14, .cls-15, .cls-16, .cls-17, .cls-18, .cls-19 {
        stroke: #323232;
        stroke-width: .25px;
      }

      .cls-1, .cls-2, .cls-3, .cls-4, .cls-5, .cls-6, .cls-8, .cls-10, .cls-11, .cls-12, .cls-13, .cls-15, .cls-16, .cls-17, .cls-18, .cls-19 {
        stroke-linecap: square;
      }

      .cls-1, .cls-2, .cls-3, .cls-8, .cls-10, .cls-13, .cls-14, .cls-18, .cls-19 {
        stroke-miterlimit: 10;
      }

      .cls-2, .cls-16 {
        fill: #626262;
      }

      .cls-3, .cls-7, .cls-14, .cls-15 {
        fill: none;
      }

      .cls-4, .cls-5, .cls-6, .cls-7, .cls-9, .cls-11, .cls-12, .cls-15, .cls-16, .cls-17 {
        stroke-linejoin: round;
      }

      .cls-4, .cls-9, .cls-18 {
        fill: #616161;
      }

      .cls-5 {
        fill: #E8E8E8;
      }

      .cls-6 {
        fill: #1B1B1B;
      }

      .cls-7, .cls-9 {
        stroke-linecap: round;
      }

      .cls-8, .cls-11 {
        fill: #DADADA;
      }

      .cls-10, .cls-12 {
        fill: #303030;
      }

      .cls-13, .cls-17 {
        fill: #717171;
      }

      .cls-19 {
        fill: #404040;
      }
    </style>
  </defs>
  <g id="_1F-8" data-name="1F">
      <line class="cls-7" x1="179.19" y1="539.84" x2="179.19" y2="530.15"/>
      <line class="cls-7" x1="181.18" y1="536.32" x2="181.18" y2="530.29"/>
      <line class="cls-7" x1="176.94" y1="545.55" x2="176.94" y2="543.85"/>
      <line class="cls-7" x1="176.3" y1="547.36" x2="176.3" y2="545.66"/>
      <line class="cls-7" x1="175.81" y1="547.36" x2="175.81" y2="545.66"/>
      <line class="cls-7" x1="175.26" y1="547.25" x2="175.26" y2="545.55"/>
      <line class="cls-7" x1="174.69" y1="547.25" x2="174.69" y2="545.55"/>
      <line class="cls-7" x1="174.07" y1="547.25" x2="174.07" y2="545.55"/>
      <line class="cls-7" x1="173.4" y1="547.25" x2="173.4" y2="545.55"/>
      <line class="cls-7" x1="179.61" y1="522.68" x2="179.61" y2="518.18"/>
      <path class="cls-7" d="M174.46,530.15v3c1.33,0,4.72,0,4.72,0"/>
      <line class="cls-7" x1="183.88" y1="522.68" x2="183.88" y2="518.18"/>
      <line class="cls-7" x1="185.87" y1="543.44" x2="185.87" y2="530.15"/>
      <line class="cls-7" x1="171.18" y1="543.82" x2="179.02" y2="543.82"/>
      <line class="cls-7" x1="171.43" y1="530.15" x2="181.18" y2="530.15"/>
      <line class="cls-7" x1="170.93" y1="545.55" x2="176.94" y2="545.55"/>
      <line class="cls-7" x1="181.18" y1="533.15" x2="185.8" y2="533.15"/>
      <line class="cls-7" x1="177.02" y1="545.35" x2="179.16" y2="545.35"/>
      <line class="cls-7" x1="176.99" y1="544.89" x2="179.13" y2="544.89"/>
      <line class="cls-7" x1="177.02" y1="544.38" x2="179.16" y2="544.38"/>
      <line class="cls-7" x1="170.98" y1="536.32" x2="179.13" y2="536.32"/>
      <line class="cls-7" x1="185.87" y1="536.08" x2="192.51" y2="536.08"/>
      <line class="cls-7" x1="183.88" y1="522.68" x2="192.51" y2="522.68"/>
      <line class="cls-7" x1="170.98" y1="522.68" x2="179.61" y2="522.68"/>
      <line class="cls-7" x1="179.78" y1="521.64" x2="183.77" y2="521.64"/>
    </g>
</svg>
