<?xml version="1.0" encoding="UTF-8"?>
<svg xmlns="http://www.w3.org/2000/svg" viewBox="0 0 470.53 710.52">
  <defs>
    <style>
      .cls-1 {
        fill: #616161;
      }

      .cls-1, .cls-2, .cls-3, .cls-4, .cls-5, .cls-6, .cls-7, .cls-8, .cls-9, .cls-10, .cls-11, .cls-12, .cls-13, .cls-14, .cls-15, .cls-16, .cls-17, .cls-18, .cls-19 {
        stroke: #323232;
        stroke-width: .25px;
      }

      .cls-1, .cls-2, .cls-3, .cls-4, .cls-5, .cls-6, .cls-8, .cls-10, .cls-11, .cls-12, .cls-13, .cls-15, .cls-16, .cls-17, .cls-18, .cls-19 {
        stroke-linecap: square;
      }

      .cls-1, .cls-2, .cls-3, .cls-8, .cls-10, .cls-13, .cls-14, .cls-18, .cls-19 {
        stroke-miterlimit: 10;
      }

      .cls-2, .cls-16 {
        fill: #626262;
      }

      .cls-3, .cls-7, .cls-14, .cls-15 {
        fill: none;
      }

      .cls-4, .cls-5, .cls-6, .cls-7, .cls-9, .cls-11, .cls-12, .cls-15, .cls-16, .cls-17 {
        stroke-linejoin: round;
      }

      .cls-4, .cls-9, .cls-18 {
        fill: #616161;
      }

      .cls-5 {
        fill: #E8E8E8;
      }

      .cls-6 {
        fill: #1B1B1B;
      }

      .cls-7, .cls-9 {
        stroke-linecap: round;
      }

      .cls-8, .cls-11 {
        fill: #DADADA;
      }

      .cls-10, .cls-12 {
        fill: #303030;
      }

      .cls-13, .cls-17 {
        fill: #717171;
      }

      .cls-19 {
        fill: #404040;
      }
    </style>
  </defs>
  <g id="_1F" data-name="1F">
      <line class="cls-7" x1="219.7" y1="294.71" x2="223.16" y2="291.11"/>
      <line class="cls-7" x1="218.14" y1="292.84" x2="221.41" y2="289.45"/>
      <line class="cls-7" x1="213.83" y1="288.69" x2="217.08" y2="285.32"/>
      <line class="cls-7" x1="209.54" y1="284.68" x2="212.87" y2="281.23"/>
      <line class="cls-7" x1="204.86" y1="280.11" x2="208.16" y2="276.69"/>
      <line class="cls-7" x1="200.17" y1="275.58" x2="203.49" y2="272.15"/>
      <line class="cls-7" x1="195.2" y1="270.6" x2="198.43" y2="267.25"/>
      <line class="cls-7" x1="190" y1="265.61" x2="193.27" y2="262.22"/>
      <line class="cls-7" x1="184.88" y1="260.8" x2="188.21" y2="257.36"/>
      <line class="cls-7" x1="221.66" y1="297.25" x2="222.52" y2="296.29"/>
      <line class="cls-7" x1="221.31" y1="296.89" x2="222.17" y2="295.94"/>
      <line class="cls-7" x1="222.09" y1="297.63" x2="222.96" y2="296.68"/>
      <line class="cls-7" x1="222.52" y1="298.03" x2="223.39" y2="297.07"/>
      <line class="cls-7" x1="222.9" y1="298.44" x2="223.76" y2="297.48"/>
      <line class="cls-7" x1="223.25" y1="298.8" x2="224.11" y2="297.85"/>
      <line class="cls-7" x1="221.67" y1="295.39" x2="224.77" y2="298.49"/>
      <line class="cls-7" x1="184.2" y1="257.73" x2="185.97" y2="259.5"/>
      <line class="cls-7" x1="185.28" y1="256.6" x2="187.05" y2="258.37"/>
      <line class="cls-7" x1="182.97" y1="259.06" x2="219.65" y2="294.63"/>
      <line class="cls-7" x1="221.31" y1="296.89" x2="223.34" y2="298.93"/>
    </g>
</svg>
