<?xml version="1.0" encoding="UTF-8"?>
<svg xmlns="http://www.w3.org/2000/svg" viewBox="0 0 470.53 710.52">
  <defs>
    <style>
      .cls-1 {
        fill: #616161;
      }

      .cls-1, .cls-2, .cls-3, .cls-4, .cls-5, .cls-6, .cls-7, .cls-8, .cls-9, .cls-10, .cls-11, .cls-12, .cls-13, .cls-14, .cls-15, .cls-16, .cls-17, .cls-18, .cls-19 {
        stroke: #323232;
        stroke-width: .25px;
      }

      .cls-1, .cls-2, .cls-3, .cls-4, .cls-5, .cls-6, .cls-8, .cls-10, .cls-11, .cls-12, .cls-13, .cls-15, .cls-16, .cls-17, .cls-18, .cls-19 {
        stroke-linecap: square;
      }

      .cls-1, .cls-2, .cls-3, .cls-8, .cls-10, .cls-13, .cls-14, .cls-18, .cls-19 {
        stroke-miterlimit: 10;
      }

      .cls-2, .cls-16 {
        fill: #626262;
      }

      .cls-3, .cls-7, .cls-14, .cls-15 {
        fill: none;
      }

      .cls-4, .cls-5, .cls-6, .cls-7, .cls-9, .cls-11, .cls-12, .cls-15, .cls-16, .cls-17 {
        stroke-linejoin: round;
      }

      .cls-4, .cls-9, .cls-18 {
        fill: #616161;
      }

      .cls-5 {
        fill: #E8E8E8;
      }

      .cls-6 {
        fill: #1B1B1B;
      }

      .cls-7, .cls-9 {
        stroke-linecap: round;
      }

      .cls-8, .cls-11 {
        fill: #DADADA;
      }

      .cls-10, .cls-12 {
        fill: #303030;
      }

      .cls-13, .cls-17 {
        fill: #717171;
      }

      .cls-19 {
        fill: #404040;
      }
    </style>
  </defs>
  <g id="_2F-4" data-name="2F">
      <line class="cls-15" x1="144.99" y1="595.23" x2="144.99" y2="573.95"/>
      <line class="cls-15" x1="142.03" y1="595.23" x2="142.03" y2="581.26"/>
      <line class="cls-15" x1="153.3" y1="595.08" x2="153.3" y2="589.54"/>
      <line class="cls-15" x1="152.06" y1="584.27" x2="152.06" y2="579.32"/>
      <line class="cls-15" x1="156.05" y1="584.37" x2="156.05" y2="574.28"/>
      <line class="cls-15" x1="152.06" y1="589.43" x2="152.06" y2="584.48"/>
      <line class="cls-15" x1="135.98" y1="581.32" x2="135.98" y2="578.21"/>
      <line class="cls-15" x1="137.87" y1="578.21" x2="137.87" y2="574.13"/>
      <line class="cls-15" x1="137.87" y1="573.95" x2="137.87" y2="569.29"/>
      <line class="cls-15" x1="135.06" y1="573.95" x2="135.06" y2="571.62"/>
      <line class="cls-15" x1="135.06" y1="573.95" x2="135.06" y2="571.62"/>
      <line class="cls-15" x1="134.31" y1="573.95" x2="134.31" y2="571.62"/>
      <line class="cls-15" x1="136.61" y1="573.95" x2="136.61" y2="571.62"/>
      <line class="cls-15" x1="136.61" y1="573.95" x2="136.61" y2="571.62"/>
      <line class="cls-15" x1="135.86" y1="573.95" x2="135.86" y2="571.62"/>
      <line class="cls-15" x1="133.63" y1="573.95" x2="133.63" y2="571.62"/>
      <line class="cls-15" x1="132.91" y1="573.95" x2="132.91" y2="571.62"/>
      <line class="cls-15" x1="135.06" y1="571.77" x2="135.06" y2="569.44"/>
      <line class="cls-15" x1="135.06" y1="571.77" x2="135.06" y2="569.44"/>
      <line class="cls-15" x1="134.31" y1="571.77" x2="134.31" y2="569.44"/>
      <line class="cls-15" x1="136.61" y1="571.77" x2="136.61" y2="569.44"/>
      <line class="cls-15" x1="136.61" y1="571.77" x2="136.61" y2="569.44"/>
      <line class="cls-15" x1="135.86" y1="571.77" x2="135.86" y2="569.44"/>
      <line class="cls-15" x1="133.63" y1="571.77" x2="133.63" y2="569.44"/>
      <line class="cls-15" x1="132.91" y1="571.77" x2="132.91" y2="569.44"/>
      <line class="cls-15" x1="145.17" y1="584.37" x2="152.06" y2="584.37"/>
      <line class="cls-15" x1="145.21" y1="589.54" x2="153.34" y2="589.54"/>
      <line class="cls-15" x1="144.99" y1="579.41" x2="152.06" y2="579.41"/>
      <line class="cls-15" x1="148.18" y1="573.53" x2="148.18" y2="569.35"/>
      <line class="cls-15" x1="150.97" y1="573.6" x2="150.97" y2="569.47"/>
      <line class="cls-15" x1="154.05" y1="571.73" x2="154.05" y2="569.48"/>
      <line class="cls-15" x1="154.98" y1="571.73" x2="154.98" y2="569.48"/>
      <line class="cls-15" x1="155.79" y1="571.73" x2="155.79" y2="569.48"/>
      <line class="cls-15" x1="156.77" y1="571.73" x2="156.77" y2="569.48"/>
      <line class="cls-15" x1="157.7" y1="571.73" x2="157.7" y2="569.48"/>
      <line class="cls-15" x1="158.6" y1="571.73" x2="158.6" y2="569.48"/>
      <line class="cls-15" x1="154.05" y1="574.05" x2="154.05" y2="571.8"/>
      <line class="cls-15" x1="154.98" y1="574.05" x2="154.98" y2="571.8"/>
      <line class="cls-15" x1="155.79" y1="574.05" x2="155.79" y2="571.8"/>
      <line class="cls-15" x1="156.77" y1="574.05" x2="156.77" y2="571.8"/>
      <line class="cls-15" x1="157.7" y1="574.05" x2="157.7" y2="571.8"/>
      <line class="cls-15" x1="158.6" y1="574.05" x2="158.6" y2="571.8"/>
      <line class="cls-15" x1="153.34" y1="574.13" x2="161.17" y2="574.13"/>
      <line class="cls-15" x1="153.41" y1="571.87" x2="159.11" y2="571.87"/>
      <line class="cls-15" x1="152.06" y1="584.37" x2="161.08" y2="584.37"/>
      <line class="cls-15" x1="145.25" y1="573.6" x2="148.18" y2="573.6"/>
      <line class="cls-15" x1="148.3" y1="573.6" x2="150.97" y2="573.6"/>
      <line class="cls-15" x1="130.05" y1="590.62" x2="142.03" y2="590.62"/>
      <line class="cls-15" x1="130.1" y1="581.26" x2="142.08" y2="581.26"/>
      <line class="cls-15" x1="132.46" y1="571.62" x2="137.87" y2="571.62"/>
      <line class="cls-15" x1="130.1" y1="573.95" x2="137.87" y2="573.95"/>
    </g>
</svg>
