<?xml version="1.0" encoding="UTF-8"?>
<svg xmlns="http://www.w3.org/2000/svg" viewBox="0 0 470.53 710.52">
  <defs>
    <style>
      .cls-1 {
        fill: #616161;
      }

      .cls-1, .cls-2, .cls-3, .cls-4, .cls-5, .cls-6, .cls-7, .cls-8, .cls-9, .cls-10, .cls-11, .cls-12, .cls-13, .cls-14, .cls-15, .cls-16, .cls-17, .cls-18, .cls-19 {
        stroke: #323232;
        stroke-width: .25px;
      }

      .cls-1, .cls-2, .cls-3, .cls-4, .cls-5, .cls-6, .cls-8, .cls-10, .cls-11, .cls-12, .cls-13, .cls-15, .cls-16, .cls-17, .cls-18, .cls-19 {
        stroke-linecap: square;
      }

      .cls-1, .cls-2, .cls-3, .cls-8, .cls-10, .cls-13, .cls-14, .cls-18, .cls-19 {
        stroke-miterlimit: 10;
      }

      .cls-2, .cls-16 {
        fill: #626262;
      }

      .cls-3, .cls-7, .cls-14, .cls-15 {
        fill: none;
      }

      .cls-4, .cls-5, .cls-6, .cls-7, .cls-9, .cls-11, .cls-12, .cls-15, .cls-16, .cls-17 {
        stroke-linejoin: round;
      }

      .cls-4, .cls-9, .cls-18 {
        fill: #616161;
      }

      .cls-5 {
        fill: #E8E8E8;
      }

      .cls-6 {
        fill: #1B1B1B;
      }

      .cls-7, .cls-9 {
        stroke-linecap: round;
      }

      .cls-8, .cls-11 {
        fill: #DADADA;
      }

      .cls-10, .cls-12 {
        fill: #303030;
      }

      .cls-13, .cls-17 {
        fill: #717171;
      }

      .cls-19 {
        fill: #404040;
      }
    </style>
  </defs>
  <g id="_2F-5" data-name="2F">
      <polygon class="cls-9" points="180.23 570.42 177.76 570.42 177.51 570.14 177.51 574.44 177.76 574.23 180.23 574.23 180.23 570.42"/>
      <polygon class="cls-9" points="180.45 653.94 180.45 657.08 180.45 657.11 188.04 657.11 188.03 657.07 188.03 653.93 180.45 653.94"/>
      <polygon class="cls-9" points="218.39 653.9 218.39 657.18 225.98 657.18 225.98 653.89 218.39 653.9"/>
      <line class="cls-7" x1="217.96" y1="608.45" x2="217.96" y2="616.19"/>
      <line class="cls-7" x1="221.58" y1="568.42" x2="221.58" y2="645.78"/>
      <line class="cls-7" x1="225.18" y1="581.93" x2="225.18" y2="586.84"/>
      <line class="cls-7" x1="218.12" y1="568.29" x2="218.12" y2="580.95"/>
      <line class="cls-7" x1="215.23" y1="608.45" x2="215.23" y2="616.19"/>
      <line class="cls-7" x1="212.5" y1="608.62" x2="212.5" y2="616.36"/>
      <line class="cls-7" x1="208.63" y1="608.45" x2="208.63" y2="616.19"/>
      <line class="cls-7" x1="196.33" y1="608.59" x2="196.33" y2="616.34"/>
      <line class="cls-7" x1="189.43" y1="608.62" x2="189.43" y2="616.36"/>
      <line class="cls-7" x1="191.64" y1="608.59" x2="191.64" y2="616.34"/>
      <line class="cls-7" x1="186.84" y1="610.85" x2="186.84" y2="616.36"/>
      <line class="cls-7" x1="184.24" y1="608.45" x2="184.24" y2="616.19"/>
      <line class="cls-7" x1="184.43" y1="620.15" x2="184.43" y2="644.03"/>
      <line class="cls-7" x1="185.31" y1="653.92" x2="185.31" y2="657.07"/>
      <line class="cls-7" x1="220.64" y1="654.03" x2="220.64" y2="657.18"/>
      <line class="cls-7" x1="222.08" y1="654.03" x2="222.08" y2="657.18"/>
      <line class="cls-7" x1="223.44" y1="654.03" x2="223.44" y2="657.18"/>
      <line class="cls-7" x1="224.75" y1="654.03" x2="224.75" y2="657.18"/>
      <line class="cls-7" x1="184.25" y1="653.9" x2="184.25" y2="657.05"/>
      <line class="cls-7" x1="183.15" y1="653.89" x2="183.15" y2="657.03"/>
      <line class="cls-7" x1="181.98" y1="653.85" x2="181.98" y2="657"/>
      <line class="cls-7" x1="184.24" y1="589.46" x2="184.24" y2="608.22"/>
      <line class="cls-7" x1="184.24" y1="578.96" x2="184.24" y2="589.15"/>
      <line class="cls-7" x1="215.23" y1="609.96" x2="217.96" y2="609.96"/>
      <line class="cls-7" x1="215.23" y1="611.23" x2="217.96" y2="611.23"/>
      <line class="cls-7" x1="215.23" y1="612.49" x2="217.96" y2="612.49"/>
      <line class="cls-7" x1="215.23" y1="613.76" x2="217.96" y2="613.76"/>
      <line class="cls-7" x1="215.23" y1="615.03" x2="217.96" y2="615.03"/>
      <line class="cls-7" x1="212.59" y1="609.96" x2="215.33" y2="609.96"/>
      <line class="cls-7" x1="212.59" y1="611.23" x2="215.33" y2="611.23"/>
      <line class="cls-7" x1="212.59" y1="612.49" x2="215.33" y2="612.49"/>
      <line class="cls-7" x1="212.59" y1="613.76" x2="215.33" y2="613.76"/>
      <line class="cls-7" x1="212.59" y1="615.03" x2="215.33" y2="615.03"/>
      <line class="cls-7" x1="184.3" y1="578.96" x2="191.6" y2="578.96"/>
      <line class="cls-7" x1="184.54" y1="584.06" x2="191.84" y2="584.06"/>
      <line class="cls-7" x1="177.76" y1="573.27" x2="180.23" y2="573.27"/>
      <line class="cls-7" x1="177.76" y1="572.32" x2="180.23" y2="572.32"/>
      <line class="cls-7" x1="177.76" y1="571.37" x2="180.23" y2="571.37"/>
      <line class="cls-7" x1="184.43" y1="595.5" x2="191.73" y2="595.5"/>
      <line class="cls-7" x1="184.43" y1="601.84" x2="191.73" y2="601.84"/>
      <line class="cls-7" x1="184.43" y1="608.34" x2="191.73" y2="608.34"/>
      <line class="cls-7" x1="189.07" y1="616.48" x2="212.5" y2="616.48"/>
      <line class="cls-7" x1="218.39" y1="645.78" x2="229.45" y2="645.78"/>
      <line class="cls-7" x1="221.58" y1="611.63" x2="229.51" y2="611.63"/>
      <line class="cls-7" x1="221.58" y1="608.34" x2="229.51" y2="608.34"/>
      <line class="cls-7" x1="221.58" y1="602.71" x2="229.53" y2="602.7"/>
      <line class="cls-7" x1="221.58" y1="596.98" x2="229.51" y2="596.98"/>
      <line class="cls-7" x1="221.51" y1="620.33" x2="229.49" y2="620.33"/>
      <line class="cls-7" x1="221.46" y1="614.59" x2="229.47" y2="614.59"/>
      <line class="cls-7" x1="221.58" y1="591.3" x2="229.51" y2="591.3"/>
      <line class="cls-7" x1="221.58" y1="581.91" x2="229.47" y2="581.91"/>
      <line class="cls-7" x1="215" y1="577.06" x2="218.09" y2="577.06"/>
      <line class="cls-7" x1="214.79" y1="571.05" x2="217.89" y2="571.05"/>
      <line class="cls-7" x1="214.79" y1="572.26" x2="217.89" y2="572.26"/>
      <line class="cls-7" x1="214.79" y1="573.66" x2="217.89" y2="573.66"/>
      <line class="cls-7" x1="214.79" y1="574.83" x2="217.89" y2="574.83"/>
      <line class="cls-7" x1="214.79" y1="575.94" x2="217.89" y2="575.94"/>
      <line class="cls-7" x1="221.53" y1="577.24" x2="229.28" y2="577.24"/>
      <line class="cls-7" x1="221.58" y1="586.84" x2="225.18" y2="586.84"/>
      <line class="cls-7" x1="221.51" y1="572.92" x2="229.24" y2="572.92"/>
      <line class="cls-7" x1="221.54" y1="626.71" x2="229.49" y2="626.71"/>
      <line class="cls-7" x1="221.56" y1="623.54" x2="229.47" y2="623.54"/>
      <line class="cls-7" x1="186.84" y1="610.85" x2="189.32" y2="610.85"/>
      <line class="cls-7" x1="184.3" y1="611.63" x2="186.78" y2="611.63"/>
      <line class="cls-7" x1="186.95" y1="611.63" x2="189.43" y2="611.63"/>
      <line class="cls-7" x1="186.89" y1="612.49" x2="189.37" y2="612.49"/>
      <line class="cls-7" x1="186.84" y1="613.61" x2="189.32" y2="613.61"/>
      <line class="cls-7" x1="186.65" y1="614.59" x2="189.13" y2="614.59"/>
      <line class="cls-7" x1="186.84" y1="615.44" x2="189.32" y2="615.44"/>
      <line class="cls-7" x1="184.3" y1="612.61" x2="186.78" y2="612.61"/>
      <line class="cls-7" x1="184.3" y1="613.61" x2="186.78" y2="613.61"/>
      <line class="cls-7" x1="184.3" y1="614.59" x2="186.78" y2="614.59"/>
      <line class="cls-7" x1="184.3" y1="615.44" x2="186.78" y2="615.44"/>
      <line class="cls-7" x1="184.43" y1="620.15" x2="191.73" y2="620.15"/>
      <line class="cls-7" x1="184.43" y1="624.38" x2="191.67" y2="624.38"/>
      <line class="cls-7" x1="184.43" y1="628.34" x2="191.69" y2="628.38"/>
      <line class="cls-7" x1="184.43" y1="639.78" x2="191.66" y2="639.78"/>
      <line class="cls-7" x1="180.23" y1="589.15" x2="191.4" y2="589.15"/>
      <line class="cls-7" x1="180.44" y1="644.2" x2="191.61" y2="644.2"/>
      <line class="cls-7" x1="220.64" y1="654.03" x2="220.64" y2="657.18"/>
      <line class="cls-7" x1="222.08" y1="654.03" x2="222.08" y2="657.18"/>
      <line class="cls-7" x1="223.44" y1="654.03" x2="223.44" y2="657.18"/>
      <line class="cls-7" x1="224.75" y1="654.03" x2="224.75" y2="657.18"/>
      <line class="cls-7" x1="186.53" y1="653.89" x2="186.53" y2="657.04"/>
    </g>
</svg>
