<?xml version="1.0" encoding="UTF-8"?>
<svg xmlns="http://www.w3.org/2000/svg" viewBox="0 0 470.53 710.52">
  <defs>
    <style>
      .cls-1 {
        fill: #616161;
      }

      .cls-1, .cls-2, .cls-3, .cls-4, .cls-5, .cls-6, .cls-7, .cls-8, .cls-9, .cls-10, .cls-11, .cls-12, .cls-13, .cls-14, .cls-15, .cls-16, .cls-17, .cls-18, .cls-19 {
        stroke: #323232;
        stroke-width: .25px;
      }

      .cls-1, .cls-2, .cls-3, .cls-4, .cls-5, .cls-6, .cls-8, .cls-10, .cls-11, .cls-12, .cls-13, .cls-15, .cls-16, .cls-17, .cls-18, .cls-19 {
        stroke-linecap: square;
      }

      .cls-1, .cls-2, .cls-3, .cls-8, .cls-10, .cls-13, .cls-14, .cls-18, .cls-19 {
        stroke-miterlimit: 10;
      }

      .cls-2, .cls-16 {
        fill: #626262;
      }

      .cls-3, .cls-7, .cls-14, .cls-15 {
        fill: none;
      }

      .cls-4, .cls-5, .cls-6, .cls-7, .cls-9, .cls-11, .cls-12, .cls-15, .cls-16, .cls-17 {
        stroke-linejoin: round;
      }

      .cls-4, .cls-9, .cls-18 {
        fill: #616161;
      }

      .cls-5 {
        fill: #E8E8E8;
      }

      .cls-6 {
        fill: #1B1B1B;
      }

      .cls-7, .cls-9 {
        stroke-linecap: round;
      }

      .cls-8, .cls-11 {
        fill: #DADADA;
      }

      .cls-10, .cls-12 {
        fill: #303030;
      }

      .cls-13, .cls-17 {
        fill: #717171;
      }

      .cls-19 {
        fill: #404040;
      }
    </style>
  </defs>
  <g id="_2F-7" data-name="2F">
      <line class="cls-7" x1="124.98" y1="534.36" x2="130.11" y2="534.36"/>
      <line class="cls-7" x1="122.81" y1="538.03" x2="129.91" y2="538.03"/>
      <line class="cls-7" x1="124.4" y1="541.53" x2="129.91" y2="541.53"/>
      <line class="cls-7" x1="124.4" y1="542.81" x2="127.73" y2="542.81"/>
      <line class="cls-7" x1="124.98" y1="529.86" x2="130.11" y2="529.86"/>
      <line class="cls-7" x1="149.02" y1="534.51" x2="158.81" y2="534.51"/>
      <line class="cls-7" x1="139.11" y1="539.78" x2="149.02" y2="539.78"/>
      <line class="cls-7" x1="139.22" y1="544.01" x2="147.31" y2="544.01"/>
      <line class="cls-7" x1="139.15" y1="542.81" x2="141.43" y2="542.81"/>
      <line class="cls-7" x1="139.12" y1="540.73" x2="141.43" y2="540.73"/>
      <line class="cls-7" x1="130.11" y1="542.27" x2="133.64" y2="542.27"/>
      <line class="cls-7" x1="130.11" y1="542.93" x2="133.64" y2="542.93"/>
      <line class="cls-7" x1="130.11" y1="543.47" x2="133.64" y2="543.47"/>
      <line class="cls-7" x1="130.11" y1="544.01" x2="133.64" y2="544.01"/>
      <line class="cls-7" x1="133.63" y1="542.27" x2="136.81" y2="542.27"/>
      <line class="cls-7" x1="133.63" y1="542.93" x2="136.81" y2="542.93"/>
      <line class="cls-7" x1="133.63" y1="543.47" x2="136.81" y2="543.47"/>
      <line class="cls-7" x1="133.63" y1="544.01" x2="136.81" y2="544.01"/>
      <line class="cls-7" x1="124.98" y1="527.3" x2="130.11" y2="527.3"/>
      <line class="cls-7" x1="99.27" y1="528.12" x2="109.02" y2="528.12"/>
      <line class="cls-7" x1="124.98" y1="527.3" x2="124.98" y2="522.37"/>
      <line class="cls-7" x1="124.98" y1="538.03" x2="124.98" y2="529.93"/>
      <line class="cls-7" x1="124.4" y1="545.92" x2="124.4" y2="542.93"/>
      <line class="cls-7" x1="125.35" y1="545.92" x2="125.35" y2="542.93"/>
      <line class="cls-7" x1="126.19" y1="545.94" x2="126.19" y2="542.95"/>
      <line class="cls-7" x1="126.92" y1="545.98" x2="126.92" y2="542.99"/>
      <line class="cls-7" x1="127.73" y1="545.94" x2="127.73" y2="542.81"/>
      <line class="cls-7" x1="124.4" y1="542.93" x2="124.4" y2="541.57"/>
      <line class="cls-7" x1="124.4" y1="541.46" x2="124.4" y2="538.03"/>
      <line class="cls-7" x1="122.81" y1="546.02" x2="122.81" y2="538.03"/>
      <line class="cls-7" x1="125.35" y1="541.46" x2="125.35" y2="538.03"/>
      <line class="cls-7" x1="126.19" y1="541.48" x2="126.19" y2="538.05"/>
      <line class="cls-7" x1="126.92" y1="541.53" x2="126.92" y2="538.1"/>
      <line class="cls-7" x1="127.73" y1="541.48" x2="127.73" y2="538.05"/>
      <line class="cls-7" x1="128.67" y1="541.46" x2="128.67" y2="538.03"/>
      <line class="cls-7" x1="139.11" y1="546.23" x2="139.11" y2="539.78"/>
      <line class="cls-7" x1="147.31" y1="548.65" x2="147.31" y2="539.78"/>
      <line class="cls-7" x1="141.43" y1="542.81" x2="141.43" y2="539.88"/>
      <line class="cls-7" x1="149.02" y1="548.72" x2="149.02" y2="534.57"/>
      <line class="cls-7" x1="136.84" y1="546.26" x2="136.84" y2="541.64"/>
      <line class="cls-7" x1="129.91" y1="546.22" x2="129.91" y2="541.53"/>
      <line class="cls-7" x1="133.63" y1="544.32" x2="133.63" y2="541.82"/>
      <line class="cls-7" x1="109.06" y1="528.05" x2="109.06" y2="522.28"/>
    </g>
</svg>
