<?xml version="1.0" encoding="UTF-8"?>
<svg xmlns="http://www.w3.org/2000/svg" viewBox="0 0 470.53 710.52">
  <defs>
    <style>
      .cls-1 {
        fill: #616161;
      }

      .cls-1, .cls-2, .cls-3, .cls-4, .cls-5, .cls-6, .cls-7, .cls-8, .cls-9, .cls-10, .cls-11, .cls-12, .cls-13, .cls-14, .cls-15, .cls-16, .cls-17, .cls-18, .cls-19 {
        stroke: #323232;
        stroke-width: .25px;
      }

      .cls-1, .cls-2, .cls-3, .cls-4, .cls-5, .cls-6, .cls-8, .cls-10, .cls-11, .cls-12, .cls-13, .cls-15, .cls-16, .cls-17, .cls-18, .cls-19 {
        stroke-linecap: square;
      }

      .cls-1, .cls-2, .cls-3, .cls-8, .cls-10, .cls-13, .cls-14, .cls-18, .cls-19 {
        stroke-miterlimit: 10;
      }

      .cls-2, .cls-16 {
        fill: #626262;
      }

      .cls-3, .cls-7, .cls-14, .cls-15 {
        fill: none;
      }

      .cls-4, .cls-5, .cls-6, .cls-7, .cls-9, .cls-11, .cls-12, .cls-15, .cls-16, .cls-17 {
        stroke-linejoin: round;
      }

      .cls-4, .cls-9, .cls-18 {
        fill: #616161;
      }

      .cls-5 {
        fill: #E8E8E8;
      }

      .cls-6 {
        fill: #1B1B1B;
      }

      .cls-7, .cls-9 {
        stroke-linecap: round;
      }

      .cls-8, .cls-11 {
        fill: #DADADA;
      }

      .cls-10, .cls-12 {
        fill: #303030;
      }

      .cls-13, .cls-17 {
        fill: #717171;
      }

      .cls-19 {
        fill: #404040;
      }
    </style>
  </defs>
  <g id="_2F-8" data-name="2F">
      <line class="cls-3" x1="178.05" y1="543.71" x2="178.05" y2="535.04"/>
      <line class="cls-3" x1="175.5" y1="534.74" x2="175.5" y2="532.09"/>
      <line class="cls-3" x1="178.05" y1="532.09" x2="178.05" y2="530.34"/>
      <line class="cls-3" x1="179.78" y1="530.15" x2="179.78" y2="518.18"/>
      <line class="cls-3" x1="176.72" y1="518.18" x2="176.72" y2="516.26"/>
      <line class="cls-3" x1="177.28" y1="518.18" x2="177.28" y2="516.26"/>
      <line class="cls-3" x1="177.79" y1="518.14" x2="177.79" y2="516.33"/>
      <line class="cls-3" x1="178.26" y1="518.14" x2="178.26" y2="516.33"/>
      <line class="cls-3" x1="178.74" y1="518.14" x2="178.74" y2="516.4"/>
      <line class="cls-3" x1="179.22" y1="518.11" x2="179.22" y2="516.4"/>
      <line class="cls-3" x1="176.3" y1="547.36" x2="176.3" y2="545.66"/>
      <line class="cls-3" x1="175.81" y1="547.36" x2="175.81" y2="545.66"/>
      <line class="cls-3" x1="175.26" y1="547.25" x2="175.26" y2="545.55"/>
      <line class="cls-3" x1="174.69" y1="547.25" x2="174.69" y2="545.55"/>
      <line class="cls-3" x1="174.07" y1="547.25" x2="174.07" y2="545.55"/>
      <line class="cls-3" x1="173.4" y1="547.25" x2="173.4" y2="545.55"/>
      <line class="cls-3" x1="176.3" y1="545.79" x2="176.3" y2="544.09"/>
      <line class="cls-3" x1="175.81" y1="545.79" x2="175.81" y2="544.09"/>
      <line class="cls-3" x1="175.26" y1="545.69" x2="175.26" y2="543.99"/>
      <line class="cls-3" x1="174.69" y1="545.69" x2="174.69" y2="543.99"/>
      <line class="cls-3" x1="174.07" y1="545.69" x2="174.07" y2="543.99"/>
      <line class="cls-3" x1="173.4" y1="545.69" x2="173.4" y2="543.99"/>
      <line class="cls-3" x1="171.18" y1="543.82" x2="179.02" y2="543.82"/>
      <line class="cls-3" x1="170.93" y1="530.15" x2="186.79" y2="530.15"/>
      <line class="cls-3" x1="170.93" y1="545.55" x2="176.3" y2="545.55"/>
      <line class="cls-3" x1="175.53" y1="534.89" x2="178.05" y2="534.89"/>
      <line class="cls-3" x1="175.6" y1="532.09" x2="178.05" y2="532.09"/>
      <line class="cls-3" x1="171.03" y1="540.21" x2="178.05" y2="540.21"/>
      <line class="cls-3" x1="171.17" y1="536.89" x2="178.05" y2="536.89"/>
      <line class="cls-3" x1="170.94" y1="533.43" x2="175.26" y2="533.43"/>
    </g>
</svg>
