<?xml version="1.0" encoding="UTF-8"?>
<svg xmlns="http://www.w3.org/2000/svg" viewBox="0 0 470.53 710.52">
  <defs>
    <style>
      .cls-1 {
        fill: #616161;
      }

      .cls-1, .cls-2, .cls-3, .cls-4, .cls-5, .cls-6, .cls-7, .cls-8, .cls-9, .cls-10, .cls-11, .cls-12, .cls-13, .cls-14, .cls-15, .cls-16, .cls-17, .cls-18, .cls-19 {
        stroke: #323232;
        stroke-width: .25px;
      }

      .cls-1, .cls-2, .cls-3, .cls-4, .cls-5, .cls-6, .cls-8, .cls-10, .cls-11, .cls-12, .cls-13, .cls-15, .cls-16, .cls-17, .cls-18, .cls-19 {
        stroke-linecap: square;
      }

      .cls-1, .cls-2, .cls-3, .cls-8, .cls-10, .cls-13, .cls-14, .cls-18, .cls-19 {
        stroke-miterlimit: 10;
      }

      .cls-2, .cls-16 {
        fill: #626262;
      }

      .cls-3, .cls-7, .cls-14, .cls-15 {
        fill: none;
      }

      .cls-4, .cls-5, .cls-6, .cls-7, .cls-9, .cls-11, .cls-12, .cls-15, .cls-16, .cls-17 {
        stroke-linejoin: round;
      }

      .cls-4, .cls-9, .cls-18 {
        fill: #616161;
      }

      .cls-5 {
        fill: #E8E8E8;
      }

      .cls-6 {
        fill: #1B1B1B;
      }

      .cls-7, .cls-9 {
        stroke-linecap: round;
      }

      .cls-8, .cls-11 {
        fill: #DADADA;
      }

      .cls-10, .cls-12 {
        fill: #303030;
      }

      .cls-13, .cls-17 {
        fill: #717171;
      }

      .cls-19 {
        fill: #404040;
      }
    </style>
  </defs>
  <g id="_2F-9" data-name="2F">
      <line class="cls-3" x1="263.78" y1="634.35" x2="263.78" y2="632.36"/>
      <line class="cls-3" x1="264.5" y1="634.35" x2="264.5" y2="632.36"/>
      <line class="cls-3" x1="265.23" y1="634.35" x2="265.23" y2="632.36"/>
      <line class="cls-3" x1="265.91" y1="634.35" x2="265.91" y2="632.36"/>
      <line class="cls-3" x1="266.59" y1="634.35" x2="266.59" y2="632.36"/>
      <line class="cls-3" x1="267.27" y1="634.35" x2="267.27" y2="632.36"/>
      <line class="cls-3" x1="267.95" y1="632.36" x2="267.95" y2="634.35"/>
      <line class="cls-3" x1="263.78" y1="636.3" x2="263.78" y2="634.3"/>
      <line class="cls-3" x1="264.5" y1="636.3" x2="264.5" y2="634.3"/>
      <line class="cls-3" x1="265.23" y1="636.3" x2="265.23" y2="634.3"/>
      <line class="cls-3" x1="265.91" y1="636.3" x2="265.91" y2="634.3"/>
      <line class="cls-3" x1="266.59" y1="636.3" x2="266.59" y2="634.3"/>
      <line class="cls-3" x1="267.27" y1="636.3" x2="267.27" y2="634.3"/>
      <line class="cls-3" x1="267.95" y1="634.3" x2="267.95" y2="636.3"/>
      <line class="cls-3" x1="262.76" y1="630.39" x2="268.55" y2="630.39"/>
      <line class="cls-3" x1="262.76" y1="614.75" x2="269.61" y2="614.75"/>
      <line class="cls-3" x1="262.76" y1="619.02" x2="269.61" y2="619.02"/>
      <line class="cls-3" x1="262.94" y1="623.68" x2="269.59" y2="623.68"/>
      <line class="cls-3" x1="262.76" y1="632.33" x2="268.58" y2="632.33"/>
      <line class="cls-3" x1="262.76" y1="642.27" x2="269.61" y2="642.27"/>
      <line class="cls-3" x1="262.73" y1="636.38" x2="269.58" y2="636.38"/>
      <line class="cls-3" x1="262.76" y1="640.37" x2="266.18" y2="640.37"/>
      <line class="cls-3" x1="262.91" y1="646.13" x2="269.45" y2="646.13"/>
      <line class="cls-3" x1="262.83" y1="649.99" x2="269.37" y2="649.99"/>
      <line class="cls-3" x1="262.76" y1="638.34" x2="264.47" y2="638.34"/>
      <line class="cls-3" x1="262.76" y1="628.34" x2="268.58" y2="628.34"/>
      <line class="cls-3" x1="263.78" y1="612.81" x2="268.04" y2="612.81"/>
      <line class="cls-3" x1="250.47" y1="646.13" x2="260.43" y2="646.13"/>
      <line class="cls-3" x1="260.43" y1="654.03" x2="260.43" y2="636.38"/>
      <line class="cls-3" x1="260.43" y1="628.34" x2="260.43" y2="610.6"/>
      <line class="cls-3" x1="262.76" y1="653.9" x2="262.76" y2="642.27"/>
      <line class="cls-3" x1="262.76" y1="640.37" x2="262.76" y2="636.38"/>
      <line class="cls-3" x1="263.78" y1="612.81" x2="263.78" y2="610.81"/>
      <line class="cls-3" x1="264.5" y1="612.81" x2="264.5" y2="610.81"/>
      <line class="cls-3" x1="265.23" y1="612.81" x2="265.23" y2="610.81"/>
      <line class="cls-3" x1="265.91" y1="612.81" x2="265.91" y2="610.81"/>
      <line class="cls-3" x1="266.59" y1="612.81" x2="266.59" y2="610.81"/>
      <line class="cls-3" x1="267.27" y1="612.81" x2="267.27" y2="610.81"/>
      <line class="cls-3" x1="267.95" y1="610.81" x2="267.95" y2="612.81"/>
      <line class="cls-3" x1="263.78" y1="614.75" x2="263.78" y2="612.75"/>
      <line class="cls-3" x1="264.5" y1="614.75" x2="264.5" y2="612.75"/>
      <line class="cls-3" x1="265.23" y1="614.75" x2="265.23" y2="612.75"/>
      <line class="cls-3" x1="265.91" y1="614.75" x2="265.91" y2="612.75"/>
      <line class="cls-3" x1="266.59" y1="614.75" x2="266.59" y2="612.75"/>
      <line class="cls-3" x1="267.27" y1="614.75" x2="267.27" y2="612.75"/>
      <line class="cls-3" x1="267.95" y1="612.75" x2="267.95" y2="614.75"/>
      <line class="cls-3" x1="263.78" y1="634.3" x2="268.04" y2="634.3"/>
      <line class="cls-3" x1="263.78" y1="634.3" x2="263.78" y2="632.3"/>
      <line class="cls-3" x1="264.5" y1="634.3" x2="264.5" y2="632.3"/>
      <line class="cls-3" x1="265.23" y1="634.3" x2="265.23" y2="632.3"/>
      <line class="cls-3" x1="265.91" y1="634.3" x2="265.91" y2="632.3"/>
      <line class="cls-3" x1="266.59" y1="634.3" x2="266.59" y2="632.3"/>
      <line class="cls-3" x1="267.27" y1="634.3" x2="267.27" y2="632.3"/>
      <line class="cls-3" x1="267.95" y1="632.3" x2="267.95" y2="634.3"/>
      <line class="cls-3" x1="263.78" y1="636.24" x2="263.78" y2="634.24"/>
      <line class="cls-3" x1="264.5" y1="636.24" x2="264.5" y2="634.24"/>
      <line class="cls-3" x1="265.23" y1="636.24" x2="265.23" y2="634.24"/>
      <line class="cls-3" x1="265.91" y1="636.24" x2="265.91" y2="634.24"/>
      <line class="cls-3" x1="266.59" y1="636.24" x2="266.59" y2="634.24"/>
      <line class="cls-3" x1="267.27" y1="636.24" x2="267.27" y2="634.24"/>
      <line class="cls-3" x1="267.95" y1="634.24" x2="267.95" y2="636.24"/>
      <line class="cls-3" x1="264.47" y1="640.32" x2="264.47" y2="636.38"/>
      <line class="cls-3" x1="266.16" y1="642.16" x2="266.16" y2="636.38"/>
      <line class="cls-3" x1="262.76" y1="632.39" x2="262.76" y2="614.75"/>
    </g>
</svg>
