<?xml version="1.0" encoding="UTF-8"?>
<svg xmlns="http://www.w3.org/2000/svg" viewBox="0 0 470.53 710.52">
  <defs>
    <style>
      .cls-1 {
        fill: #616161;
      }

      .cls-1, .cls-2, .cls-3, .cls-4, .cls-5, .cls-6, .cls-7, .cls-8, .cls-9, .cls-10, .cls-11, .cls-12, .cls-13, .cls-14, .cls-15, .cls-16, .cls-17, .cls-18, .cls-19 {
        stroke: #323232;
        stroke-width: .25px;
      }

      .cls-1, .cls-2, .cls-3, .cls-4, .cls-5, .cls-6, .cls-8, .cls-10, .cls-11, .cls-12, .cls-13, .cls-15, .cls-16, .cls-17, .cls-18, .cls-19 {
        stroke-linecap: square;
      }

      .cls-1, .cls-2, .cls-3, .cls-8, .cls-10, .cls-13, .cls-14, .cls-18, .cls-19 {
        stroke-miterlimit: 10;
      }

      .cls-2, .cls-16 {
        fill: #626262;
      }

      .cls-3, .cls-7, .cls-14, .cls-15 {
        fill: none;
      }

      .cls-4, .cls-5, .cls-6, .cls-7, .cls-9, .cls-11, .cls-12, .cls-15, .cls-16, .cls-17 {
        stroke-linejoin: round;
      }

      .cls-4, .cls-9, .cls-18 {
        fill: #616161;
      }

      .cls-5 {
        fill: #E8E8E8;
      }

      .cls-6 {
        fill: #1B1B1B;
      }

      .cls-7, .cls-9 {
        stroke-linecap: round;
      }

      .cls-8, .cls-11 {
        fill: #DADADA;
      }

      .cls-10, .cls-12 {
        fill: #303030;
      }

      .cls-13, .cls-17 {
        fill: #717171;
      }

      .cls-19 {
        fill: #404040;
      }
    </style>
  </defs>
  <g id="_3F-5" data-name="3F">
      <line class="cls-15" x1="217.93" y1="608.61" x2="217.96" y2="616.24"/>
      <line class="cls-15" x1="221.58" y1="568.47" x2="221.58" y2="631.25"/>
      <line class="cls-15" x1="218.12" y1="568.34" x2="218.12" y2="581"/>
      <line class="cls-15" x1="215.22" y1="608.67" x2="215.23" y2="616.24"/>
      <line class="cls-15" x1="212.5" y1="608.67" x2="212.5" y2="620.2"/>
      <line class="cls-15" x1="189.43" y1="608.67" x2="189.43" y2="616.42"/>
      <line class="cls-15" x1="191.64" y1="608.64" x2="191.64" y2="620.2"/>
      <line class="cls-15" x1="186.84" y1="610.9" x2="186.84" y2="616.42"/>
      <line class="cls-15" x1="184.24" y1="608.5" x2="184.24" y2="616.24"/>
      <line class="cls-15" x1="184.43" y1="620.2" x2="184.43" y2="653.77"/>
      <line class="cls-15" x1="186.3" y1="653.86" x2="186.3" y2="657.01"/>
      <line class="cls-15" x1="220.64" y1="654.08" x2="220.64" y2="657.23"/>
      <line class="cls-15" x1="222.08" y1="654.08" x2="222.08" y2="657.23"/>
      <line class="cls-15" x1="223.44" y1="654.08" x2="223.44" y2="657.23"/>
      <line class="cls-15" x1="224.75" y1="654.08" x2="224.75" y2="657.23"/>
      <line class="cls-15" x1="184.98" y1="653.89" x2="185" y2="656.91"/>
      <line class="cls-15" x1="183.78" y1="653.92" x2="183.76" y2="656.91"/>
      <line class="cls-15" x1="182.44" y1="653.89" x2="182.44" y2="656.91"/>
      <line class="cls-15" x1="184.24" y1="589.2" x2="184.24" y2="608.27"/>
      <line class="cls-15" x1="184.24" y1="579.01" x2="184.24" y2="589.2"/>
      <line class="cls-15" x1="215.23" y1="610.01" x2="217.96" y2="610.01"/>
      <line class="cls-15" x1="215.23" y1="611.28" x2="217.96" y2="611.28"/>
      <line class="cls-15" x1="215.23" y1="612.54" x2="217.96" y2="612.54"/>
      <line class="cls-15" x1="215.23" y1="613.81" x2="217.96" y2="613.81"/>
      <line class="cls-15" x1="215.23" y1="615.08" x2="217.96" y2="615.08"/>
      <line class="cls-15" x1="212.59" y1="610.01" x2="215.33" y2="610.01"/>
      <line class="cls-15" x1="212.59" y1="611.28" x2="215.33" y2="611.28"/>
      <line class="cls-15" x1="212.59" y1="612.54" x2="215.33" y2="612.54"/>
      <line class="cls-15" x1="212.59" y1="613.81" x2="215.33" y2="613.81"/>
      <line class="cls-15" x1="212.59" y1="615.08" x2="215.33" y2="615.08"/>
      <line class="cls-15" x1="184.3" y1="579.01" x2="191.6" y2="579.01"/>
      <line class="cls-15" x1="180.43" y1="572.76" x2="191.66" y2="572.76"/>
      <line class="cls-15" x1="184.28" y1="584.11" x2="191.58" y2="584.11"/>
      <line class="cls-15" x1="177.76" y1="574.28" x2="180.23" y2="574.28"/>
      <line class="cls-15" x1="177.76" y1="573.33" x2="180.23" y2="573.33"/>
      <line class="cls-15" x1="177.76" y1="572.37" x2="180.23" y2="572.37"/>
      <line class="cls-15" x1="177.76" y1="571.42" x2="180.23" y2="571.42"/>
      <line class="cls-15" x1="177.76" y1="570.47" x2="180.23" y2="570.47"/>
      <line class="cls-15" x1="184.43" y1="608.39" x2="191.73" y2="608.39"/>
      <line class="cls-15" x1="189.07" y1="616.53" x2="212.5" y2="616.53"/>
      <line class="cls-15" x1="217.91" y1="631.28" x2="229.13" y2="631.28"/>
      <line class="cls-15" x1="221.58" y1="611.69" x2="229.61" y2="611.69"/>
      <line class="cls-15" x1="221.58" y1="608.39" x2="229.61" y2="608.39"/>
      <line class="cls-15" x1="221.82" y1="602.02" x2="229.86" y2="602.02"/>
      <line class="cls-15" x1="221.58" y1="597.03" x2="229.61" y2="597.03"/>
      <line class="cls-15" x1="221.51" y1="620.38" x2="229.61" y2="620.38"/>
      <line class="cls-15" x1="221.54" y1="615.08" x2="229.64" y2="615.08"/>
      <line class="cls-15" x1="221.58" y1="591.35" x2="229.23" y2="591.35"/>
      <line class="cls-15" x1="221.58" y1="581.96" x2="229.23" y2="581.96"/>
      <line class="cls-15" x1="215" y1="577.11" x2="218.09" y2="577.11"/>
      <line class="cls-15" x1="214.79" y1="571.1" x2="217.89" y2="571.1"/>
      <line class="cls-15" x1="214.79" y1="572.31" x2="217.89" y2="572.31"/>
      <line class="cls-15" x1="214.79" y1="573.71" x2="217.89" y2="573.71"/>
      <line class="cls-15" x1="214.79" y1="574.88" x2="217.89" y2="574.88"/>
      <line class="cls-15" x1="214.79" y1="576" x2="217.89" y2="576"/>
      <line class="cls-15" x1="221.53" y1="577.29" x2="229.28" y2="577.29"/>
      <line class="cls-15" x1="221.58" y1="586.89" x2="229.47" y2="586.89"/>
      <line class="cls-15" x1="221.51" y1="572.97" x2="229.24" y2="572.97"/>
      <line class="cls-15" x1="221.54" y1="625.64" x2="229.64" y2="625.64"/>
      <line class="cls-15" x1="221.42" y1="623" x2="229.33" y2="623"/>
      <line class="cls-15" x1="186.84" y1="610.9" x2="189.32" y2="610.9"/>
      <line class="cls-15" x1="184.3" y1="611.69" x2="186.78" y2="611.69"/>
      <line class="cls-15" x1="186.95" y1="611.69" x2="189.43" y2="611.69"/>
      <line class="cls-15" x1="186.89" y1="612.54" x2="189.37" y2="612.54"/>
      <line class="cls-15" x1="186.84" y1="613.66" x2="189.32" y2="613.66"/>
      <line class="cls-15" x1="186.65" y1="614.65" x2="189.13" y2="614.65"/>
      <line class="cls-15" x1="186.84" y1="615.49" x2="189.32" y2="615.49"/>
      <line class="cls-15" x1="184.3" y1="612.66" x2="186.78" y2="612.66"/>
      <line class="cls-15" x1="184.3" y1="613.66" x2="186.78" y2="613.66"/>
      <line class="cls-15" x1="184.3" y1="614.65" x2="186.78" y2="614.65"/>
      <line class="cls-15" x1="184.3" y1="615.49" x2="186.78" y2="615.49"/>
      <line class="cls-15" x1="184.43" y1="620.2" x2="191.73" y2="620.2"/>
      <line class="cls-15" x1="184.43" y1="624.44" x2="191.73" y2="624.44"/>
      <line class="cls-15" x1="184.43" y1="628.39" x2="191.69" y2="628.43"/>
      <line class="cls-15" x1="184.43" y1="640.3" x2="191.73" y2="640.3"/>
      <line class="cls-15" x1="180.43" y1="589.2" x2="191.61" y2="589.2"/>
      <line class="cls-15" x1="220.64" y1="654.08" x2="220.64" y2="657.23"/>
      <line class="cls-15" x1="222.08" y1="654.08" x2="222.08" y2="657.23"/>
      <line class="cls-15" x1="223.44" y1="654.08" x2="223.44" y2="657.23"/>
      <line class="cls-15" x1="224.75" y1="654.08" x2="224.75" y2="657.23"/>
    </g>
</svg>
