<?xml version="1.0" encoding="UTF-8"?>
<svg xmlns="http://www.w3.org/2000/svg" viewBox="0 0 470.53 710.52">
  <defs>
    <style>
      .cls-1 {
        fill: #616161;
      }

      .cls-1, .cls-2, .cls-3, .cls-4, .cls-5, .cls-6, .cls-7, .cls-8, .cls-9, .cls-10, .cls-11, .cls-12, .cls-13, .cls-14, .cls-15, .cls-16, .cls-17, .cls-18, .cls-19 {
        stroke: #323232;
        stroke-width: .25px;
      }

      .cls-1, .cls-2, .cls-3, .cls-4, .cls-5, .cls-6, .cls-8, .cls-10, .cls-11, .cls-12, .cls-13, .cls-15, .cls-16, .cls-17, .cls-18, .cls-19 {
        stroke-linecap: square;
      }

      .cls-1, .cls-2, .cls-3, .cls-8, .cls-10, .cls-13, .cls-14, .cls-18, .cls-19 {
        stroke-miterlimit: 10;
      }

      .cls-2, .cls-16 {
        fill: #626262;
      }

      .cls-3, .cls-7, .cls-14, .cls-15 {
        fill: none;
      }

      .cls-4, .cls-5, .cls-6, .cls-7, .cls-9, .cls-11, .cls-12, .cls-15, .cls-16, .cls-17 {
        stroke-linejoin: round;
      }

      .cls-4, .cls-9, .cls-18 {
        fill: #616161;
      }

      .cls-5 {
        fill: #E8E8E8;
      }

      .cls-6 {
        fill: #1B1B1B;
      }

      .cls-7, .cls-9 {
        stroke-linecap: round;
      }

      .cls-8, .cls-11 {
        fill: #DADADA;
      }

      .cls-10, .cls-12 {
        fill: #303030;
      }

      .cls-13, .cls-17 {
        fill: #717171;
      }

      .cls-19 {
        fill: #404040;
      }
    </style>
  </defs>
  <g id="_3F-6" data-name="3F">
      <line class="cls-7" x1="218.17" y1="550.92" x2="218.19" y2="540.52"/>
      <line class="cls-7" x1="262.96" y1="546.22" x2="262.96" y2="492.32"/>
      <line class="cls-7" x1="262.96" y1="488.87" x2="262.96" y2="462.84"/>
      <line class="cls-7" x1="258.85" y1="488.89" x2="258.81" y2="462.86"/>
      <line class="cls-7" x1="259.08" y1="540.58" x2="259.08" y2="497.33"/>
      <line class="cls-7" x1="254.03" y1="546.12" x2="254.03" y2="543.42"/>
      <line class="cls-7" x1="254.76" y1="546.13" x2="254.76" y2="543.43"/>
      <line class="cls-7" x1="256.35" y1="546.15" x2="256.35" y2="543.45"/>
      <line class="cls-7" x1="255.55" y1="546.12" x2="255.55" y2="543.42"/>
      <line class="cls-7" x1="257.18" y1="546.15" x2="257.18" y2="543.45"/>
      <line class="cls-7" x1="258.02" y1="546.15" x2="258.02" y2="543.45"/>
      <line class="cls-7" x1="254.03" y1="543.4" x2="254.03" y2="540.59"/>
      <line class="cls-7" x1="254.76" y1="543.4" x2="254.76" y2="540.6"/>
      <line class="cls-7" x1="256.35" y1="543.42" x2="256.35" y2="540.62"/>
      <line class="cls-7" x1="255.55" y1="543.4" x2="255.55" y2="540.59"/>
      <line class="cls-7" x1="257.18" y1="543.42" x2="257.18" y2="540.62"/>
      <line class="cls-7" x1="258.02" y1="543.42" x2="258.02" y2="540.62"/>
      <line class="cls-7" x1="255.05" y1="497.17" x2="255.05" y2="494.85"/>
      <line class="cls-7" x1="255.66" y1="497.17" x2="255.66" y2="494.85"/>
      <line class="cls-7" x1="256.26" y1="497.17" x2="256.26" y2="494.85"/>
      <line class="cls-7" x1="256.87" y1="497.17" x2="256.87" y2="494.85"/>
      <line class="cls-7" x1="257.47" y1="497.17" x2="257.47" y2="494.85"/>
      <line class="cls-7" x1="255.05" y1="494.78" x2="255.05" y2="492.46"/>
      <line class="cls-7" x1="255.66" y1="494.78" x2="255.66" y2="492.46"/>
      <line class="cls-7" x1="256.26" y1="494.78" x2="256.26" y2="492.46"/>
      <line class="cls-7" x1="256.87" y1="494.78" x2="256.87" y2="492.46"/>
      <line class="cls-7" x1="257.47" y1="494.78" x2="257.47" y2="492.46"/>
      <line class="cls-7" x1="216.23" y1="548.28" x2="216.23" y2="542.56"/>
      <line class="cls-7" x1="222.29" y1="550.81" x2="222.29" y2="500.84"/>
      <line class="cls-7" x1="224.25" y1="500.81" x2="224.2" y2="496.9"/>
      <line class="cls-7" x1="228.22" y1="498.79" x2="228.22" y2="496.92"/>
      <line class="cls-7" x1="227.49" y1="498.92" x2="227.49" y2="496.9"/>
      <line class="cls-7" x1="226.71" y1="498.79" x2="226.71" y2="496.88"/>
      <line class="cls-7" x1="225.9" y1="498.79" x2="225.9" y2="496.92"/>
      <line class="cls-7" x1="225.08" y1="498.79" x2="225.08" y2="496.9"/>
      <line class="cls-7" x1="228.28" y1="500.69" x2="228.28" y2="498.67"/>
      <line class="cls-7" x1="227.55" y1="500.81" x2="227.55" y2="498.8"/>
      <line class="cls-7" x1="226.77" y1="500.69" x2="226.77" y2="498.67"/>
      <line class="cls-7" x1="225.96" y1="500.69" x2="225.96" y2="498.67"/>
      <line class="cls-7" x1="225.14" y1="500.69" x2="225.14" y2="498.67"/>
      <line class="cls-7" x1="222.29" y1="496.86" x2="222.29" y2="491.2"/>
      <line class="cls-7" x1="216.23" y1="548.17" x2="218.02" y2="548.17"/>
      <line class="cls-7" x1="222.44" y1="535" x2="229.88" y2="535.05"/>
      <line class="cls-7" x1="254.07" y1="543.42" x2="258.07" y2="543.42"/>
      <line class="cls-7" x1="252.43" y1="527.02" x2="258.9" y2="527.02"/>
      <line class="cls-7" x1="252.47" y1="511.64" x2="258.9" y2="511.64"/>
      <line class="cls-7" x1="262.96" y1="483.1" x2="270.38" y2="483.1"/>
      <line class="cls-7" x1="263.12" y1="511.64" x2="270.32" y2="511.64"/>
      <line class="cls-7" x1="263.15" y1="516.86" x2="270.34" y2="516.86"/>
      <line class="cls-7" x1="262.96" y1="506.69" x2="270.3" y2="506.69"/>
      <line class="cls-7" x1="263.15" y1="497.39" x2="270.3" y2="497.39"/>
      <line class="cls-7" x1="263.12" y1="541.24" x2="270.34" y2="541.24"/>
      <line class="cls-7" x1="263.15" y1="536.22" x2="270.3" y2="536.22"/>
      <line class="cls-7" x1="262.96" y1="527.02" x2="270.3" y2="527.01"/>
      <line class="cls-7" x1="263.15" y1="531.58" x2="270.32" y2="531.58"/>
      <line class="cls-7" x1="262.92" y1="468.45" x2="270.33" y2="468.45"/>
      <line class="cls-7" x1="254.87" y1="540.58" x2="259.08" y2="540.58"/>
      <line class="cls-7" x1="254.65" y1="535.93" x2="258.86" y2="535.93"/>
      <line class="cls-7" x1="254.83" y1="531.9" x2="259.04" y2="531.9"/>
      <line class="cls-7" x1="254.65" y1="506.57" x2="259.04" y2="506.57"/>
      <line class="cls-7" x1="254.87" y1="497.33" x2="259.08" y2="497.33"/>
      <line class="cls-7" x1="254.35" y1="494.85" x2="257.92" y2="494.85"/>
      <line class="cls-7" x1="254.87" y1="501.51" x2="259.08" y2="501.51"/>
      <line class="cls-7" x1="222.37" y1="519.28" x2="229.93" y2="519.28"/>
      <line class="cls-7" x1="222.44" y1="509.82" x2="229.95" y2="509.82"/>
      <line class="cls-7" x1="222.37" y1="514.56" x2="229.93" y2="514.56"/>
      <line class="cls-7" x1="222.29" y1="505.59" x2="229.91" y2="505.59"/>
      <line class="cls-7" x1="222.29" y1="500.84" x2="229.93" y2="500.84"/>
      <line class="cls-7" x1="224.25" y1="498.79" x2="228.22" y2="498.79"/>
      <line class="cls-7" x1="222.29" y1="496.9" x2="229.91" y2="496.9"/>
      <line class="cls-7" x1="218.22" y1="491" x2="229.9" y2="491"/>
      <line class="cls-7" x1="216.23" y1="546.76" x2="218.02" y2="546.76"/>
      <line class="cls-7" x1="216.23" y1="545.36" x2="218.02" y2="545.36"/>
      <line class="cls-7" x1="216.23" y1="543.96" x2="218.02" y2="543.96"/>
      <line class="cls-7" x1="216.23" y1="542.56" x2="218.02" y2="542.56"/>
      <line class="cls-7" x1="214.3" y1="548.17" x2="216.1" y2="548.17"/>
      <line class="cls-7" x1="214.3" y1="546.76" x2="216.1" y2="546.76"/>
      <line class="cls-7" x1="214.3" y1="545.36" x2="216.1" y2="545.36"/>
      <line class="cls-7" x1="214.3" y1="543.96" x2="216.1" y2="543.96"/>
      <line class="cls-7" x1="214.3" y1="542.56" x2="216.1" y2="542.56"/>
    </g>
</svg>
