<?xml version="1.0" encoding="UTF-8"?>
<svg xmlns="http://www.w3.org/2000/svg" viewBox="0 0 470.53 710.52">
  <defs>
    <style>
      .cls-1 {
        fill: #616161;
      }

      .cls-1, .cls-2, .cls-3, .cls-4, .cls-5, .cls-6, .cls-7, .cls-8, .cls-9, .cls-10, .cls-11, .cls-12, .cls-13, .cls-14, .cls-15, .cls-16, .cls-17, .cls-18, .cls-19 {
        stroke: #323232;
        stroke-width: .25px;
      }

      .cls-1, .cls-2, .cls-3, .cls-4, .cls-5, .cls-6, .cls-8, .cls-10, .cls-11, .cls-12, .cls-13, .cls-15, .cls-16, .cls-17, .cls-18, .cls-19 {
        stroke-linecap: square;
      }

      .cls-1, .cls-2, .cls-3, .cls-8, .cls-10, .cls-13, .cls-14, .cls-18, .cls-19 {
        stroke-miterlimit: 10;
      }

      .cls-2, .cls-16 {
        fill: #626262;
      }

      .cls-3, .cls-7, .cls-14, .cls-15 {
        fill: none;
      }

      .cls-4, .cls-5, .cls-6, .cls-7, .cls-9, .cls-11, .cls-12, .cls-15, .cls-16, .cls-17 {
        stroke-linejoin: round;
      }

      .cls-4, .cls-9, .cls-18 {
        fill: #616161;
      }

      .cls-5 {
        fill: #E8E8E8;
      }

      .cls-6 {
        fill: #1B1B1B;
      }

      .cls-7, .cls-9 {
        stroke-linecap: round;
      }

      .cls-8, .cls-11 {
        fill: #DADADA;
      }

      .cls-10, .cls-12 {
        fill: #303030;
      }

      .cls-13, .cls-17 {
        fill: #717171;
      }

      .cls-19 {
        fill: #404040;
      }
    </style>
  </defs>
  <g id="_3F-7" data-name="3F">
      <line class="cls-7" x1="122.81" y1="537.9" x2="127.04" y2="537.9"/>
      <line class="cls-7" x1="122.75" y1="535.14" x2="126.77" y2="535.14"/>
      <line class="cls-7" x1="123.94" y1="532.53" x2="129.91" y2="532.53"/>
      <line class="cls-7" x1="128.43" y1="535.14" x2="129.85" y2="535.14"/>
      <line class="cls-7" x1="127.01" y1="541.4" x2="129.91" y2="541.4"/>
      <line class="cls-7" x1="126.97" y1="542.16" x2="129.87" y2="542.16"/>
      <line class="cls-7" x1="127.01" y1="540.7" x2="129.91" y2="540.7"/>
      <line class="cls-7" x1="127.01" y1="539.94" x2="129.91" y2="539.94"/>
      <line class="cls-7" x1="126.97" y1="539.09" x2="129.87" y2="539.09"/>
      <line class="cls-7" x1="119.25" y1="543.64" x2="122.81" y2="543.64"/>
      <line class="cls-7" x1="119.15" y1="540.74" x2="122.71" y2="540.74"/>
      <line class="cls-7" x1="124.4" y1="542.68" x2="127.01" y2="542.68"/>
      <line class="cls-7" x1="99.15" y1="537.77" x2="119.09" y2="537.77"/>
      <line class="cls-7" x1="124.4" y1="546.21" x2="124.4" y2="542.8"/>
      <line class="cls-7" x1="125.35" y1="546.19" x2="125.35" y2="542.8"/>
      <line class="cls-7" x1="126.19" y1="546.12" x2="126.19" y2="542.82"/>
      <line class="cls-7" x1="126.92" y1="546.11" x2="126.92" y2="542.86"/>
      <line class="cls-7" x1="126.93" y1="542.43" x2="126.93" y2="538.09"/>
      <line class="cls-7" x1="122.81" y1="546.28" x2="122.81" y2="537.9"/>
      <line class="cls-7" x1="122.75" y1="535.14" x2="122.75" y2="529.65"/>
      <line class="cls-7" x1="123.94" y1="535.07" x2="123.94" y2="532.53"/>
      <line class="cls-7" x1="126.77" y1="535.14" x2="126.77" y2="529.65"/>
      <line class="cls-7" x1="128.43" y1="535.14" x2="128.43" y2="532.6"/>
      <line class="cls-7" x1="119.09" y1="546.26" x2="119.09" y2="529.65"/>
    </g>
</svg>