<?xml version="1.0" encoding="UTF-8"?>
<svg xmlns="http://www.w3.org/2000/svg" viewBox="0 0 470.53 710.52">
  <defs>
    <style>
      .cls-1 {
        fill: #616161;
      }

      .cls-1, .cls-2, .cls-3, .cls-4, .cls-5, .cls-6, .cls-7, .cls-8, .cls-9, .cls-10, .cls-11, .cls-12, .cls-13, .cls-14, .cls-15, .cls-16, .cls-17, .cls-18, .cls-19 {
        stroke: #323232;
        stroke-width: .25px;
      }

      .cls-1, .cls-2, .cls-3, .cls-4, .cls-5, .cls-6, .cls-8, .cls-10, .cls-11, .cls-12, .cls-13, .cls-15, .cls-16, .cls-17, .cls-18, .cls-19 {
        stroke-linecap: square;
      }

      .cls-1, .cls-2, .cls-3, .cls-8, .cls-10, .cls-13, .cls-14, .cls-18, .cls-19 {
        stroke-miterlimit: 10;
      }

      .cls-2, .cls-16 {
        fill: #626262;
      }

      .cls-3, .cls-7, .cls-14, .cls-15 {
        fill: none;
      }

      .cls-4, .cls-5, .cls-6, .cls-7, .cls-9, .cls-11, .cls-12, .cls-15, .cls-16, .cls-17 {
        stroke-linejoin: round;
      }

      .cls-4, .cls-9, .cls-18 {
        fill: #616161;
      }

      .cls-5 {
        fill: #E8E8E8;
      }

      .cls-6 {
        fill: #1B1B1B;
      }

      .cls-7, .cls-9 {
        stroke-linecap: round;
      }

      .cls-8, .cls-11 {
        fill: #DADADA;
      }

      .cls-10, .cls-12 {
        fill: #303030;
      }

      .cls-13, .cls-17 {
        fill: #717171;
      }

      .cls-19 {
        fill: #404040;
      }
    </style>
  </defs>
  <g id="_4F-2" data-name="4F">
      <line class="cls-7" x1="262.97" y1="546.2" x2="262.97" y2="492.33"/>
      <line class="cls-7" x1="263.03" y1="488.86" x2="262.97" y2="462.86"/>
      <line class="cls-7" x1="266.68" y1="483.11" x2="266.68" y2="476.16"/>
      <line class="cls-7" x1="258.85" y1="488.89" x2="258.83" y2="462.86"/>
      <line class="cls-7" x1="259.09" y1="540.6" x2="259.09" y2="497.27"/>
      <line class="cls-7" x1="254.04" y1="546.13" x2="254.04" y2="543.44"/>
      <line class="cls-7" x1="254.77" y1="546.14" x2="254.77" y2="543.44"/>
      <line class="cls-7" x1="256.36" y1="546.16" x2="256.36" y2="543.46"/>
      <line class="cls-7" x1="255.57" y1="546.13" x2="255.57" y2="543.44"/>
      <line class="cls-7" x1="257.19" y1="546.16" x2="257.19" y2="543.46"/>
      <line class="cls-7" x1="258.04" y1="546.16" x2="258.04" y2="543.46"/>
      <line class="cls-7" x1="254.04" y1="543.41" x2="254.04" y2="540.61"/>
      <line class="cls-7" x1="254.77" y1="543.41" x2="254.77" y2="540.61"/>
      <line class="cls-7" x1="256.36" y1="543.44" x2="256.36" y2="540.63"/>
      <line class="cls-7" x1="255.57" y1="543.41" x2="255.57" y2="540.61"/>
      <line class="cls-7" x1="257.19" y1="543.44" x2="257.19" y2="540.63"/>
      <line class="cls-7" x1="258.04" y1="543.44" x2="258.04" y2="540.63"/>
      <line class="cls-7" x1="255.06" y1="497.19" x2="255.06" y2="494.86"/>
      <line class="cls-7" x1="255.67" y1="497.19" x2="255.67" y2="494.86"/>
      <line class="cls-7" x1="256.28" y1="497.19" x2="256.28" y2="494.86"/>
      <line class="cls-7" x1="256.88" y1="497.19" x2="256.88" y2="494.86"/>
      <line class="cls-7" x1="257.49" y1="497.19" x2="257.49" y2="494.86"/>
      <line class="cls-7" x1="255.06" y1="494.8" x2="255.06" y2="492.47"/>
      <line class="cls-7" x1="255.67" y1="494.8" x2="255.67" y2="492.47"/>
      <line class="cls-7" x1="256.28" y1="494.8" x2="256.28" y2="492.47"/>
      <line class="cls-7" x1="256.88" y1="494.8" x2="256.88" y2="492.47"/>
      <line class="cls-7" x1="257.49" y1="494.8" x2="257.49" y2="492.47"/>
      <line class="cls-7" x1="254.09" y1="543.44" x2="258.08" y2="543.44"/>
      <line class="cls-7" x1="252.44" y1="521.3" x2="258.91" y2="521.3"/>
      <line class="cls-7" x1="252.47" y1="511.66" x2="258.91" y2="511.66"/>
      <line class="cls-7" x1="262.97" y1="483.11" x2="270.39" y2="483.11"/>
      <line class="cls-7" x1="263.14" y1="511.66" x2="270.32" y2="511.66"/>
      <line class="cls-7" x1="263.16" y1="516.87" x2="270.34" y2="516.87"/>
      <line class="cls-7" x1="262.97" y1="506.7" x2="270.32" y2="506.7"/>
      <line class="cls-7" x1="263.16" y1="531.6" x2="270.3" y2="531.6"/>
      <line class="cls-7" x1="266.68" y1="476.16" x2="270.34" y2="476.16"/>
      <line class="cls-7" x1="254.88" y1="540.6" x2="259.09" y2="540.6"/>
      <line class="cls-7" x1="254.67" y1="535.94" x2="258.88" y2="535.94"/>
      <line class="cls-7" x1="254.71" y1="531.89" x2="258.92" y2="531.89"/>
      <line class="cls-7" x1="254.88" y1="497.27" x2="259.09" y2="497.27"/>
      <line class="cls-7" x1="254.36" y1="494.86" x2="257.93" y2="494.86"/>
      <line class="cls-7" x1="254.69" y1="501.61" x2="259.09" y2="501.53"/>
    </g>
</svg>
