<?xml version="1.0" encoding="UTF-8"?>
<svg xmlns="http://www.w3.org/2000/svg" viewBox="0 0 470.53 710.52">
  <defs>
    <style>
      .cls-1 {
        fill: #616161;
      }

      .cls-1, .cls-2, .cls-3, .cls-4, .cls-5, .cls-6, .cls-7, .cls-8, .cls-9, .cls-10, .cls-11, .cls-12, .cls-13, .cls-14, .cls-15, .cls-16, .cls-17, .cls-18, .cls-19 {
        stroke: #323232;
        stroke-width: .25px;
      }

      .cls-1, .cls-2, .cls-3, .cls-4, .cls-5, .cls-6, .cls-8, .cls-10, .cls-11, .cls-12, .cls-13, .cls-15, .cls-16, .cls-17, .cls-18, .cls-19 {
        stroke-linecap: square;
      }

      .cls-1, .cls-2, .cls-3, .cls-8, .cls-10, .cls-13, .cls-14, .cls-18, .cls-19 {
        stroke-miterlimit: 10;
      }

      .cls-2, .cls-16 {
        fill: #626262;
      }

      .cls-3, .cls-7, .cls-14, .cls-15 {
        fill: none;
      }

      .cls-4, .cls-5, .cls-6, .cls-7, .cls-9, .cls-11, .cls-12, .cls-15, .cls-16, .cls-17 {
        stroke-linejoin: round;
      }

      .cls-4, .cls-9, .cls-18 {
        fill: #616161;
      }

      .cls-5 {
        fill: #E8E8E8;
      }

      .cls-6 {
        fill: #1B1B1B;
      }

      .cls-7, .cls-9 {
        stroke-linecap: round;
      }

      .cls-8, .cls-11 {
        fill: #DADADA;
      }

      .cls-10, .cls-12 {
        fill: #303030;
      }

      .cls-13, .cls-17 {
        fill: #717171;
      }

      .cls-19 {
        fill: #404040;
      }
    </style>
  </defs>
  <g id="_4F-3" data-name="4F">
      <line class="cls-7" x1="263.94" y1="634.34" x2="263.94" y2="632.35"/>
      <line class="cls-7" x1="264.67" y1="634.34" x2="264.67" y2="632.35"/>
      <line class="cls-7" x1="265.4" y1="634.34" x2="265.4" y2="632.35"/>
      <line class="cls-7" x1="266.08" y1="634.34" x2="266.08" y2="632.35"/>
      <line class="cls-7" x1="266.76" y1="634.34" x2="266.76" y2="632.35"/>
      <line class="cls-7" x1="267.43" y1="634.34" x2="267.43" y2="632.35"/>
      <line class="cls-7" x1="268.12" y1="632.35" x2="268.11" y2="634.34"/>
      <line class="cls-7" x1="263.94" y1="636.29" x2="263.94" y2="634.29"/>
      <line class="cls-7" x1="264.67" y1="636.29" x2="264.67" y2="634.29"/>
      <line class="cls-7" x1="265.4" y1="636.29" x2="265.4" y2="634.29"/>
      <line class="cls-7" x1="266.08" y1="636.29" x2="266.08" y2="634.29"/>
      <line class="cls-7" x1="266.76" y1="636.29" x2="266.76" y2="634.29"/>
      <line class="cls-7" x1="267.43" y1="636.29" x2="267.43" y2="634.29"/>
      <line class="cls-7" x1="268.12" y1="634.29" x2="268.11" y2="636.29"/>
      <line class="cls-7" x1="262.93" y1="630.38" x2="268.56" y2="630.34"/>
      <line class="cls-7" x1="262.93" y1="614.74" x2="269.59" y2="614.74"/>
      <line class="cls-7" x1="250.72" y1="614.74" x2="260.6" y2="614.74"/>
      <line class="cls-7" x1="262.93" y1="623.78" x2="269.58" y2="623.78"/>
      <line class="cls-7" x1="262.93" y1="619.46" x2="269.58" y2="619.46"/>
      <line class="cls-7" x1="262.93" y1="632.32" x2="268.74" y2="632.32"/>
      <line class="cls-7" x1="262.93" y1="642.26" x2="269.64" y2="642.3"/>
      <line class="cls-7" x1="262.9" y1="636.37" x2="269.74" y2="636.37"/>
      <line class="cls-7" x1="263.08" y1="646.12" x2="269.62" y2="646.12"/>
      <line class="cls-7" x1="262.93" y1="628.33" x2="268.74" y2="628.33"/>
      <line class="cls-7" x1="263.94" y1="612.8" x2="268.21" y2="612.8"/>
      <line class="cls-7" x1="250.51" y1="649.39" x2="260.43" y2="649.44"/>
      <line class="cls-7" x1="260.59" y1="653.95" x2="260.6" y2="636.37"/>
      <line class="cls-7" x1="260.6" y1="628.33" x2="260.6" y2="610.59"/>
      <line class="cls-7" x1="262.93" y1="653.89" x2="262.93" y2="636.44"/>
      <line class="cls-7" x1="263.94" y1="612.8" x2="263.94" y2="610.8"/>
      <line class="cls-7" x1="264.67" y1="612.8" x2="264.67" y2="610.8"/>
      <line class="cls-7" x1="265.4" y1="612.8" x2="265.4" y2="610.8"/>
      <line class="cls-7" x1="266.08" y1="612.8" x2="266.08" y2="610.8"/>
      <line class="cls-7" x1="266.76" y1="612.8" x2="266.76" y2="610.8"/>
      <line class="cls-7" x1="267.43" y1="612.8" x2="267.43" y2="610.8"/>
      <line class="cls-7" x1="268.12" y1="610.8" x2="268.11" y2="612.8"/>
      <line class="cls-7" x1="263.94" y1="614.74" x2="263.94" y2="612.74"/>
      <line class="cls-7" x1="264.67" y1="614.74" x2="264.67" y2="612.74"/>
      <line class="cls-7" x1="265.4" y1="614.74" x2="265.4" y2="612.74"/>
      <line class="cls-7" x1="266.08" y1="614.74" x2="266.08" y2="612.74"/>
      <line class="cls-7" x1="266.76" y1="614.74" x2="266.76" y2="612.74"/>
      <line class="cls-7" x1="267.43" y1="614.74" x2="267.43" y2="612.74"/>
      <line class="cls-7" x1="268.12" y1="612.74" x2="268.11" y2="614.74"/>
      <line class="cls-7" x1="263.94" y1="634.29" x2="268.21" y2="634.29"/>
      <line class="cls-7" x1="263.94" y1="634.29" x2="263.94" y2="632.29"/>
      <line class="cls-7" x1="264.67" y1="634.29" x2="264.67" y2="632.29"/>
      <line class="cls-7" x1="265.4" y1="634.29" x2="265.4" y2="632.29"/>
      <line class="cls-7" x1="266.08" y1="634.29" x2="266.08" y2="632.29"/>
      <line class="cls-7" x1="266.76" y1="634.29" x2="266.76" y2="632.29"/>
      <line class="cls-7" x1="267.43" y1="634.29" x2="267.43" y2="632.29"/>
      <line class="cls-7" x1="268.12" y1="632.29" x2="268.11" y2="634.29"/>
      <line class="cls-7" x1="263.94" y1="636.23" x2="263.94" y2="634.23"/>
      <line class="cls-7" x1="264.67" y1="636.23" x2="264.67" y2="634.23"/>
      <line class="cls-7" x1="265.4" y1="636.23" x2="265.4" y2="634.23"/>
      <line class="cls-7" x1="266.08" y1="636.23" x2="266.08" y2="634.23"/>
      <line class="cls-7" x1="266.76" y1="636.23" x2="266.76" y2="634.23"/>
      <line class="cls-7" x1="267.43" y1="636.23" x2="267.43" y2="634.23"/>
      <line class="cls-7" x1="268.12" y1="634.23" x2="268.11" y2="636.23"/>
      <line class="cls-7" x1="262.93" y1="632.38" x2="262.93" y2="614.74"/>
    </g>
</svg>
