<?xml version="1.0" encoding="UTF-8"?>
<svg xmlns="http://www.w3.org/2000/svg" viewBox="0 0 470.53 710.52">
  <defs>
    <style>
      .cls-1 {
        fill: #616161;
      }

      .cls-1, .cls-2, .cls-3, .cls-4, .cls-5, .cls-6, .cls-7, .cls-8, .cls-9, .cls-10, .cls-11, .cls-12, .cls-13, .cls-14, .cls-15, .cls-16, .cls-17, .cls-18, .cls-19 {
        stroke: #323232;
        stroke-width: .25px;
      }

      .cls-1, .cls-2, .cls-3, .cls-4, .cls-5, .cls-6, .cls-8, .cls-10, .cls-11, .cls-12, .cls-13, .cls-15, .cls-16, .cls-17, .cls-18, .cls-19 {
        stroke-linecap: square;
      }

      .cls-1, .cls-2, .cls-3, .cls-8, .cls-10, .cls-13, .cls-14, .cls-18, .cls-19 {
        stroke-miterlimit: 10;
      }

      .cls-2, .cls-16 {
        fill: #626262;
      }

      .cls-3, .cls-7, .cls-14, .cls-15 {
        fill: none;
      }

      .cls-4, .cls-5, .cls-6, .cls-7, .cls-9, .cls-11, .cls-12, .cls-15, .cls-16, .cls-17 {
        stroke-linejoin: round;
      }

      .cls-4, .cls-9, .cls-18 {
        fill: #616161;
      }

      .cls-5 {
        fill: #E8E8E8;
      }

      .cls-6 {
        fill: #1B1B1B;
      }

      .cls-7, .cls-9 {
        stroke-linecap: round;
      }

      .cls-8, .cls-11 {
        fill: #DADADA;
      }

      .cls-10, .cls-12 {
        fill: #303030;
      }

      .cls-13, .cls-17 {
        fill: #717171;
      }

      .cls-19 {
        fill: #404040;
      }
    </style>
  </defs>
  <g id="_4F" data-name="4F">
      <line class="cls-7" x1="148.88" y1="595.44" x2="148.88" y2="574.27"/>
      <line class="cls-7" x1="137.92" y1="585.89" x2="137.92" y2="580.2"/>
      <line class="cls-7" x1="137.92" y1="580.06" x2="137.92" y2="574.12"/>
      <line class="cls-7" x1="137.92" y1="573.94" x2="137.92" y2="569.28"/>
      <line class="cls-7" x1="135.11" y1="573.94" x2="135.11" y2="571.61"/>
      <line class="cls-7" x1="135.11" y1="573.94" x2="135.11" y2="571.61"/>
      <line class="cls-7" x1="134.36" y1="573.94" x2="134.36" y2="571.61"/>
      <line class="cls-7" x1="136.66" y1="573.94" x2="136.66" y2="571.61"/>
      <line class="cls-7" x1="136.66" y1="573.94" x2="136.66" y2="571.61"/>
      <line class="cls-7" x1="135.91" y1="573.94" x2="135.91" y2="571.61"/>
      <line class="cls-7" x1="133.68" y1="573.94" x2="133.68" y2="571.61"/>
      <line class="cls-7" x1="132.96" y1="573.94" x2="132.96" y2="571.61"/>
      <line class="cls-7" x1="135.11" y1="571.76" x2="135.11" y2="569.43"/>
      <line class="cls-7" x1="135.11" y1="571.76" x2="135.11" y2="569.43"/>
      <line class="cls-7" x1="134.36" y1="571.76" x2="134.36" y2="569.43"/>
      <line class="cls-7" x1="136.66" y1="571.76" x2="136.66" y2="569.43"/>
      <line class="cls-7" x1="136.66" y1="571.76" x2="136.66" y2="569.43"/>
      <line class="cls-7" x1="135.91" y1="571.76" x2="135.91" y2="569.43"/>
      <line class="cls-7" x1="133.68" y1="571.76" x2="133.68" y2="569.43"/>
      <line class="cls-7" x1="132.96" y1="571.76" x2="132.96" y2="569.43"/>
      <line class="cls-7" x1="148.88" y1="588.37" x2="161.14" y2="588.37"/>
      <line class="cls-7" x1="149.1" y1="581.66" x2="161.26" y2="581.65"/>
      <line class="cls-7" x1="147.81" y1="574.09" x2="147.81" y2="569.21"/>
      <line class="cls-7" x1="150.61" y1="574.12" x2="150.61" y2="569.4"/>
      <line class="cls-7" x1="152.51" y1="571.65" x2="152.51" y2="569.4"/>
      <line class="cls-7" x1="153.44" y1="571.65" x2="153.44" y2="569.4"/>
      <line class="cls-7" x1="154.24" y1="571.65" x2="154.24" y2="569.4"/>
      <line class="cls-7" x1="155.23" y1="571.65" x2="155.23" y2="569.4"/>
      <line class="cls-7" x1="156.15" y1="571.65" x2="156.15" y2="569.4"/>
      <line class="cls-7" x1="152.51" y1="573.96" x2="152.51" y2="571.71"/>
      <line class="cls-7" x1="153.44" y1="573.96" x2="153.44" y2="571.71"/>
      <line class="cls-7" x1="154.24" y1="573.96" x2="154.24" y2="571.71"/>
      <line class="cls-7" x1="155.23" y1="573.96" x2="155.23" y2="571.71"/>
      <line class="cls-7" x1="156.15" y1="573.96" x2="156.15" y2="571.71"/>
      <line class="cls-7" x1="150.61" y1="574.12" x2="157.04" y2="574.12"/>
      <line class="cls-7" x1="151.19" y1="571.81" x2="156.89" y2="571.81"/>
      <line class="cls-7" x1="145" y1="573.6" x2="147.8" y2="573.6"/>
      <line class="cls-7" x1="148.02" y1="574.12" x2="150.69" y2="574.12"/>
      <line class="cls-7" x1="130.1" y1="586.09" x2="137.92" y2="586.09"/>
      <line class="cls-7" x1="130.15" y1="580.06" x2="142.08" y2="580.06"/>
      <line class="cls-7" x1="132.51" y1="571.61" x2="137.92" y2="571.61"/>
      <line class="cls-7" x1="130.15" y1="573.94" x2="137.92" y2="573.94"/>
    </g>
</svg>
