<?xml version="1.0" encoding="UTF-8"?>
<svg xmlns="http://www.w3.org/2000/svg" viewBox="0 0 470.53 710.52">
  <defs>
    <style>
      .cls-1 {
        fill: #616161;
      }

      .cls-1, .cls-2, .cls-3, .cls-4, .cls-5, .cls-6, .cls-7, .cls-8, .cls-9, .cls-10, .cls-11, .cls-12, .cls-13, .cls-14, .cls-15, .cls-16, .cls-17, .cls-18, .cls-19 {
        stroke: #323232;
        stroke-width: .25px;
      }

      .cls-1, .cls-2, .cls-3, .cls-4, .cls-5, .cls-6, .cls-8, .cls-10, .cls-11, .cls-12, .cls-13, .cls-15, .cls-16, .cls-17, .cls-18, .cls-19 {
        stroke-linecap: square;
      }

      .cls-1, .cls-2, .cls-3, .cls-8, .cls-10, .cls-13, .cls-14, .cls-18, .cls-19 {
        stroke-miterlimit: 10;
      }

      .cls-2, .cls-16 {
        fill: #626262;
      }

      .cls-3, .cls-7, .cls-14, .cls-15 {
        fill: none;
      }

      .cls-4, .cls-5, .cls-6, .cls-7, .cls-9, .cls-11, .cls-12, .cls-15, .cls-16, .cls-17 {
        stroke-linejoin: round;
      }

      .cls-4, .cls-9, .cls-18 {
        fill: #616161;
      }

      .cls-5 {
        fill: #E8E8E8;
      }

      .cls-6 {
        fill: #1B1B1B;
      }

      .cls-7, .cls-9 {
        stroke-linecap: round;
      }

      .cls-8, .cls-11 {
        fill: #DADADA;
      }

      .cls-10, .cls-12 {
        fill: #303030;
      }

      .cls-13, .cls-17 {
        fill: #717171;
      }

      .cls-19 {
        fill: #404040;
      }
    </style>
  </defs>
  <g id="_00" data-name="00">
    <polygon class="cls-5" points="321.54 .12 299.69 .34 .18 .14 .12 322.6 20.73 322.59 34.37 321.54 50.3 319.52 63.76 317.32 122 279.05 121.75 276.45 126.92 265.23 145.75 244.62 162.81 237.61 265.45 131.28 253.51 115.56 257.22 102.23 278.3 63.42 319.25 51 329.01 34.93 331.22 7.69 321.54 6.64 321.54 .12"/>
  </g>
  <g id="_01" data-name="01">
    <polygon class="cls-1" points="264.83 88.59 257.22 102.23 253.75 115.77 265.45 131.28 165.3 235.03 175.25 236.26 195.2 253.68 197.85 250.99 239.73 291.49 232 298.81 227.71 295.59 185.49 254.98 172.17 268.1 221.18 319.16 218.07 322.45 218.17 327.81 238.03 347.08 260.81 322.93 264.27 326.1 284.17 303.76 335.37 246.27 375.03 214.22 408.39 182.1 426.27 153.61 415.2 142.15 398.59 129.91 402.86 123.81 403.69 123.08 435 143.66 418.47 127.76 413.39 123.47 341.96 61.63 319.25 51 278.31 63.62 264.83 88.59"/>
  </g>
  <g id="_02" data-name="02">
    <path class="cls-19" d="M436.34,144.74l-32.69-21.54h0l-5.06,6.7h0s16.77,12.19,16.77,12.19h0s11.06,11.49,11.06,11.49l4.75-1.34,5.82-3.95,2.63-.53-3.28-3.03Z"/>
    <g>
      </g>
    <g>
      </g>
    <g>
      </g>
    <g>
      </g>
    <g>
      </g>
    <g>
      </g>
    <g>
      </g>
    <g>
      <g>
        </g>
      <path class="cls-19" d="M229.05,296.86l2.02,1.86,1.04.22.96-.38,6.8-7.01h0s-5.5-5.29-5.5-5.29l-3.18,3.34-36.57-35.33.51-.49-19.88-17.52-9.95-1.23-2.72,2.83-16.83,6.77-18.66,20.56-5.34,11.27.26,2.6,10.15,5.59,9.24,9.07,16.54-18.06,2.11-2.28,1.19,1.13,10.83-11.37,2.03,1.8,1.59-1.65.62.62.25.03,8.95-8.95,43.32,41.62.23.26-1.27-1.21"/>
      <g>
        </g>
      <path class="cls-19" d="M224.11,301.96l2.59,2.43.13.39-.13.53-.65.64-.42.19-.5-.19-3.83-3.67h0s1.57-1.56,1.57-1.56l1.24,1.24"/>
    </g>
    <g>
      <path class="cls-19" d="M246.66,296.94l20.39,19.52h0s-28.1,29.34-28.1,29.34h0s-20.39-19.52-20.39-19.52l28.1-29.34Z"/>
      <g>
        </g>
    </g>
  </g>
  <g id="_03" data-name="03">
    <path class="cls-8" d="M163.22,316.36l43.28,41.34h.03s-1.79,1.87-1.79,1.87l-.02-.02-43.77-42.37-16.68,17.27.02.05,11.38,10.84,1.08-1.08,2.32,2.27-1.03,1.08h0s20.44,19.74,20.44,19.74h0s1.08-1.08,1.08-1.08l2.11,2-1.08,1.13h0s14.67,14.13,14.67,14.13h0s16.56-17.15,16.56-17.15h0s-5.77-5.55-5.77-5.55v-.02s1.79-1.84,1.79-1.84h-.01s5.83,5.58,5.83,5.58h0s12.62-13.11,12.62-13.11l-.11-5.29h0s-15.16-14.62-15.16-14.62h0s-.11-4.86-.11-4.86h0s-29.77-28.75-29.77-28.75h0s-5.61,5.82-5.61,5.82l-.05-.05-2.56-2.53h0l5.64-5.77h0s-20.5-19.77-20.5-19.77v.03s-5.6,5.77-5.6,5.77l-9.77,9.33,3.62,3.5h0s-2.8,2.91-2.8,2.91h0s17.12,16.77,17.12,16.77h0l2.94-3.02,2.54,2.43-2.86,3.02"/>
    <path class="cls-8" d="M174.08,264.94l1.59-1.65h0s.81.75.81.75l.05-.05,40.83,39.37h0s-.37.48-.37.48h.05s1.73,1.51,1.73,1.51l.95,2.75.04,2.63-.6,2.1-1.81,2.01-43.26-49.91Z"/>
    <path class="cls-8" d="M186.25,255.41l41.59,40.13h0s-4.96,5.18-4.96,5.18h0s-41.59-40.18-41.59-40.18l4.96-5.12h0Z"/>
    <g>
      <g>
        </g>
      <g>
        </g>
      </g>
    <g>
      <g>
        </g>
      <g>
        </g>
      <g>
        </g>
      <g>
        </g>
      <g>
        </g>
    </g>
    <g>
      <path class="cls-8" d="M158.03,275.61l-2.04-1.97"/>
      </g>
    <g>
      <g>
        </g>
      <g>
        </g>
      <g>
        </g>
      </g>
    <g>
      <path class="cls-8" d="M174.05,264.99l44.05,42.49.55,2.61-.37,2.28-.52,1.62-.67,1.08-1.18.04h0s-2.37-2.27-2.37-2.27l-1.29-1.19-4.86,5.07,1.21,1.13h0l2.67,2.75h0s-.86.86-.86.86h0s.05,1.13.05,1.13h0s-.27.27-.27.27l-47.62-46.01h0s11.51-11.94,11.51-11.94l-.04.05Z"/>
      </g>
    <g>
      <path class="cls-8" d="M137.92,336.11l-1.13,1.17"/>
      <path class="cls-8" d="M140.19,333.78l-11.49-10.95,16.68-20.62,13.04,12.64-20.5,21.26-3.37-3.17-1.04,1.04-6.57-6.42-2.82,2.85,2.96,2.93-16.39,16.61-24.48-18.66-2.63,3.22-15.18-8.16-5.38-4.24.73-4.79,58.22-38.1,10.18,5.42,9.24,9.07-2.17,2.53,5.83,5.91"/>
    </g>
    <g id="_課外活動棟2" data-name="課外活動棟2">
      <path class="cls-8" d="M156.26,257.41l15.37-15.91h0s5.93,5.71,5.93,5.71c0,0-15.43,15.91-15.43,15.91l-5.88-5.71h0Z"/>
      </g>
    <path class="cls-8" d="M154.75,263.66l2.16,2.1h0s1.89-1.94,1.89-1.94h0s-2.16-2.1-2.16-2.1h0l-1.89,1.94Z"/>
    <path class="cls-8" d="M150.6,272.83l-2.05,2.16h0s2.91,2.8,2.91,2.8l2.1-2.1h0s-2.96-2.86-2.96-2.86h0Z"/>
    <path class="cls-8" d="M152.43,260.64l1.35,1.3h0s1.35-1.35,1.35-1.35h0s-1.35-1.35-1.35-1.35h0s-1.35,1.4-1.35,1.4Z"/>
    <path class="cls-8" d="M231.18,289.61l-36.57-35.33h0s3.23-3.29,3.23-3.29h0s36.51,35.27,36.51,35.27h0s-3.18,3.34-3.18,3.34h0Z"/>
    <path class="cls-11" d="M271.52,317.6l2.96-3.34h0s-2.54-2.21-2.54-2.21v-.05l-2.96,3.29h0s2.54,2.32,2.54,2.32Z"/>
  </g>
  <g id="_04" data-name="04">
    <g>
      <path class="cls-2" d="M134.79,283.13l9.39-9.71h0s63.43,61.21,63.43,61.21h0s-9.38,9.71-9.38,9.71l-63.43-61.21h0Z"/>
      </g>
    <path class="cls-2" d="M181.29,260.54l41.59,40.18h0s4.96-5.18,4.96-5.18h0s-41.59-40.13-41.59-40.13h0s-4.96,5.12-4.96,5.12Z"/>
    <path class="cls-2" d="M107.29,325.15l-11.65-11.27h0s5.5-5.72,5.5-5.72h0s20.55,19.85,20.55,19.85h0s-2.96,3.08-2.96,3.08h0s2.48,2.37,2.48,2.37v.05s-3.23,3.29-3.23,3.29h0s-2.48-2.43-2.48-2.43h0s-3.61,3.77-3.61,3.77h0s-2.37-2.27-2.37-2.27h0s1.35-1.4,1.35-1.4h0s-6.47-6.25-6.47-6.25h0s2.91-3.07,2.91-3.07h0Z"/>
    <path class="cls-2" d="M149.63,333.94l7.07-7.33h0s8.68,8.36,8.68,8.36h0s1.73-1.78,1.73-1.78h0s5.88,5.66,5.88,5.66h0s-1.73,1.78-1.73,1.78h0s13.54,13.11,13.54,13.11h0s1.73-1.78,1.73-1.78h0s5.87,5.61,5.87,5.61h0s-1.72,1.78-1.72,1.78h0s8.68,8.41,8.68,8.41h0s-7.12,7.39-7.12,7.39h0s-8.63-8.36-8.63-8.36h0s-1.73,1.73-1.73,1.73h0s-2.64-2.59-2.64-2.59h0s1.67-1.78,1.67-1.78h0s-19.96-19.25-19.96-19.25h0s-1.67,1.73-1.67,1.73h0s-2.7-2.59-2.7-2.59h0s1.67-1.73,1.67-1.73h0s-8.63-8.36-8.63-8.36h0Z"/>
    <path class="cls-2" d="M155.72,315.71l-14.83,15.37h0s-8.31-8.04-8.31-8.04h0s14.83-15.37,14.83-15.37h0s8.31,8.04,8.31,8.04h0Z"/>
    <g id="_寮D棟" data-name="寮D棟">
      <path class="cls-16" d="M200.92,347.75l10.25-10.68h-.05s12.4,11.92,12.4,11.92h0s-10.25,10.68-10.25,10.68h0s-12.35-11.92-12.35-11.92h0Z"/>
      <g>
        </g>
    </g>
    <g id="_寮F棟" data-name="寮F棟">
      <path class="cls-2" d="M165.76,276.61l4.96-5.12h0s41.58,40.18,41.58,40.18h0s-4.96,5.13-4.96,5.13h0s-41.58-40.18-41.58-40.18h0Z"/>
    </g>
  </g>
  <g id="_05" data-name="05">
    <polyline class="cls-6" points="428.37 204.88 426.56 197.91 424.37 197.32"/>
    <polygon class="cls-6" points="469.83 82.49 438.22 150.39 369.73 226.69 299.3 290.88 198.42 394.25 189.51 403.27 .37 544.93 .47 709.22 469.64 710.39 469.83 82.49"/>
    <polygon class="cls-6" points="195.39 391.26 238.03 347.08 218.17 327.81 218.07 322.45 221.18 319.16 217.09 315.05 215.88 315.05 212.22 311.72 207.39 316.7 211.27 320.7 210.41 321.48 210.47 322.61 210.2 322.88 162.58 276.93 173.92 265 172.01 263.21 161.26 274.55 160.2 273.53 158.15 275.65 178.54 295.38 172.93 301.04 175.53 303.78 181.12 297.78 187.6 304.11 210.9 326.66 211.03 331.46 226.16 346.13 226.27 351.41 213.61 364.48 207.76 359.03 206 360.75 211.67 366.4 195.28 383.58 180.39 369.38 181.49 368.25 179.55 366.34 178.53 367.26 158.08 347.47 158.91 346.54 156.66 344.25 155.69 345.22 144.27 334.49 161 317.03 204.71 359.56 206.47 357.71 163.15 316.25 165.93 313.27 163.49 310.83 160.61 313.86 143.49 297.17 146.12 294.3 143.54 291.73 139.25 296.17 158.12 315.17 138.95 335.07 141.38 337.45 142.61 336.2 156.95 350 155.78 351.08 157.59 353.12 158.71 351.81 192.51 384.2 193.05 385.32 192.76 386.3 182.12 397.32 170.27 395.08 153.64 378.93 162.32 370 154.47 362.3 133.98 383.61 131.39 383.42 122.08 372 113.83 358.49 110.51 350 86.22 331.37 83.69 334.49 105.73 351.91 106.47 353.37 119.25 373.95 131 388.39 132.95 388.88 135.39 388.73 138.81 387.56 145.78 380.3 150.56 381.08 168.37 398.44 189.39 403.32 198.42 394.25 195.39 391.26"/>
  </g>
  <g id="_06" data-name="06">
    <path class="cls-12" d="M.21,674.7h282.69,0s4.32,3.4,4.32,3.4h0s2.96,32.09,2.96,32.09H.18s.03-35.49.03-35.49Z"/>
    <path class="cls-12" d="M311.24,506.93l-3.37,2.38c-.17.38-.33.76-.5,1.15l-.26.98h0s-6.36,59.6-6.36,59.6l-2.7,23.68-.75,26.91,1.64,55.07,4.15,33.49h167.12s.19-209.94.19-209.94l-159.16,6.68Z"/>
    <path class="cls-10" d="M186.25,255.41l41.59,40.13h0s-4.96,5.18-4.96,5.18h0s-41.59-40.18-41.59-40.18l4.96-5.12h0Z"/>
    <path class="cls-12" d="M325.08,428.92l-16.73,69.2-.09.88.18,1.2h0l.2.76.68,1.02h0l.78.87,1.08.63h0l1.54.47,157.48-7.14v-94.51s-50.9-151.25-50.9-151.25h0s-30.31,5.61-30.31,5.61c0,0-36.03,79.45-36.03,79.45,0,0-15.64,45.52-15.64,45.52,0,0-6.96,24.16-6.96,24.16l-5.71,24.92-16.39,68.3h0l.18,1.2h0l.88,1.78h0l1.85,1.5h0l1.54.47h0"/>
    <path class="cls-12" d="M436.02,204.01l-4.86,3.07h0s-2.7-2.27-2.7-2.27h0s-1.89-7.07-1.89-7.07h0s-2.21-.48-2.21-.48h0s12.68-20.39,12.68-20.39h0s9.44-12.89,9.44-12.89h0s3.07-4.59,3.07-4.59l.11-.16,20.52-39.48-.05,66.96-34.11,17.28Z"/>
    <path class="cls-12" d="M428.2,229.9l3.29,16.61,38.78,116.73-.11-168.01-34.09,17.84s-3.02,1.29-3.02,1.29c0,0-4.85,15.53-4.85,15.53Z"/>
    <g>
      <path class="cls-12" d="M255.48,368.6l-1.27-1.16h0s-59.71,59.92-59.71,59.92v.05s-39.96,46.49-39.96,46.49l-51.72,35.7.43-.21-77.29,35.81-.16.11-22.57,9.56-.02.04,16.77-.05h20.5s0,.86,0,.86v112.72h242.43s3.13-4.21,3.13-4.21l-.16-6.37-.05-1.29-.05-1.29-.05-1.3-.16-6.36-.05-1.29v-1.3l-.05-1.29-.21-6.36v-1.3s-.05-1.29-.05-1.29l-.05-1.29-.16-6.37-.05-1.29v-1.29l-.05-1.3-.05-1.56s.16-6.37.16-6.37l.05-1.29.05-1.29v-1.3s.16-6.36.16-6.36l.05-1.29.05-1.3v-1.29s.22-6.36.22-6.36v-.97s.7-6.36.7-6.36l.16-1.29.16-1.3.16-1.29.7-6.36.16-1.3.16-1.29.11-1.3.76-6.36.11-1.29.16-1.3.16-1.29.59-5.23-.11.11.11-1.13.16-1.29.11-1.29.16-1.3.7-6.36.11-1.29.16-1.3.11-1.29.7-6.36.16-1.3.11-1.29.16-1.29.65-6.37.16-1.29.11-1.29.16-1.3.7-6.36.11-1.29.16-1.3.11-1.29.7-6.36s1.13-5.66,1.13-5.66l.21-1.3.27-1.29.27-1.29,1.24-6.37.27-1.29.21-1.29.27-1.3,1.24-6.36.27-1.29.27-1.3.21-1.29,1.3-6.36.21-1.3.27-1.29.27-1.29s1.24-6.37,1.24-6.37l.27-.97.32-1.3.38-1.29,2.05-7.66.32-1.13.32-1.3.38-1.29.38-1.3,1.72-6.36.38-1.29.32-1.3.38-1.29,1.78-6.36.32-1.3.38-1.29.32-1.29,1.78-6.37,11.16-38.67h0s10.95-32.25,10.95-32.25h0s10.03-26.86,10.03-26.86h0s15.32-34.57,15.32-34.57h0s16.66-33.5,16.66-33.5h0s-6.31-8.3-6.31-8.3h0s-17.8,11.65-17.8,11.65h0s-100.66,115.24-100.66,115.24"/>
      <path class="cls-12" d="M315.31,415.27l-1.29-.92-1.3-.92-6.36-4.48-1.29-.92-1.3-.97-1.29-.92-6.36-4.48-1.3-.92-1.29-.91-1.29-.92-6.37-4.53-1.29-.92-1.29-.91-1.3-.92-6.36-4.53s-.92-.86-.92-.86l-1.29-1.18-1.29-1.19-1.3-1.19-6.36-5.82-1.29-1.19-1.3-1.19-1.29-1.24-5.09-4.66h0"/>
    </g>
    <g>
      </g>
    <g>
      </g>
    <g>
      </g>
    <g>
      </g>
    <g>
      </g>
    <g>
      </g>
    <g>
      <path class="cls-10" d="M154.45,362.23l-1.37-1.32"/>
      <path class="cls-10" d="M113.87,358.64l-3.13-8.52h0s10.2-10.52,10.2-10.52l6.29-6.29h-.02s-3.04-2.93-3.04-2.93l.03.02,2.73-2.83,6.57,6.46h0s1.02-1.07,1.02-1.07h0s3.34,3.18,3.34,3.18l1.08-1.08,2.43,2.37,1.19-1.19,14.34,13.75h0s-1.23,1.27-1.23,1.27v.02s1.88,1.84,1.88,1.84h.01s1.23-1.3,1.23-1.3h0s33.93,32.78,33.93,32.78l.21.52.02.35-.1.4-.31.56-10.61,10.86h0s-11.65-2.27-11.65-2.27l-16.61-16.07h0s8.79-9.01,8.79-9.01h0s-8.01-7.73-8.01-7.73l-.02.02-20.55,21.25h0s-2.37-.05-2.37-.05h0s-9.22-11.32-9.22-11.32l-8.41-13.48h0Z"/>
      <path class="cls-10" d="M153.56,353.46l2.11-2.18"/>
      <path class="cls-10" d="M136.79,337.28l-3.3-3.24"/>
      </g>
    <g>
      </g>
    <g>
      </g>
    <g>
      </g>
    <g>
      </g>
    <g>
      <path class="cls-12" d="M470.28.34l-.12,101.13-26.04,46.34-4.41-.14-21-19.86-12.35-10.57h0s-64.45-55.66-64.45-55.66l.05.05-22.71-10.73.16-.32,9.6-15.64h0s2.21-27.24,2.21-27.24h0s-9.55-.81-9.55-.81l.07-6.66,148.54.13"/>
    </g>
    <path class="cls-12" d="M.17,545.67l21.2-10.29h0l77.34-35.81h0s47.09-31.01,47.09-31.01h0l37.54-42.29h0s-.27-3.67-.27-3.67l9.82-11.81.27-3.83-.21-.21-3.45-3.34h0s-21.09-4.8-21.09-4.8l-18.07-17.47h0s-4.42-.81-4.42-.81l-7.13,7.34h-.09s-3.35,1.08-3.35,1.08h0s-2.37.16-2.37.16l-1.94-.43h0s-11.76-14.45-11.76-14.45h0s-12.57-20.06-12.57-20.06h0s-.97-1.94-.97-1.94h0s-22.22-17.37-22.22-17.37h0s-15-8.31-15-8.31l-5.5-4.26.75-4.7h0s-14.13,2.32-14.13,2.32h0s-15.7,1.84-15.7,1.84h0s-12.51.89-12.51.89l-21.3.18.05,223.07Z"/>
    <path class="cls-12" d="M201.62,398.77l1.02-1.03s-.48-.48-.48-.48l-.97,1.08.43.43"/>
    <path class="cls-12" d="M199.68,399.85l.54.43s-1.03,1.08-1.03,1.08l-.48-.48s.97-1.02.97-1.02Z"/>
    <path class="cls-12" d="M194.45,406.21l-.97,1.08s-.49-.48-.49-.48c0,0,.97-1.03.97-1.03,0,0,.48.43.48.43Z"/>
    <path class="cls-12" d="M264.28,326.18l-3.49-3.19-22.65,24.11-42.66,44.17h0s6.47,6.26,6.47,6.26l.43-.05.27.27,2.91.38.22.05,1.81.63h0l.4.18h0l1.25-.07h0l.69-.39h0l129.23-142.63h0s32.3-26.64,32.3-26.64h0s1.67.76,1.67.76h0s29.72-11,29.72-11h0s11.27-26,11.27-26h0s3.77-2.32,3.77-2.32l3.07-6.69h0s.43-4.04.43-4.04h0s11.81-19.2,11.81-19.2h0s4.31-2.7,4.31-2.7h0s3.02-4.58,3.02-4.58l3.51-5.56-3.83-.21-3.24.59-5.66,3.94-5.02,1.62-.1.05-13.64,21.64-.16.27-3.94,6.39-.08.09-33.53,32.18-39.43,32.04"/>
    <path class="cls-12" d="M267.69,329.3l-3.39-3.1-.02-.02"/>
    <g>
      <path class="cls-12" d="M264.35,326.23l-6.42,7.77-8.36,11.11h0s-45.2,50.11-45.2,50.11h0s-2,2.27-2,2.27"/>
      <path class="cls-12" d="M266.29,323.85l69.14-77.34"/>
    </g>
  </g>
  <g id="_07" data-name="07">
    <g>
      <path class="cls-17" d="M274.33,389.6l-20.01-18.23h0s-41.37,43.74-41.37,43.74h0s-.92,8.14-.92,8.14l-.06.16h2.22,0,.81s.81-7.66.81-7.66h0s3.67-3.72,3.67-3.72h0s77.18,0,77.18,0l.93.37.36.93v38.51h0s2.32,0,2.32,0h0s0-4.15,0-4.15l4.53-1.57h0s8.3-28.96,8.3-28.96l-39.05-27.78"/>
      </g>
    <path class="cls-13" d="M117.43,652.53h-20.39v4.59h0s-7.93,0-7.93,0h0l-.97-1.02h0s0-13.92,0-13.92l.46-.89.79-.35h3.23s0-76.43,0-76.43l.47-.89.77-.41h22.33l.87.43.36.86v88.02"/>
    <path class="cls-13" d="M166.4,586.41h-5.12v-3.51s5.12,0,5.12,0h0v-18.5l-.37-.77-.77-.42-41.85.05-.68.4-.29.84v31.39h0s1.18,13.86,1.18,13.86h6.31v3.61h-6.31v10.73h0s3.94,0,3.94,0v3.56s-3.94,0-3.94,0c0,0,0,10.79,0,10.79h0s3.94,0,3.94,0c0,0,0,6.58,0,6.58h-3.94v5.93h42.77v-5.93h-7.77v-16.12h7.77v-15.54h0s-7.77,0-7.77,0v-3.61h7.77s0-9.55,0-9.55c0,0-7.77,0-7.77,0h0s0-4.75,0-4.75h7.77,0s0-9.06,0-9.06"/>
    <path class="cls-13" d="M161.12,513.11l-16.72-4.26h0s-5.93.7-5.93.7v24.81l-24.65,14.67s0,3.56,0,3.56h0v3.13h0s65.21,0,65.21,0h21.25l1.69-.75.68-1.57v-38.4l-.53-1.35-1.36-.53h-39.64"/>
    <polygon class="cls-17" points="245.31 668.44 242.56 663.96 242.4 662.99 242.4 633.44 242.34 633.44 242.34 633.27 242.4 633.22 242.4 632.84 242.45 632.79 242.45 632.57 242.5 632.52 242.5 632.41 242.56 632.36 242.56 632.2 242.61 632.14 242.61 632.04 242.67 631.98 242.67 631.93 242.72 631.87 242.72 631.77 242.77 631.71 242.77 631.66 242.83 631.6 242.83 631.55 242.88 631.5 242.88 631.44 242.99 631.33 242.99 631.28 243.04 631.23 243.04 631.17 243.15 631.06 243.15 631.01 243.21 630.96 243.26 630.9 243.31 630.85 243.31 630.79 243.37 630.74 243.42 630.69 243.53 630.58 243.53 630.52 243.85 630.2 243.9 630.2 243.96 630.14 244.01 630.09 244.12 629.98 244.17 629.93 244.23 629.93 244.28 629.88 244.34 629.82 244.39 629.82 244.44 629.77 244.5 629.71 244.55 629.71 244.61 629.66 244.66 629.66 244.71 629.61 244.77 629.55 244.82 629.55 244.88 629.5 244.93 629.5 244.99 629.45 245.04 629.45 245.09 629.39 245.2 629.39 245.26 629.34 245.31 629.34 245.36 629.29 245.47 629.29 245.53 629.23 245.63 629.23 245.69 629.18 245.85 629.18 245.9 629.12 246.06 629.12 246.12 629.07 246.39 629.07 247.09 629.02 247.14 607.01 247.14 607.22 247.14 606.63 247.2 606.58 247.2 606.31 247.25 606.25 247.25 606.14 247.3 606.09 247.3 605.98 247.36 605.93 247.36 605.88 247.41 605.82 247.41 605.77 247.47 605.71 247.47 605.66 247.52 605.61 247.57 605.55 247.57 605.5 247.74 605.34 247.79 605.28 247.84 605.23 248.11 604.96 248.17 604.96 248.28 604.85 248.33 604.85 248.38 604.8 248.44 604.8 248.49 604.74 248.54 604.74 248.6 604.69 248.71 604.69 248.76 604.64 248.87 604.64 248.92 604.58 249.14 604.58 249.19 604.53 249.51 604.53 249.51 604.53 265.64 604.53 265.64 583.39 265.69 583.39 265.69 583.12 265.75 583.06 265.75 582.9 265.8 582.85 265.8 582.74 265.86 582.68 265.86 582.58 265.91 582.52 265.91 582.47 265.97 582.41 266.02 582.36 266.02 582.3 266.07 582.25 266.24 582.09 266.24 582.04 266.29 582.04 266.34 581.98 266.51 581.82 266.56 581.82 266.61 581.77 266.67 581.71 266.72 581.71 266.78 581.66 266.83 581.66 266.88 581.61 266.99 581.61 267.04 581.55 267.26 581.55 267.31 581.5 267.58 581.5 267.58 581.45 273.57 581.45 286.09 588.68 285.53 593.82 284.78 621.64 285.98 664.25 282.86 668.34 245.31 668.44"/>
    <polygon class="cls-13" points="234.63 656.93 234.04 657.11 206.1 657.11 205.22 656.76 204.8 655.88 201.67 655.88 201.27 656.69 200.44 657.11 173.9 657.11 173.06 656.86 172.71 655.93 172.71 637.75 180.42 637.75 180.42 634.03 172.71 634.03 172.71 634.03 172.71 617.26 172.71 617.26 180.42 617.26 180.42 614.13 172.71 614.13 172.71 614.13 172.71 575.62 176.49 575.62 176.49 572.92 176.49 572.92 177.57 572.92 177.57 569.36 177.57 569.36 172.71 569.36 172.71 569.36 172.71 564.4 172.69 564.11 172.69 564.11 172.69 564.11 172.77 563.97 172.77 563.86 172.87 563.75 172.87 563.7 172.98 563.59 173.04 563.54 173.09 563.48 173.14 563.43 173.2 563.43 173.31 563.32 173.36 563.32 173.41 563.27 173.58 563.27 173.63 563.21 173.85 563.21 200.54 563.21 200.6 563.21 200.76 563.21 200.81 563.27 200.92 563.27 200.97 563.32 201.08 563.32 201.19 563.43 201.24 563.43 201.3 563.48 201.35 563.54 201.4 563.59 201.51 563.7 201.51 563.75 201.57 563.81 201.62 563.86 201.62 563.91 201.67 563.97 201.67 564.13 201.73 564.18 201.73 564.4 201.73 598.92 201.73 598.92 214.13 608.63 218.18 606.95 205.51 597.09 205.51 597.09 205.51 564.4 205.51 564.45 205.51 564.18 205.56 564.13 205.56 564.02 205.61 563.97 205.61 563.86 205.67 563.81 205.72 563.75 205.72 563.7 205.78 563.64 205.83 563.59 205.88 563.54 205.99 563.43 206.04 563.43 206.1 563.38 206.15 563.32 206.21 563.32 206.26 563.27 206.42 563.27 206.47 563.21 206.69 563.21 217.64 563.21 217.64 563.21 217.64 555.72 217.58 555.72 212.52 555.72 212.25 555.77 212.19 555.72 211.92 555.72 211.87 555.66 211.76 555.66 211.71 555.61 211.6 555.61 211.54 555.55 211.49 555.55 211.44 555.5 211.38 555.5 211.33 555.45 211.28 555.45 211.22 555.39 211.17 555.34 211.12 555.34 210.95 555.18 210.9 555.13 210.85 555.07 210.68 554.91 210.63 554.86 210.57 554.8 210.57 554.75 210.52 554.69 210.47 554.64 210.47 554.59 210.41 554.53 210.41 554.48 210.36 554.42 210.36 554.37 210.3 554.32 210.3 554.21 210.25 554.15 210.25 554.04 210.2 553.99 210.2 553.77 210.14 553.72 210.14 553.4 210.14 463.49 210.14 463.54 210.14 463.11 210.2 463.06 210.2 462.68 210.25 462.63 210.25 462.41 210.3 462.36 210.3 462.2 210.36 462.14 210.36 462.03 210.41 461.98 210.41 461.87 210.47 461.82 210.47 461.76 210.52 461.71 210.52 461.6 210.57 461.55 210.57 461.49 210.63 461.44 210.63 461.39 210.68 461.33 210.68 461.28 210.74 461.22 210.74 461.17 210.79 461.12 210.85 461.06 210.85 461.01 210.9 460.95 210.9 460.9 210.95 460.85 211.06 460.74 211.06 460.68 211.22 460.52 211.22 460.47 211.33 460.36 211.38 460.31 211.44 460.25 211.6 460.09 211.65 460.04 211.71 459.98 211.81 459.88 211.87 459.88 211.92 459.82 211.97 459.77 212.03 459.71 212.08 459.71 212.25 459.55 212.3 459.55 212.35 459.5 212.41 459.5 212.46 459.45 212.52 459.39 212.57 459.39 212.62 459.34 212.68 459.34 212.73 459.28 212.79 459.28 212.84 459.23 212.89 459.23 212.95 459.18 213 459.18 213.06 459.12 213.16 459.12 213.22 459.07 213.33 459.07 213.38 459.01 213.49 459.01 213.54 458.96 213.7 458.96 213.76 458.91 213.92 458.91 213.97 458.85 214.29 458.85 214.35 458.8 214.83 458.8 234.68 458.8 235.53 459.19 235.92 460.04 235.92 496.07 235.54 496.93 234.68 497.3 231.45 497.3 231.45 497.3 231.45 500.87 234.68 500.87 235.55 501.27 235.92 502.11 235.92 538.46 235.92 538.46 239 538.46 239 546.22 241.91 546.22 241.91 497.41 242.31 496.57 243.15 496.17 250.27 496.18 250.27 493.37 243.15 493.37 242.35 493.21 241.91 492.61 241.91 460.04 242.36 459.19 243.15 458.8 271.52 458.8 272.42 459.12 272.76 460.04 272.78 543.18 272.72 544.26 272.62 545.34 272.34 546.43 272.02 547.45 271.47 548.71 270.84 549.87 269.83 551.21 268.73 552.41 268.3 552.73 267.44 553.42 266.28 554.16 265.05 554.73 263.5 555.27 261.88 555.57 260.54 555.7 247.68 555.72 246.85 555.34 246.44 554.48 246.44 553.29 246.42 553.29 236.25 553.29 236.25 553.29 236.25 554.48 235.84 555.28 235.01 555.72 222.71 555.72 222.65 555.72 222.65 563.21 231.56 563.21 231.61 563.21 232.28 563.29 232.28 563.29 232.28 563.29 232.28 563.29 232.28 563.29 232.28 563.29 233.05 563.51 233.05 563.51 233.05 563.51 233.05 563.51 233.05 563.51 233.05 563.51 233.05 563.51 233.05 563.51 233.05 563.51 233.05 563.51 233.7 563.86 233.7 563.86 233.7 563.86 233.7 563.86 233.7 563.86 233.7 563.86 233.7 563.86 233.7 563.86 233.7 563.86 233.7 563.86 234.63 564.67 234.92 565.12 234.92 565.12 234.92 565.12 234.92 565.12 234.92 565.12 234.92 565.12 234.92 565.12 234.92 565.12 234.92 565.12 234.92 565.12 234.92 565.12 234.92 565.12 234.92 565.12 234.92 565.12 235.17 565.59 235.17 565.59 235.32 566.02 235.32 566.02 235.32 566.02 235.32 566.02 235.32 566.02 235.32 566.02 235.32 566.02 235.32 566.02 235.32 566.02 235.46 566.92 235.46 566.92 235.46 566.92 235.44 613.54 235.44 613.64 235.44 613.64 235.44 613.64 235.4 613.86 235.22 614.21 235.22 614.21 235.4 613.86 235.4 613.86 235.4 613.86 235.4 613.86 235.4 613.86 235.4 613.86 235.22 614.21 235.22 614.21 235.22 614.21 235.22 614.21 235.22 614.21 235.22 614.21 235.22 614.21 235.22 614.21 235.03 614.45 235.03 614.45 234.8 614.61 234.8 614.61 234.8 614.61 234.8 614.61 234.8 614.61 234.8 614.61 234.8 614.61 234.8 614.61 234.49 614.74 234.49 614.74 234.49 614.74 234.49 614.74 234.31 614.77 234.31 614.77 234.31 614.77 234.2 614.77 229.51 614.77 229.51 622.92 234.2 622.92 235.02 623.35 235.44 624.16 235.44 655.88 235.17 656.45 234.63 656.93"/>
    <polygon class="cls-17" points="154.51 473.95 103.1 509.49 25.78 545.32 3.22 554.87 40.47 554.86 40.47 668.44 231.93 668.44 235.44 663.96 235.44 662.13 235.04 661.22 234.2 660.89 84.37 660.89 84.37 660.89 84.37 645.14 84.85 645.14 84.85 645.14 84.85 643.68 84.85 637.54 83.67 637.54 83.67 637.54 83.67 636.08 83.67 636.13 83.67 635.59 83.72 635.54 83.72 635.05 83.78 635 83.78 634.68 83.83 634.62 83.83 634.57 83.83 634.57 83.83 634.41 83.88 634.35 83.88 634.19 83.94 634.14 83.94 633.98 83.99 633.92 83.99 633.81 84.04 633.76 84.04 633.65 84.1 633.6 84.1 633.49 84.15 633.44 84.15 633.33 84.21 633.27 84.21 633.22 84.26 633.17 84.26 633.06 84.31 633 84.31 632.95 84.37 632.9 84.37 632.84 84.42 632.79 84.42 632.73 84.47 632.68 84.47 632.63 84.53 632.57 84.53 632.52 84.58 632.46 84.58 632.41 84.64 632.36 84.64 632.3 84.69 632.25 84.69 632.2 84.74 632.14 84.74 632.09 84.85 631.98 84.85 631.93 84.96 631.82 84.96 631.77 85.01 631.71 85.07 631.66 85.07 631.6 85.12 631.55 85.18 631.5 85.23 631.44 85.23 631.39 85.28 631.33 85.34 631.28 85.39 631.23 85.39 631.17 85.5 631.06 85.55 631.01 85.61 630.96 85.72 630.85 85.72 630.79 86.15 630.36 86.2 630.36 86.37 630.2 86.42 630.14 86.47 630.09 86.53 630.04 86.58 630.04 86.63 629.98 86.69 629.93 86.74 629.88 86.79 629.82 86.85 629.82 86.9 629.77 86.96 629.71 87.01 629.71 87.12 629.61 87.17 629.61 87.28 629.5 87.33 629.5 87.44 629.39 87.49 629.39 87.55 629.34 87.6 629.34 87.66 629.29 87.71 629.29 87.77 629.23 87.82 629.23 87.87 629.18 87.93 629.18 87.98 629.12 88.04 629.12 88.09 629.07 88.14 629.07 88.2 629.02 88.25 629.02 88.31 628.96 88.36 628.96 88.41 628.91 88.52 628.91 88.58 628.85 88.63 628.85 88.68 628.8 88.79 628.8 88.85 628.74 88.9 628.74 88.9 555.77 88.9 555.77 90.57 555.77 90.57 555.77 87.82 548.87 87.82 553.67 40.79 553.67 40.79 553.67 40.79 547.25 40.79 547.25 58.53 540.89 58.53 540.89 85.01 528.1 85.01 528.1 93.05 528.1 93.05 528.1 93.05 543.64 88.31 543.64 99.15 555.72 102.76 555.72 102.76 545.79 99.15 543.64 94.24 543.64 94.24 528.1 94.24 528.1 99.2 528.1 107.99 522.17 107.99 517.05 135.98 505.39 139.89 504.59 143.91 504.86 161.6 509.33 200.76 509.33 202.22 508.73 202.65 507.45 202.65 485.77 202.26 484.91 201.4 484.52 196.17 484.52 196.17 476.54 196.17 476.59 201.3 476.59 202.23 476.24 202.54 475.36 202.54 423.41 200.49 421.37 194.47 427.38 154.51 473.95"/>
    <polygon class="cls-13" points="295.12 505.52 304.37 458.8 280.74 458.8 279.96 459.2 279.5 460.04 279.5 545.36 279.5 545.36 279.12 548.27 279.12 548.27 277.45 551.67 277.45 551.67 275.51 554.42 275.51 554.42 273.19 557.17 273.19 557.17 271.25 558.95 271.25 558.95 269.15 560.3 269.15 560.3 266.63 561.58 266.63 561.58 266.63 561.58 266.63 561.58 266.63 561.58 266.25 561.88 266.25 561.88 266.25 561.88 266.02 562.14 265.85 562.53 265.85 562.53 265.85 562.53 265.85 562.53 265.85 562.53 265.85 562.53 265.85 562.53 265.85 562.53 265.85 562.53 265.85 562.53 265.85 562.53 265.67 563.21 265.64 567.5 265.64 567.5 265.79 568.05 265.79 568.05 265.79 568.05 265.79 568.05 265.79 568.05 265.79 568.05 265.79 568.05 265.91 568.36 265.91 568.36 266.12 568.65 266.12 568.65 266.12 568.65 266.12 568.65 266.12 568.65 266.12 568.65 266.12 568.65 266.34 568.88 266.8 569.18 266.8 569.18 266.8 569.18 266.8 569.18 266.8 569.18 266.8 569.18 266.8 569.18 266.8 569.18 266.8 569.18 267.29 569.34 267.29 569.34 267.5 569.43 267.5 569.43 274.06 569.42 289.05 562.73 295.12 505.52"/>
    <path class="cls-13" d="M239.11,448.01v3.23l-.4.83-.84.41h-22.27s3.72-35.44,3.72-35.44l.48-.84.76-.4h17.37l.9.4.34.84v3.02h4.53v-3.02l.42-.84.82-.4h22.71l.86.44.43.8v3.02h5.02v-3.02l.43-.8.86-.44h15.16l.86.36.43.88v11.43l-.45.81-.85.43h-3.72v9.01h3.72l.87.41.43.82v11.27l-.43.81-.87.43h-15.26l-.88-.35-.42-.89v-3.07h-4.69v3.07l-.38.84-.86.4h-23.03l-.92-.39-.38-.85v-3.23h-4.48Z"/>
    <g>
      </g>
    <g>
      </g>
    <g>
      </g>
    <g>
      </g>
    <g>
      </g>
    <g>
      </g>
    <path class="cls-17" d="M142.35,389.38l5.18-5.39h0s21.46,20.77,21.46,20.77h0s-5.18,5.39-5.18,5.39h0s-7.5-7.28-7.5-7.28h0s-2.48,2.59-2.48,2.59h0s-10.73-10.36-10.73-10.36h0s2.54-2.59,2.54-2.59h0s-3.29-3.13-3.29-3.13h0Z"/>
    <g>
      </g>
    <g>
      <g>
        </g>
      <g>
        </g>
      <g>
        </g>
      <g>
        </g>
      <g>
        </g>
      </g>
    <g>
      </g>
    <g>
      <g>
        </g>
      <g>
        </g>
      <g>
        </g>
      <g>
        </g>
      <g>
        </g>
      <g>
        </g>
      <g>
        </g>
      <g>
        </g>
      <g>
        </g>
      <g>
        </g>
      <g>
        </g>
      <g>
        </g>
    </g>
    <path class="cls-13" d="M116.03,522.17v-4.42l16.34-6.74h0s0,23.36,0,23.36l-16.34-12.19Z"/>
    <g>
      </g>
    <g>
      </g>
    <g>
      </g>
    <g>
      </g>
    <g>
      </g>
    <g>
      </g>
    <g>
      </g>
    <g>
      </g>
    <g>
      <g>
        </g>
      <g>
        </g>
      <g>
        </g>
      <g>
        </g>
      <g>
        </g>
      <g>
        </g>
      <g>
        </g>
      <g>
        </g>
    </g>
    <g>
      <g>
        </g>
      <g>
        </g>
      <g>
        </g>
    </g>
    <g>
      </g>
    <g>
      </g>
    <g>
      </g>
    <path class="cls-13" d="M215,423.41l-2.27,21.52h-2.59v-21.52h4.86Z"/>
    <g>
      </g>
    <g>
      </g>
    <g>
      </g>
    <g>
      </g>
    <g>
      </g>
    <g>
      <g>
        </g>
      </g>
    <g>
      </g>
    <g>
      </g>
    <g>
      </g>
    <g>
      </g>
    <g>
      </g>
    <g>
      </g>
    <g>
      </g>
    <g>
      <path class="cls-13" d="M186.25,411.55l-3.07,3.13h0s-7.6-7.39-7.6-7.39l3.07-3.13h0s7.6,7.39,7.6,7.39h0Z"/>
      <path class="cls-13" d="M180.37,405.83l.86-.91h0s5.02,4.91,5.02,4.91h0s-.86.86-.86.86l-5.02-4.86Z"/>
    </g>
    <g>
      <path class="cls-13" d="M154.64,409.71l-3.93,4.1h0s-2.21-2.16-2.21-2.16h0s3.94-4.1,3.94-4.1h0s2.21,2.16,2.21,2.16h0Z"/>
      <g>
        </g>
      <path class="cls-13" d="M155.24,418.18l3.94-4.1s-3.13-3.02-3.13-3.02l-3.93,4.04h0s3.12,3.07,3.12,3.07h0Z"/>
    </g>
    <g id="_寮食堂" data-name="寮食堂">
      <path class="cls-13" d="M125.41,368.67l-11.11-10.46h0s4.04-4.21,4.04-4.21h0s-2.32-2.27-2.32-2.27h0s14.73-15.21,14.73-15.21h0s23.73,22.92,23.73,22.92h0s-10.3,10.68-10.3,10.68h0s-10.46-10.09-10.46-10.09h0s-8.3,8.63-8.3,8.63h0Z"/>
      <path class="cls-13" d="M124.06,371.8l3.94-4.05h0s3.77,3.67,3.77,3.67h0s4.26-4.37,4.26-4.37h0s6.26,6.04,6.26,6.04c0,0-8.14,8.41-8.14,8.41h0s-10.09-9.71-10.09-9.71h0Z"/>
    </g>
    <g id="_国際寮" data-name="国際寮">
      <path class="cls-13" d="M254.37,304.44l10.2,9.76h0s-26.11,27.34-26.11,27.34h0s-10.25-9.76-10.25-9.76h0s26.16-27.34,26.16-27.34h0Z"/>
    </g>
    <path class="cls-17" d="M259.76,326.61l1.35-1.3h0s-1.35-1.29-1.35-1.29h0s-1.3,1.29-1.3,1.29c0,0,1.3,1.3,1.3,1.3h0Z"/>
    <g>
      </g>
    <g>
      </g>
    <g>
      </g>
    </g>
  <g id="_08" data-name="08">
    <g>
      <path class="cls-18" d="M246.55,522.76h-4.64v16.77h4.64v-16.77h0Z"/>
      </g>
    <path class="cls-4" d="M270.33,492.34v53.88h0s-7.61,0-7.61,0h0v4.75h0s-48.54,0-48.54,0h0v-10.41h0s3.99,0,3.99,0h0v-69.04h0s11.76,0,11.76,0h0v74.7h0s22.49,0,22.49,0h0v-5.66h0s2.21,0,2.21,0h0v-8.68h0s-2.21,0-2.21,0h0v-25.3s2.21,0,2.21,0h0v-9.22s-2.21,0-2.21,0h0v-5.02h0s6.42,0,6.42,0h0v-3.45h0s-8.47,0-8.47,0h0v-26.05h0s19.96,0,19.96,0h0v26.05h0s-8.52,0-8.52,0h0v3.45h0s8.52,0,8.52,0Z"/>
    <path class="cls-4" d="M240.19,410.15v-14.29h0s32.74,0,32.74,0h0v14.29h0s-32.74,0-32.74,0h0Z"/>
    <path class="cls-4" d="M269.63,632.25v21.79h0s-19.14,0-19.14,0h0v-17.75h0s4.42,0,4.42,0h0s0-4.04,0-4.04h5.55s0-3.99,0-3.99h0s-9.98,0-9.98,0h0v-17.74h19.14s0,17.8,0,17.8h0-1.08v3.94h1.08,0Z"/>
    <path class="cls-18" d="M201.67,651.13h-7.82,0v-26.91h0s4.32,0,4.32,0l.15.03,2.12-.03h0,1.24v26.91Z"/>
    <path class="cls-4" d="M214.63,563.7h3.54v4.53h0s11.33,0,11.33,0c0,0,0,85.59,0,85.59h-11.33,0v-33.49h0s-26.48,0-26.48,0h0v33.49h0s-11.27,0-11.27,0h0v-85.59h0s11.27,0,11.27,0h0v40.39h0s26.48,0,26.48,0h0v-27.34h0s-3.56,0-3.56,0h0v-13.05h0s0-4.49,0-4.49l.02-.04Z"/>
    <path class="cls-4" d="M102.71,568.98v3.94h0s11.11,0,11.11,0v27.13h0s-18.5,0-18.5,0v-31.07h0s7.39,0,7.39,0Z"/>
    <path class="cls-4" d="M170.93,518.18h21.63v25.67h0s-13.37,0-13.37,0h0v3.61h0s-8.25,0-8.25,0v-29.29Z"/>
    <path class="cls-4" d="M161.28,569.15v26.32h0s-31.34,0-31.34,0h0v-26.32h0s10.95,0,10.95,0c0,0,0,4.42,0,4.42h0s4.1,0,4.1,0v-4.42h4.37,0s11.92,0,11.92,0"/>
    <g id="_機械工学科実験棟" data-name="機械工学科実験棟">
      <path class="cls-4" d="M96.02,652.53v-50.05h0s17.85,0,17.85,0h0v50.05h0s-17.85,0-17.85,0h0Z"/>
      <g>
        </g>
    </g>
    <path class="cls-18" d="M93.48,652.69h-4.91v-8.2h0s4.91,0,4.91,0h0v8.2h0Z"/>
    <g id="_実習工場" data-name="実習工場">
      <g>
        <path class="cls-4" d="M129.94,648v1.18h0s7.17,0,7.17,0c0,0,0-1.18,0-1.18h-7.17Z"/>
        <path class="cls-4" d="M158.63,648h-28.69v-47.79h0s28.69,0,28.69,0h0v47.79"/>
      </g>
      <g>
        </g>
    </g>
    <path class="cls-18" d="M125.9,628.15v9.65h0s-1.94,0-1.94,0h0v-9.65h0s1.94,0,1.94,0Z"/>
    <path class="cls-18" d="M122.45,567.69v28.21h0s6.52,0,6.52,0v-28.21h0s-6.52,0-6.52,0Z"/>
    <path class="cls-18" d="M146.66,648v2.37h0s3.83,0,3.83,0h8.14s0-2.37,0-2.37h-11.97Z"/>
    <path class="cls-18" d="M201.73,593.31h-6.26s0-24.43,0-24.43h0s5.02,0,5.02,0h1.24v24.43Z"/>
    <g>
      <path class="cls-18" d="M209.85,579.82l.02,12.3h0s-2.48,0-2.48,0h-1.89v-12.28s4.35-.02,4.35-.02Z"/>
      <path class="cls-18" d="M205.51,568.34v11.27s3.14-.02,3.14-.02v-11.27s-3.14.02-3.14.02Z"/>
    </g>
    <path class="cls-18" d="M199.63,600.27h-3.78v-3.77h0s3.78,0,3.78,0h0v3.77h0Z"/>
    <path class="cls-18" d="M172.6,591.96h4.75v-12.41s-4.75,0-4.75,0v12.41Z"/>
    <path class="cls-18" d="M173.2,610.89h4.86v-13.91h0s-4.86,0-4.86,0v13.91Z"/>
    <path class="cls-18" d="M172.6,631.12h4.75v-12.41h0s-4.75,0-4.75,0v12.41Z"/>
    <path class="cls-18" d="M204.8,646.6h4.05v-12.52h-4.05v12.52Z"/>
    <path class="cls-18" d="M205.67,624.11h6.47,0v8.47h0s-6.47,0-6.47,0h0v-8.47h0Z"/>
    <path class="cls-18" d="M218.18,625.08h-6.04v1.89h6.04v-1.89Z"/>
    <path class="cls-18" d="M207.07,657.11v-3.83h0s8.47,0,8.47,0h0v3.83h0s-8.47,0-8.47,0h0Z"/>
    <path class="cls-18" d="M241.91,463.38h4.37v14.99h0s-4.37,0-4.37,0h0v-14.99h0Z"/>
    <path class="cls-18" d="M243.21,509.82v-10.89h0s4.21,0,4.21,0v10.89h0s-4.21,0-4.21,0Z"/>
    <path class="cls-18" d="M246.98,517.96h-3.77v-6.52h3.77v6.52Z"/>
    <path class="cls-18" d="M245.9,531.34h-3.29,0v-7.34h0s3.29,0,3.29,0h0v7.34Z"/>
    <path class="cls-18" d="M231.93,494.07v-22.55h0s2.21,0,2.21,0c0,0,0,22.55,0,22.55h0s-2.21,0-2.21,0h0Z"/>
    <path class="cls-18" d="M216.08,495.69h-2.48v-11.86h0s2.48,0,2.48,0h0v11.86h0Z"/>
    <path class="cls-18" d="M213.92,535.65h-3.78v-11.92s3.78,0,3.78,0c0,0,0,11.92,0,11.92h0Z"/>
    <path class="cls-18" d="M213.92,522.49h-3.78v-20.06h3.78v20.06h0Z"/>
    <path class="cls-18" d="M212.68,550.97h-2.54s0-12.57,0-12.57h2.54s0,12.57,0,12.57Z"/>
    <g>
      <path class="cls-18" d="M233.39,469.04h-20.01,0v-4.53h0v-4.37h0s20.01,0,20.01,0h0v4.37h0s0,4.53,0,4.53h0Z"/>
      </g>
    <path class="cls-4" d="M140.84,534.36v-19.04h0s17.96,0,17.96,0h0v33.55h0s-18.45,0-18.45,0h0v-2.59h0s-10.73,0-10.73,0h-.04s-6.78,0-6.78,0h-.04s-23.62,0-23.62,0c0,0,0-24.11,0-24.11h0s30.96,0,30.96,0c0,0,0,12.19,0,12.19h0s10.73,0,10.73,0"/>
    <path class="cls-4" d="M129.62,546.28s0,2.75,0,2.75h-6.85v-2.75h6.85Z"/>
    <path class="cls-4" d="M145.64,392.51l-3.29-3.13h0s5.18-5.39,5.18-5.39h0s21.46,20.77,21.46,20.77h0s-5.18,5.39-5.18,5.39h0s-7.5-7.28-7.5-7.28h0s-2.48,2.59-2.48,2.59h0s-10.73-10.36-10.73-10.36h0s2.54-2.59,2.54-2.59h0Z"/>
    <path class="cls-18" d="M140.84,517.59h-2s0,13.43,0,13.43h2v-13.43Z"/>
    <path class="cls-18" d="M170.93,541.53h-12.13v2.48h12.13v-2.48Z"/>
    <g>
      <polygon class="cls-18" points="186.14 518.13 186.14 513.32 187.44 513.32 188.73 513.32 192.56 513.32 192.56 514.35 192.56 518.18 186.14 518.13"/>
      <path class="cls-18" d="M185.98,518.18v-5.07h-2.54v2.91h0s.65,0,.65,0h0v2.16h1.89Z"/>
    </g>
    <polyline class="cls-18" points="95.96 522.22 95.96 526.05 95.96 527.35 95.96 528.16 99.16 528.13 99.15 522.22 95.96 522.22"/>
    <g id="_ものづくり工房" data-name="ものづくり工房">
      <path class="cls-4" d="M196.44,500.49h-17.15v-12.95h0s17.15,0,17.15,0h0v12.95h0Z"/>
      <g>
        </g>
    </g>
    <path class="cls-18" d="M166.99,495.63h12.14v4.86h0s-12.14,0-12.14,0v-4.86h0Z"/>
    <g>
      <path class="cls-18" d="M183.88,506.64h-1.24v3.07l15.96-.13v-8.33h0s-14.72,0-14.72,0h0v5.39Z"/>
      </g>
    <path class="cls-18" d="M177.08,490.19h-1.89s0-1.89,0-1.89h1.89v1.89h0Z"/>
    <path class="cls-18" d="M196.17,477.3s0,6.36,0,6.36h-14.67v-6.36s14.67,0,14.67,0h0Z"/>
    <path class="cls-18" d="M201.03,475.79h-6.96v-21.68h0s1.83-5.34,1.83-5.34h0s5.12,0,5.12,0h0v27.02h0Z"/>
    <g id="_第1体育館" data-name="第1体育館">
      <path class="cls-4" d="M286.67,446.18h-60.3v-24.11h0s60.3,0,60.3,0c0,0,0,24.11,0,24.11h0Z"/>
      <g>
        </g>
    </g>
    <g id="_第2体育館" data-name="第2体育館">
      <path class="cls-4" d="M45.86,619.79v41.59h36.03s0-17.69,0-17.69h0s-1.57,0-1.57,0h0v-6.15h1.57s0-17.75,0-17.75h0s-36.03,0-36.03,0h0Z"/>
      <g>
        </g>
    </g>
    <path class="cls-18" d="M272.76,586.46v6.85s-3.18,0-3.18,0h0v-6.85h3.18Z"/>
    <g>
      <path class="cls-18" d="M276.81,661.7h-4.26,0s0-3.02,0-3.02h4.26,0s0,3.02,0,3.02Z"/>
      <path class="cls-18" d="M274.97,662.24l-.22.05h0v.32h.32l.03-.3h0l-.14-.08h0Z"/>
      <path class="cls-18" d="M273.08,661.21v-2.1h0s3.24,0,3.24,0h0v2.1h0s-3.24,0-3.24,0h0Z"/>
    </g>
  </g>
  <g id="_09" data-name="09">
    <path class="cls-4" d="M129.94,595.46v-26.32h0s10.95,0,10.95,0v4.42h0s4.1,0,4.1,0v-4.42h4.37,0s11.92,0,11.92,0h0v26.32h0s-31.34,0-31.34,0h0Z"/>
    <path class="cls-4" d="M113.81,572.92v27.13h0s-8.72,0-8.72,0c0,0,0,2.43,0,2.43l-.04-.27h-3.43l-.16.19v-2.43.08h-6.14v-31.07h0s7.39,0,7.39,0c0,0,0,3.94,0,3.94h0s11.11,0,11.11,0Z"/>
    <path class="cls-4" d="M99.15,546.28v-24.11h0s30.96,0,30.96,0c0,0,0,12.19,0,12.19h0s10.73,0,10.73,0v-19.04h0s17.96,0,17.96,0h0v33.55h0s-18.45,0-18.45,0h0v-2.59h0s-10.73,0-10.73,0h-.03s-6.78,0-6.78,0h-.04s-23.62,0-23.62,0Z"/>
    <rect class="cls-18" x="176.18" y="516.26" width="3.6" height="1.92"/>
    <path class="cls-4" d="M170.93,547.46v-29.29s21.63,0,21.63,0h0v25.67h0s-5.79,0-5.79,0l.02-.02v3.63h-7.6s0,0,0,0h-8.25Z"/>
    <path class="cls-4" d="M191.7,608.63h26.48v-27.34h0s-3.56,0-3.56,0h0v-13.05h14.89s0,85.59,0,85.59h-11.33,0v-33.49h0s-26.48,0-26.48,0h0v33.49h0s-11.27,0-11.27,0h0v-85.59h0s11.27,0,11.27,0h0v40.39h0Z"/>
    <path class="cls-4" d="M252.43,546.22v-5.66h0s2.21,0,2.21,0h0v-8.68h0s-2.21,0-2.21,0h0v-25.3s2.21,0,2.21,0h0v-9.22s-2.21,0-2.21,0h0v-5.02h0s6.42,0,6.42,0h0v-3.45h0s-8.47,0-8.47,0h0v-26.05h0s19.96,0,19.96,0h0v26.05h0s-8.52,0-8.52,0h0v3.45h0s8.52,0,8.52,0v53.88h0s-17.89.09-17.89.09l-.02-.09Z"/>
    <path class="cls-4" d="M230,550.86l-15.81.11h0v-10.41h0s3.99,0,3.99,0h0v-69.04h0s11.76,0,11.76,0h0v74.7h0s.07,4.63.07,4.63Z"/>
    <path class="cls-4" d="M250.49,654.04v-17.75h0s4.42,0,4.42,0l.13.08h5.39v-3.8l.03-.32v-3.99h0s-9.98,0-9.98,0h0v-17.74h19.14s0,17.8,0,17.8h0-1.08v3.94h1.08,0v21.79h0s-19.14,0-19.14,0h0Z"/>
    <path class="cls-4" d="M156.31,402.87l-2.48,2.59h0s-10.73-10.36-10.73-10.36h0s2.54-2.59,2.54-2.59h0s-3.29-3.13-3.29-3.13h0s5.18-5.39,5.18-5.39h0s21.46,20.77,21.46,20.77h0s-5.18,5.39-5.18,5.39h0s-7.5-7.28-7.5-7.28h0Z"/>
    <g>
      </g>
  </g>
  <g id="_10" data-name="10">
    <path class="cls-4" d="M130.11,529.64v16.56l-.11-.04-7.21.06-.03.05s-23.62,0-23.62,0v-16.65l.23.03h30.71s.02-.01.02-.01Z"/>
    <path class="cls-4" d="M95.32,568.98s7.39,0,7.39,0v3.94h0s11.11,0,11.11,0c0,0,0,27.13,0,27.13h0s-18.5,0-18.5,0v-31.07h0Z"/>
    <path class="cls-4" d="M142.07,581.35v13.92s0,.19,0,.19h-12.13v-26.32h0s10.95,0,10.95,0c0,0,0,4.42,0,4.42h0s4.1,0,4.1,0v-4.42h4.37,0s7.71,0,7.71,0v.31s0,2.25,0,2.25v2.47s4.16,0,4.16,0h.06v21.29h0s-16.25,0-16.25,0v-.19s.01-13.97.01-13.97h-2.98v.05Z"/>
    <path class="cls-4" d="M191.7,608.63h26.48v-27.34h0s-3.56,0-3.56,0h0v-13.05h14.89s0,85.59,0,85.59h-11.33,0v-33.49h0s-26.48,0-26.48,0h0v33.49h0s-11.27,0-11.27,0h0v-85.59h0s11.27,0,11.27,0h0v40.39h0Z"/>
    <polygon class="cls-4" points="180.21 569.45 177.74 569.45 177.51 569.41 177.51 575.38 177.74 575.36 180.21 575.36 180.35 575.33 180.35 569.35 180.21 569.45"/>
    <polygon class="cls-4" points="188.06 654 180.47 654 180.5 653.91 180.5 657.06 180.45 657.16 188.04 657.16 188.08 657.1 188.08 653.95 188.06 654"/>
    <polygon class="cls-4" points="218.43 654 226.02 654 225.98 654.08 225.98 657.23 218.39 657.23 218.39 654.08 218.43 654"/>
    <path class="cls-4" d="M260.47,636.38v-4.13s-.01-3.99-.01-3.99h0s-9.98,0-9.98,0h0v-17.74h19.14s0,17.8,0,17.8h0-1.08v3.94h1.08,0v21.79h0s-19.14,0-19.14,0h0v-17.75h0s4.42,0,4.42,0l.17.08h5.39Z"/>
    <path class="cls-4" d="M218.18,471.52h11.76,0v74.7h-.03v4.48l-15.72.27v-10.41h0s3.99,0,3.99,0h0v-69.04h0Z"/>
    <path class="cls-4" d="M270.33,546.22h-7.61.16s-10.47,0-10.47,0h0s0-5.66,0-5.66h0s2.21,0,2.21,0h0v-8.68h0s-2.21,0-2.21,0h0s0-25.3,0-25.3h2.21s0-9.22,0-9.22h-2.21v-5.02h0s6.42,0,6.42,0h0v-3.45h0s-8.47,0-8.47,0h0v-26.05h0s19.96,0,19.96,0h0v26.05h0s-8.52,0-8.52,0h0v3.45h0s8.52,0,8.52,0c0,0,0,53.88,0,53.88h0Z"/>
  </g>
  <g id="_11" data-name="11">
    <path class="cls-4" d="M144.99,573.57v-4.42h4.37,0s7.7,0,7.7,0v4.81l-.02.16h4.24v21.35h0s-16.28,0-16.28,0l.04-.25s0-16.2,0-16.2c0,0-2.96,0-2.96,0v16.2l-.02.25h-12.11v-26.32h0s10.95,0,10.95,0c0,0,0,4.42,0,4.42h0s4.1,0,4.1,0Z"/>
    <path class="cls-4" d="M113.81,600.05h-18.5v-31.07h0s7.39,0,7.39,0c0,0,0,3.94,0,3.94h0s11.11,0,11.11,0c0,0,0,27.13,0,27.13h0Z"/>
    <polygon class="cls-9" points="101.38 602.23 104.81 602.23 104.85 602.5 104.85 600.08 101.21 600 101.21 602.42 101.38 602.23"/>
    <path class="cls-4" d="M268.55,632.25h1.08,0v21.79h0s-19.14,0-19.14,0h0v-17.75h0s4.42,0,4.42,0l.3.07h5.39v-3.8l-.14-.31v-3.99h0s-9.98,0-9.98,0h0v-17.74h19.14s0,17.8,0,17.8h0-1.08v3.94Z"/>
    <path class="cls-4" d="M250.38,462.84h19.96,0v26.05h0s-8.52,0-8.52,0h0v3.45h0s8.52,0,8.52,0v53.88h0s-17.9,0-17.9,0h0v-5.66h0s2.21,0,2.21,0h0v-8.68h0s-2.21,0-2.21,0h0v-25.3s2.21,0,2.21,0h0v-9.22s-2.21,0-2.21,0h0v-5.02h0s6.42,0,6.42,0h0v-3.45h0s-8.47,0-8.47,0h0v-26.05h0Z"/>
    </g>
  <g id="frame">
    </g>
</svg>