<svg xmlns="http://www.w3.org/2000/svg" viewBox="0 0 470.53 710.52">
  <style>
      .cls-1 {
        fill: #616161;
      }

      .cls-1, .cls-2, .cls-3, .cls-4, .cls-5, .cls-6, .cls-7, .cls-8, .cls-9, .cls-10, .cls-11, .cls-12, .cls-13, .cls-14, .cls-15, .cls-16, .cls-17, .cls-18, .cls-19 {
        stroke: #323232;
        stroke-width: .25px;
      }

      .cls-1, .cls-2, .cls-3, .cls-4, .cls-5, .cls-6, .cls-8, .cls-10, .cls-11, .cls-12, .cls-13, .cls-15, .cls-16, .cls-17, .cls-18, .cls-19 {
        stroke-linecap: square;
      }

      .cls-1, .cls-2, .cls-3, .cls-8, .cls-10, .cls-13, .cls-14, .cls-18, .cls-19 {
        stroke-miterlimit: 10;
      }

      .cls-2, .cls-16 {
        fill: #626262;
      }

      .cls-3, .cls-7, .cls-14, .cls-15 {
        fill: none;
      }

      .cls-4, .cls-5, .cls-6, .cls-7, .cls-9, .cls-11, .cls-12, .cls-15, .cls-16, .cls-17 {
        stroke-linejoin: round;
      }

      .cls-4, .cls-9, .cls-18 {
        fill: #616161;
      }

      .cls-5 {
        fill: #E8E8E8;
      }

      .cls-6 {
        fill: #1B1B1B;
      }

      .cls-7, .cls-9 {
        stroke-linecap: round;
      }

      .cls-8, .cls-11 {
        fill: #DADADA;
      }

      .cls-10, .cls-12 {
        fill: #303030;
      }

      .cls-13, .cls-17 {
        fill: #717171;
      }

      .cls-19 {
        fill: #404040;
      }
    </style>
  <g id="_02" data-name="02">
    <path class="cls-19" d="M436.34,144.74l-32.69-21.54h0l-5.06,6.7h0s16.77,12.19,16.77,12.19h0s11.06,11.49,11.06,11.49l4.75-1.34,5.82-3.95,2.63-.53-3.28-3.03Z"/>
    <g>
      </g>
    <g>
      </g>
    <g>
      </g>
    <g>
      </g>
    <g>
      </g>
    <g>
      </g>
    <g>
      </g>
    <g>
      <g>
        </g>
      <path class="cls-19" d="M229.05,296.86l2.02,1.86,1.04.22.96-.38,6.8-7.01h0s-5.5-5.29-5.5-5.29l-3.18,3.34-36.57-35.33.51-.49-19.88-17.52-9.95-1.23-2.72,2.83-16.83,6.77-18.66,20.56-5.34,11.27.26,2.6,10.15,5.59,9.24,9.07,16.54-18.06,2.11-2.28,1.19,1.13,10.83-11.37,2.03,1.8,1.59-1.65.62.62.25.03,8.95-8.95,43.32,41.62.23.26-1.27-1.21"/>
      <g>
        </g>
      <path class="cls-19" d="M224.11,301.96l2.59,2.43.13.39-.13.53-.65.64-.42.19-.5-.19-3.83-3.67h0s1.57-1.56,1.57-1.56l1.24,1.24"/>
    </g>
    <g>
      <path class="cls-19" d="M246.66,296.94l20.39,19.52h0s-28.1,29.34-28.1,29.34h0s-20.39-19.52-20.39-19.52l28.1-29.34Z"/>
      <g>
        </g>
    </g>
  </g>
</svg>