<svg xmlns="http://www.w3.org/2000/svg" viewBox="0 0 470.53 710.52">
  <style>
      .cls-1 {
        fill: #616161;
      }

      .cls-1, .cls-2, .cls-3, .cls-4, .cls-5, .cls-6, .cls-7, .cls-8, .cls-9, .cls-10, .cls-11, .cls-12, .cls-13, .cls-14, .cls-15, .cls-16, .cls-17, .cls-18, .cls-19 {
        stroke: #323232;
        stroke-width: .25px;
      }

      .cls-1, .cls-2, .cls-3, .cls-4, .cls-5, .cls-6, .cls-8, .cls-10, .cls-11, .cls-12, .cls-13, .cls-15, .cls-16, .cls-17, .cls-18, .cls-19 {
        stroke-linecap: square;
      }

      .cls-1, .cls-2, .cls-3, .cls-8, .cls-10, .cls-13, .cls-14, .cls-18, .cls-19 {
        stroke-miterlimit: 10;
      }

      .cls-2, .cls-16 {
        fill: #626262;
      }

      .cls-3, .cls-7, .cls-14, .cls-15 {
        fill: none;
      }

      .cls-4, .cls-5, .cls-6, .cls-7, .cls-9, .cls-11, .cls-12, .cls-15, .cls-16, .cls-17 {
        stroke-linejoin: round;
      }

      .cls-4, .cls-9, .cls-18 {
        fill: #616161;
      }

      .cls-5 {
        fill: #E8E8E8;
      }

      .cls-6 {
        fill: #1B1B1B;
      }

      .cls-7, .cls-9 {
        stroke-linecap: round;
      }

      .cls-8, .cls-11 {
        fill: #DADADA;
      }

      .cls-10, .cls-12 {
        fill: #303030;
      }

      .cls-13, .cls-17 {
        fill: #717171;
      }

      .cls-19 {
        fill: #404040;
      }
    </style>
  <g id="_03" data-name="03">
    <path class="cls-8" d="M163.22,316.36l43.28,41.34h.03s-1.79,1.87-1.79,1.87l-.02-.02-43.77-42.37-16.68,17.27.02.05,11.38,10.84,1.08-1.08,2.32,2.27-1.03,1.08h0s20.44,19.74,20.44,19.74h0s1.08-1.08,1.08-1.08l2.11,2-1.08,1.13h0s14.67,14.13,14.67,14.13h0s16.56-17.15,16.56-17.15h0s-5.77-5.55-5.77-5.55v-.02s1.79-1.84,1.79-1.84h-.01s5.83,5.58,5.83,5.58h0s12.62-13.11,12.62-13.11l-.11-5.29h0s-15.16-14.62-15.16-14.62h0s-.11-4.86-.11-4.86h0s-29.77-28.75-29.77-28.75h0s-5.61,5.82-5.61,5.82l-.05-.05-2.56-2.53h0l5.64-5.77h0s-20.5-19.77-20.5-19.77v.03s-5.6,5.77-5.6,5.77l-9.77,9.33,3.62,3.5h0s-2.8,2.91-2.8,2.91h0s17.12,16.77,17.12,16.77h0l2.94-3.02,2.54,2.43-2.86,3.02"/>
    <path class="cls-8" d="M174.08,264.94l1.59-1.65h0s.81.75.81.75l.05-.05,40.83,39.37h0s-.37.48-.37.48h.05s1.73,1.51,1.73,1.51l.95,2.75.04,2.63-.6,2.1-1.81,2.01-43.26-49.91Z"/>
    <path class="cls-8" d="M186.25,255.41l41.59,40.13h0s-4.96,5.18-4.96,5.18h0s-41.59-40.18-41.59-40.18l4.96-5.12h0Z"/>
    <g>
      <g>
        </g>
      <g>
        </g>
      </g>
    <g>
      <g>
        </g>
      <g>
        </g>
      <g>
        </g>
      <g>
        </g>
      <g>
        </g>
    </g>
    <g>
      <path class="cls-8" d="M158.03,275.61l-2.04-1.97"/>
      </g>
    <g>
      <g>
        </g>
      <g>
        </g>
      <g>
        </g>
      </g>
    <g>
      <path class="cls-8" d="M174.05,264.99l44.05,42.49.55,2.61-.37,2.28-.52,1.62-.67,1.08-1.18.04h0s-2.37-2.27-2.37-2.27l-1.29-1.19-4.86,5.07,1.21,1.13h0l2.67,2.75h0s-.86.86-.86.86h0s.05,1.13.05,1.13h0s-.27.27-.27.27l-47.62-46.01h0s11.51-11.94,11.51-11.94l-.04.05Z"/>
      </g>
    <g>
      <path class="cls-8" d="M137.92,336.11l-1.13,1.17"/>
      <path class="cls-8" d="M140.19,333.78l-11.49-10.95,16.68-20.62,13.04,12.64-20.5,21.26-3.37-3.17-1.04,1.04-6.57-6.42-2.82,2.85,2.96,2.93-16.39,16.61-24.48-18.66-2.63,3.22-15.18-8.16-5.38-4.24.73-4.79,58.22-38.1,10.18,5.42,9.24,9.07-2.17,2.53,5.83,5.91"/>
    </g>
    <g id="_課外活動棟2" data-name="課外活動棟2">
      <path class="cls-8" d="M156.26,257.41l15.37-15.91h0s5.93,5.71,5.93,5.71c0,0-15.43,15.91-15.43,15.91l-5.88-5.71h0Z"/>
      </g>
    <path class="cls-8" d="M154.75,263.66l2.16,2.1h0s1.89-1.94,1.89-1.94h0s-2.16-2.1-2.16-2.1h0l-1.89,1.94Z"/>
    <path class="cls-8" d="M150.6,272.83l-2.05,2.16h0s2.91,2.8,2.91,2.8l2.1-2.1h0s-2.96-2.86-2.96-2.86h0Z"/>
    <path class="cls-8" d="M152.43,260.64l1.35,1.3h0s1.35-1.35,1.35-1.35h0s-1.35-1.35-1.35-1.35h0s-1.35,1.4-1.35,1.4Z"/>
    <path class="cls-8" d="M231.18,289.61l-36.57-35.33h0s3.23-3.29,3.23-3.29h0s36.51,35.27,36.51,35.27h0s-3.18,3.34-3.18,3.34h0Z"/>
    <path class="cls-11" d="M271.52,317.6l2.96-3.34h0s-2.54-2.21-2.54-2.21v-.05l-2.96,3.29h0s2.54,2.32,2.54,2.32Z"/>
  </g>
</svg>