<svg xmlns="http://www.w3.org/2000/svg" viewBox="0 0 470.53 710.52">
  <style>
      .cls-1 {
        fill: #616161;
      }

      .cls-1, .cls-2, .cls-3, .cls-4, .cls-5, .cls-6, .cls-7, .cls-8, .cls-9, .cls-10, .cls-11, .cls-12, .cls-13, .cls-14, .cls-15, .cls-16, .cls-17, .cls-18, .cls-19 {
        stroke: #323232;
        stroke-width: .25px;
      }

      .cls-1, .cls-2, .cls-3, .cls-4, .cls-5, .cls-6, .cls-8, .cls-10, .cls-11, .cls-12, .cls-13, .cls-15, .cls-16, .cls-17, .cls-18, .cls-19 {
        stroke-linecap: square;
      }

      .cls-1, .cls-2, .cls-3, .cls-8, .cls-10, .cls-13, .cls-14, .cls-18, .cls-19 {
        stroke-miterlimit: 10;
      }

      .cls-2, .cls-16 {
        fill: #626262;
      }

      .cls-3, .cls-7, .cls-14, .cls-15 {
        fill: none;
      }

      .cls-4, .cls-5, .cls-6, .cls-7, .cls-9, .cls-11, .cls-12, .cls-15, .cls-16, .cls-17 {
        stroke-linejoin: round;
      }

      .cls-4, .cls-9, .cls-18 {
        fill: #616161;
      }

      .cls-5 {
        fill: #E8E8E8;
      }

      .cls-6 {
        fill: #1B1B1B;
      }

      .cls-7, .cls-9 {
        stroke-linecap: round;
      }

      .cls-8, .cls-11 {
        fill: #DADADA;
      }

      .cls-10, .cls-12 {
        fill: #303030;
      }

      .cls-13, .cls-17 {
        fill: #717171;
      }

      .cls-19 {
        fill: #404040;
      }
    </style>
  <g id="_04" data-name="04">
    <g>
      <path class="cls-2" d="M134.79,283.13l9.39-9.71h0s63.43,61.21,63.43,61.21h0s-9.38,9.71-9.38,9.71l-63.43-61.21h0Z"/>
      </g>
    <path class="cls-2" d="M181.29,260.54l41.59,40.18h0s4.96-5.18,4.96-5.18h0s-41.59-40.13-41.59-40.13h0s-4.96,5.12-4.96,5.12Z"/>
    <path class="cls-2" d="M107.29,325.15l-11.65-11.27h0s5.5-5.72,5.5-5.72h0s20.55,19.85,20.55,19.85h0s-2.96,3.08-2.96,3.08h0s2.48,2.37,2.48,2.37v.05s-3.23,3.29-3.23,3.29h0s-2.48-2.43-2.48-2.43h0s-3.61,3.77-3.61,3.77h0s-2.37-2.27-2.37-2.27h0s1.35-1.4,1.35-1.4h0s-6.47-6.25-6.47-6.25h0s2.91-3.07,2.91-3.07h0Z"/>
    <path class="cls-2" d="M149.63,333.94l7.07-7.33h0s8.68,8.36,8.68,8.36h0s1.73-1.78,1.73-1.78h0s5.88,5.66,5.88,5.66h0s-1.73,1.78-1.73,1.78h0s13.54,13.11,13.54,13.11h0s1.73-1.78,1.73-1.78h0s5.87,5.61,5.87,5.61h0s-1.72,1.78-1.72,1.78h0s8.68,8.41,8.68,8.41h0s-7.12,7.39-7.12,7.39h0s-8.63-8.36-8.63-8.36h0s-1.73,1.73-1.73,1.73h0s-2.64-2.59-2.64-2.59h0s1.67-1.78,1.67-1.78h0s-19.96-19.25-19.96-19.25h0s-1.67,1.73-1.67,1.73h0s-2.7-2.59-2.7-2.59h0s1.67-1.73,1.67-1.73h0s-8.63-8.36-8.63-8.36h0Z"/>
    <path class="cls-2" d="M155.72,315.71l-14.83,15.37h0s-8.31-8.04-8.31-8.04h0s14.83-15.37,14.83-15.37h0s8.31,8.04,8.31,8.04h0Z"/>
    <g id="_寮D棟" data-name="寮D棟">
      <path class="cls-16" d="M200.92,347.75l10.25-10.68h-.05s12.4,11.92,12.4,11.92h0s-10.25,10.68-10.25,10.68h0s-12.35-11.92-12.35-11.92h0Z"/>
      <g>
        </g>
    </g>
    <g id="_寮F棟" data-name="寮F棟">
      <path class="cls-2" d="M165.76,276.61l4.96-5.12h0s41.58,40.18,41.58,40.18h0s-4.96,5.13-4.96,5.13h0s-41.58-40.18-41.58-40.18h0Z"/>
    </g>
  </g>
</svg>