<svg xmlns="http://www.w3.org/2000/svg" viewBox="0 0 470.53 710.52">
  <style>
      .cls-1 {
        fill: #616161;
      }

      .cls-1, .cls-2, .cls-3, .cls-4, .cls-5, .cls-6, .cls-7, .cls-8, .cls-9, .cls-10, .cls-11, .cls-12, .cls-13, .cls-14, .cls-15, .cls-16, .cls-17, .cls-18, .cls-19 {
        stroke: #323232;
        stroke-width: .25px;
      }

      .cls-1, .cls-2, .cls-3, .cls-4, .cls-5, .cls-6, .cls-8, .cls-10, .cls-11, .cls-12, .cls-13, .cls-15, .cls-16, .cls-17, .cls-18, .cls-19 {
        stroke-linecap: square;
      }

      .cls-1, .cls-2, .cls-3, .cls-8, .cls-10, .cls-13, .cls-14, .cls-18, .cls-19 {
        stroke-miterlimit: 10;
      }

      .cls-2, .cls-16 {
        fill: #626262;
      }

      .cls-3, .cls-7, .cls-14, .cls-15 {
        fill: none;
      }

      .cls-4, .cls-5, .cls-6, .cls-7, .cls-9, .cls-11, .cls-12, .cls-15, .cls-16, .cls-17 {
        stroke-linejoin: round;
      }

      .cls-4, .cls-9, .cls-18 {
        fill: #616161;
      }

      .cls-5 {
        fill: #E8E8E8;
      }

      .cls-6 {
        fill: #1B1B1B;
      }

      .cls-7, .cls-9 {
        stroke-linecap: round;
      }

      .cls-8, .cls-11 {
        fill: #DADADA;
      }

      .cls-10, .cls-12 {
        fill: #303030;
      }

      .cls-13, .cls-17 {
        fill: #717171;
      }

      .cls-19 {
        fill: #404040;
      }
    </style>
  <g id="_05" data-name="05">
    <polyline class="cls-6" points="428.37 204.88 426.56 197.91 424.37 197.32"/>
    <polygon class="cls-6" points="469.83 82.49 438.22 150.39 369.73 226.69 299.3 290.88 198.42 394.25 189.51 403.27 .37 544.93 .47 709.22 469.64 710.39 469.83 82.49"/>
    <polygon class="cls-6" points="195.39 391.26 238.03 347.08 218.17 327.81 218.07 322.45 221.18 319.16 217.09 315.05 215.88 315.05 212.22 311.72 207.39 316.7 211.27 320.7 210.41 321.48 210.47 322.61 210.2 322.88 162.58 276.93 173.92 265 172.01 263.21 161.26 274.55 160.2 273.53 158.15 275.65 178.54 295.38 172.93 301.04 175.53 303.78 181.12 297.78 187.6 304.11 210.9 326.66 211.03 331.46 226.16 346.13 226.27 351.41 213.61 364.48 207.76 359.03 206 360.75 211.67 366.4 195.28 383.58 180.39 369.38 181.49 368.25 179.55 366.34 178.53 367.26 158.08 347.47 158.91 346.54 156.66 344.25 155.69 345.22 144.27 334.49 161 317.03 204.71 359.56 206.47 357.71 163.15 316.25 165.93 313.27 163.49 310.83 160.61 313.86 143.49 297.17 146.12 294.3 143.54 291.73 139.25 296.17 158.12 315.17 138.95 335.07 141.38 337.45 142.61 336.2 156.95 350 155.78 351.08 157.59 353.12 158.71 351.81 192.51 384.2 193.05 385.32 192.76 386.3 182.12 397.32 170.27 395.08 153.64 378.93 162.32 370 154.47 362.3 133.98 383.61 131.39 383.42 122.08 372 113.83 358.49 110.51 350 86.22 331.37 83.69 334.49 105.73 351.91 106.47 353.37 119.25 373.95 131 388.39 132.95 388.88 135.39 388.73 138.81 387.56 145.78 380.3 150.56 381.08 168.37 398.44 189.39 403.32 198.42 394.25 195.39 391.26"/>
  </g>
</svg>