<svg xmlns="http://www.w3.org/2000/svg" viewBox="0 0 470.53 710.52">
  <style>
      .cls-1 {
        fill: #616161;
      }

      .cls-1, .cls-2, .cls-3, .cls-4, .cls-5, .cls-6, .cls-7, .cls-8, .cls-9, .cls-10, .cls-11, .cls-12, .cls-13, .cls-14, .cls-15, .cls-16, .cls-17, .cls-18, .cls-19 {
        stroke: #323232;
        stroke-width: .25px;
      }

      .cls-1, .cls-2, .cls-3, .cls-4, .cls-5, .cls-6, .cls-8, .cls-10, .cls-11, .cls-12, .cls-13, .cls-15, .cls-16, .cls-17, .cls-18, .cls-19 {
        stroke-linecap: square;
      }

      .cls-1, .cls-2, .cls-3, .cls-8, .cls-10, .cls-13, .cls-14, .cls-18, .cls-19 {
        stroke-miterlimit: 10;
      }

      .cls-2, .cls-16 {
        fill: #626262;
      }

      .cls-3, .cls-7, .cls-14, .cls-15 {
        fill: none;
      }

      .cls-4, .cls-5, .cls-6, .cls-7, .cls-9, .cls-11, .cls-12, .cls-15, .cls-16, .cls-17 {
        stroke-linejoin: round;
      }

      .cls-4, .cls-9, .cls-18 {
        fill: #616161;
      }

      .cls-5 {
        fill: #E8E8E8;
      }

      .cls-6 {
        fill: #1B1B1B;
      }

      .cls-7, .cls-9 {
        stroke-linecap: round;
      }

      .cls-8, .cls-11 {
        fill: #DADADA;
      }

      .cls-10, .cls-12 {
        fill: #303030;
      }

      .cls-13, .cls-17 {
        fill: #717171;
      }

      .cls-19 {
        fill: #404040;
      }
    </style>
  <g id="_06" data-name="06">
    <path class="cls-12" d="M.21,674.7h282.69,0s4.32,3.4,4.32,3.4h0s2.96,32.09,2.96,32.09H.18s.03-35.49.03-35.49Z"/>
    <path class="cls-12" d="M311.24,506.93l-3.37,2.38c-.17.38-.33.76-.5,1.15l-.26.98h0s-6.36,59.6-6.36,59.6l-2.7,23.68-.75,26.91,1.64,55.07,4.15,33.49h167.12s.19-209.94.19-209.94l-159.16,6.68Z"/>
    <path class="cls-10" d="M186.25,255.41l41.59,40.13h0s-4.96,5.18-4.96,5.18h0s-41.59-40.18-41.59-40.18l4.96-5.12h0Z"/>
    <path class="cls-12" d="M325.08,428.92l-16.73,69.2-.09.88.18,1.2h0l.2.76.68,1.02h0l.78.87,1.08.63h0l1.54.47,157.48-7.14v-94.51s-50.9-151.25-50.9-151.25h0s-30.31,5.61-30.31,5.61c0,0-36.03,79.45-36.03,79.45,0,0-15.64,45.52-15.64,45.52,0,0-6.96,24.16-6.96,24.16l-5.71,24.92-16.39,68.3h0l.18,1.2h0l.88,1.78h0l1.85,1.5h0l1.54.47h0"/>
    <path class="cls-12" d="M436.02,204.01l-4.86,3.07h0s-2.7-2.27-2.7-2.27h0s-1.89-7.07-1.89-7.07h0s-2.21-.48-2.21-.48h0s12.68-20.39,12.68-20.39h0s9.44-12.89,9.44-12.89h0s3.07-4.59,3.07-4.59l.11-.16,20.52-39.48-.05,66.96-34.11,17.28Z"/>
    <path class="cls-12" d="M428.2,229.9l3.29,16.61,38.78,116.73-.11-168.01-34.09,17.84s-3.02,1.29-3.02,1.29c0,0-4.85,15.53-4.85,15.53Z"/>
    <g>
      <path class="cls-12" d="M255.48,368.6l-1.27-1.16h0s-59.71,59.92-59.71,59.92v.05s-39.96,46.49-39.96,46.49l-51.72,35.7.43-.21-77.29,35.81-.16.11-22.57,9.56-.02.04,16.77-.05h20.5s0,.86,0,.86v112.72h242.43s3.13-4.21,3.13-4.21l-.16-6.37-.05-1.29-.05-1.29-.05-1.3-.16-6.36-.05-1.29v-1.3l-.05-1.29-.21-6.36v-1.3s-.05-1.29-.05-1.29l-.05-1.29-.16-6.37-.05-1.29v-1.29l-.05-1.3-.05-1.56s.16-6.37.16-6.37l.05-1.29.05-1.29v-1.3s.16-6.36.16-6.36l.05-1.29.05-1.3v-1.29s.22-6.36.22-6.36v-.97s.7-6.36.7-6.36l.16-1.29.16-1.3.16-1.29.7-6.36.16-1.3.16-1.29.11-1.3.76-6.36.11-1.29.16-1.3.16-1.29.59-5.23-.11.11.11-1.13.16-1.29.11-1.29.16-1.3.7-6.36.11-1.29.16-1.3.11-1.29.7-6.36.16-1.3.11-1.29.16-1.29.65-6.37.16-1.29.11-1.29.16-1.3.7-6.36.11-1.29.16-1.3.11-1.29.7-6.36s1.13-5.66,1.13-5.66l.21-1.3.27-1.29.27-1.29,1.24-6.37.27-1.29.21-1.29.27-1.3,1.24-6.36.27-1.29.27-1.3.21-1.29,1.3-6.36.21-1.3.27-1.29.27-1.29s1.24-6.37,1.24-6.37l.27-.97.32-1.3.38-1.29,2.05-7.66.32-1.13.32-1.3.38-1.29.38-1.3,1.72-6.36.38-1.29.32-1.3.38-1.29,1.78-6.36.32-1.3.38-1.29.32-1.29,1.78-6.37,11.16-38.67h0s10.95-32.25,10.95-32.25h0s10.03-26.86,10.03-26.86h0s15.32-34.57,15.32-34.57h0s16.66-33.5,16.66-33.5h0s-6.31-8.3-6.31-8.3h0s-17.8,11.65-17.8,11.65h0s-100.66,115.24-100.66,115.24"/>
      <path class="cls-12" d="M315.31,415.27l-1.29-.92-1.3-.92-6.36-4.48-1.29-.92-1.3-.97-1.29-.92-6.36-4.48-1.3-.92-1.29-.91-1.29-.92-6.37-4.53-1.29-.92-1.29-.91-1.3-.92-6.36-4.53s-.92-.86-.92-.86l-1.29-1.18-1.29-1.19-1.3-1.19-6.36-5.82-1.29-1.19-1.3-1.19-1.29-1.24-5.09-4.66h0"/>
    </g>
    <g>
      </g>
    <g>
      </g>
    <g>
      </g>
    <g>
      </g>
    <g>
      </g>
    <g>
      </g>
    <g>
      <path class="cls-10" d="M154.45,362.23l-1.37-1.32"/>
      <path class="cls-10" d="M113.87,358.64l-3.13-8.52h0s10.2-10.52,10.2-10.52l6.29-6.29h-.02s-3.04-2.93-3.04-2.93l.03.02,2.73-2.83,6.57,6.46h0s1.02-1.07,1.02-1.07h0s3.34,3.18,3.34,3.18l1.08-1.08,2.43,2.37,1.19-1.19,14.34,13.75h0s-1.23,1.27-1.23,1.27v.02s1.88,1.84,1.88,1.84h.01s1.23-1.3,1.23-1.3h0s33.93,32.78,33.93,32.78l.21.52.02.35-.1.4-.31.56-10.61,10.86h0s-11.65-2.27-11.65-2.27l-16.61-16.07h0s8.79-9.01,8.79-9.01h0s-8.01-7.73-8.01-7.73l-.02.02-20.55,21.25h0s-2.37-.05-2.37-.05h0s-9.22-11.32-9.22-11.32l-8.41-13.48h0Z"/>
      <path class="cls-10" d="M153.56,353.46l2.11-2.18"/>
      <path class="cls-10" d="M136.79,337.28l-3.3-3.24"/>
      </g>
    <g>
      </g>
    <g>
      </g>
    <g>
      </g>
    <g>
      </g>
    <g>
      <path class="cls-12" d="M470.28.34l-.12,101.13-26.04,46.34-4.41-.14-21-19.86-12.35-10.57h0s-64.45-55.66-64.45-55.66l.05.05-22.71-10.73.16-.32,9.6-15.64h0s2.21-27.24,2.21-27.24h0s-9.55-.81-9.55-.81l.07-6.66,148.54.13"/>
    </g>
    <path class="cls-12" d="M.17,545.67l21.2-10.29h0l77.34-35.81h0s47.09-31.01,47.09-31.01h0l37.54-42.29h0s-.27-3.67-.27-3.67l9.82-11.81.27-3.83-.21-.21-3.45-3.34h0s-21.09-4.8-21.09-4.8l-18.07-17.47h0s-4.42-.81-4.42-.81l-7.13,7.34h-.09s-3.35,1.08-3.35,1.08h0s-2.37.16-2.37.16l-1.94-.43h0s-11.76-14.45-11.76-14.45h0s-12.57-20.06-12.57-20.06h0s-.97-1.94-.97-1.94h0s-22.22-17.37-22.22-17.37h0s-15-8.31-15-8.31l-5.5-4.26.75-4.7h0s-14.13,2.32-14.13,2.32h0s-15.7,1.84-15.7,1.84h0s-12.51.89-12.51.89l-21.3.18.05,223.07Z"/>
    <path class="cls-12" d="M201.62,398.77l1.02-1.03s-.48-.48-.48-.48l-.97,1.08.43.43"/>
    <path class="cls-12" d="M199.68,399.85l.54.43s-1.03,1.08-1.03,1.08l-.48-.48s.97-1.02.97-1.02Z"/>
    <path class="cls-12" d="M194.45,406.21l-.97,1.08s-.49-.48-.49-.48c0,0,.97-1.03.97-1.03,0,0,.48.43.48.43Z"/>
    <path class="cls-12" d="M264.28,326.18l-3.49-3.19-22.65,24.11-42.66,44.17h0s6.47,6.26,6.47,6.26l.43-.05.27.27,2.91.38.22.05,1.81.63h0l.4.18h0l1.25-.07h0l.69-.39h0l129.23-142.63h0s32.3-26.64,32.3-26.64h0s1.67.76,1.67.76h0s29.72-11,29.72-11h0s11.27-26,11.27-26h0s3.77-2.32,3.77-2.32l3.07-6.69h0s.43-4.04.43-4.04h0s11.81-19.2,11.81-19.2h0s4.31-2.7,4.31-2.7h0s3.02-4.58,3.02-4.58l3.51-5.56-3.83-.21-3.24.59-5.66,3.94-5.02,1.62-.1.05-13.64,21.64-.16.27-3.94,6.39-.08.09-33.53,32.18-39.43,32.04"/>
    <path class="cls-12" d="M267.69,329.3l-3.39-3.1-.02-.02"/>
    <g>
      <path class="cls-12" d="M264.35,326.23l-6.42,7.77-8.36,11.11h0s-45.2,50.11-45.2,50.11h0s-2,2.27-2,2.27"/>
      <path class="cls-12" d="M266.29,323.85l69.14-77.34"/>
    </g>
  </g>
</svg>