<svg xmlns="http://www.w3.org/2000/svg" viewBox="0 0 470.53 710.52">
  <style>
      .cls-1 {
        fill: #616161;
      }

      .cls-1, .cls-2, .cls-3, .cls-4, .cls-5, .cls-6, .cls-7, .cls-8, .cls-9, .cls-10, .cls-11, .cls-12, .cls-13, .cls-14, .cls-15, .cls-16, .cls-17, .cls-18, .cls-19 {
        stroke: #323232;
        stroke-width: .25px;
      }

      .cls-1, .cls-2, .cls-3, .cls-4, .cls-5, .cls-6, .cls-8, .cls-10, .cls-11, .cls-12, .cls-13, .cls-15, .cls-16, .cls-17, .cls-18, .cls-19 {
        stroke-linecap: square;
      }

      .cls-1, .cls-2, .cls-3, .cls-8, .cls-10, .cls-13, .cls-14, .cls-18, .cls-19 {
        stroke-miterlimit: 10;
      }

      .cls-2, .cls-16 {
        fill: #626262;
      }

      .cls-3, .cls-7, .cls-14, .cls-15 {
        fill: none;
      }

      .cls-4, .cls-5, .cls-6, .cls-7, .cls-9, .cls-11, .cls-12, .cls-15, .cls-16, .cls-17 {
        stroke-linejoin: round;
      }

      .cls-4, .cls-9, .cls-18 {
        fill: #616161;
      }

      .cls-5 {
        fill: #E8E8E8;
      }

      .cls-6 {
        fill: #1B1B1B;
      }

      .cls-7, .cls-9 {
        stroke-linecap: round;
      }

      .cls-8, .cls-11 {
        fill: #DADADA;
      }

      .cls-10, .cls-12 {
        fill: #303030;
      }

      .cls-13, .cls-17 {
        fill: #717171;
      }

      .cls-19 {
        fill: #404040;
      }
    </style>
  <g id="_07" data-name="07">
    <g>
      <path class="cls-17" d="M274.33,389.6l-20.01-18.23h0s-41.37,43.74-41.37,43.74h0s-.92,8.14-.92,8.14l-.06.16h2.22,0,.81s.81-7.66.81-7.66h0s3.67-3.72,3.67-3.72h0s77.18,0,77.18,0l.93.37.36.93v38.51h0s2.32,0,2.32,0h0s0-4.15,0-4.15l4.53-1.57h0s8.3-28.96,8.3-28.96l-39.05-27.78"/>
      </g>
    <path class="cls-13" d="M117.43,652.53h-20.39v4.59h0s-7.93,0-7.93,0h0l-.97-1.02h0s0-13.92,0-13.92l.46-.89.79-.35h3.23s0-76.43,0-76.43l.47-.89.77-.41h22.33l.87.43.36.86v88.02"/>
    <path class="cls-13" d="M166.4,586.41h-5.12v-3.51s5.12,0,5.12,0h0v-18.5l-.37-.77-.77-.42-41.85.05-.68.4-.29.84v31.39h0s1.18,13.86,1.18,13.86h6.31v3.61h-6.31v10.73h0s3.94,0,3.94,0v3.56s-3.94,0-3.94,0c0,0,0,10.79,0,10.79h0s3.94,0,3.94,0c0,0,0,6.58,0,6.58h-3.94v5.93h42.77v-5.93h-7.77v-16.12h7.77v-15.54h0s-7.77,0-7.77,0v-3.61h7.77s0-9.55,0-9.55c0,0-7.77,0-7.77,0h0s0-4.75,0-4.75h7.77,0s0-9.06,0-9.06"/>
    <path class="cls-13" d="M161.12,513.11l-16.72-4.26h0s-5.93.7-5.93.7v24.81l-24.65,14.67s0,3.56,0,3.56h0v3.13h0s65.21,0,65.21,0h21.25l1.69-.75.68-1.57v-38.4l-.53-1.35-1.36-.53h-39.64"/>
    <polygon class="cls-17" points="245.31 668.44 242.56 663.96 242.4 662.99 242.4 633.44 242.34 633.44 242.34 633.27 242.4 633.22 242.4 632.84 242.45 632.79 242.45 632.57 242.5 632.52 242.5 632.41 242.56 632.36 242.56 632.2 242.61 632.14 242.61 632.04 242.67 631.98 242.67 631.93 242.72 631.87 242.72 631.77 242.77 631.71 242.77 631.66 242.83 631.6 242.83 631.55 242.88 631.5 242.88 631.44 242.99 631.33 242.99 631.28 243.04 631.23 243.04 631.17 243.15 631.06 243.15 631.01 243.21 630.96 243.26 630.9 243.31 630.85 243.31 630.79 243.37 630.74 243.42 630.69 243.53 630.58 243.53 630.52 243.85 630.2 243.9 630.2 243.96 630.14 244.01 630.09 244.12 629.98 244.17 629.93 244.23 629.93 244.28 629.88 244.34 629.82 244.39 629.82 244.44 629.77 244.5 629.71 244.55 629.71 244.61 629.66 244.66 629.66 244.71 629.61 244.77 629.55 244.82 629.55 244.88 629.5 244.93 629.5 244.99 629.45 245.04 629.45 245.09 629.39 245.2 629.39 245.26 629.34 245.31 629.34 245.36 629.29 245.47 629.29 245.53 629.23 245.63 629.23 245.69 629.18 245.85 629.18 245.9 629.12 246.06 629.12 246.12 629.07 246.39 629.07 247.09 629.02 247.14 607.01 247.14 607.22 247.14 606.63 247.2 606.58 247.2 606.31 247.25 606.25 247.25 606.14 247.3 606.09 247.3 605.98 247.36 605.93 247.36 605.88 247.41 605.82 247.41 605.77 247.47 605.71 247.47 605.66 247.52 605.61 247.57 605.55 247.57 605.5 247.74 605.34 247.79 605.28 247.84 605.23 248.11 604.96 248.17 604.96 248.28 604.85 248.33 604.85 248.38 604.8 248.44 604.8 248.49 604.74 248.54 604.74 248.6 604.69 248.71 604.69 248.76 604.64 248.87 604.64 248.92 604.58 249.14 604.58 249.19 604.53 249.51 604.53 249.51 604.53 265.64 604.53 265.64 583.39 265.69 583.39 265.69 583.12 265.75 583.06 265.75 582.9 265.8 582.85 265.8 582.74 265.86 582.68 265.86 582.58 265.91 582.52 265.91 582.47 265.97 582.41 266.02 582.36 266.02 582.3 266.07 582.25 266.24 582.09 266.24 582.04 266.29 582.04 266.34 581.98 266.51 581.82 266.56 581.82 266.61 581.77 266.67 581.71 266.72 581.71 266.78 581.66 266.83 581.66 266.88 581.61 266.99 581.61 267.04 581.55 267.26 581.55 267.31 581.5 267.58 581.5 267.58 581.45 273.57 581.45 286.09 588.68 285.53 593.82 284.78 621.64 285.98 664.25 282.86 668.34 245.31 668.44"/>
    <polygon class="cls-13" points="234.63 656.93 234.04 657.11 206.1 657.11 205.22 656.76 204.8 655.88 201.67 655.88 201.27 656.69 200.44 657.11 173.9 657.11 173.06 656.86 172.71 655.93 172.71 637.75 180.42 637.75 180.42 634.03 172.71 634.03 172.71 634.03 172.71 617.26 172.71 617.26 180.42 617.26 180.42 614.13 172.71 614.13 172.71 614.13 172.71 575.62 176.49 575.62 176.49 572.92 176.49 572.92 177.57 572.92 177.57 569.36 177.57 569.36 172.71 569.36 172.71 569.36 172.71 564.4 172.69 564.11 172.69 564.11 172.69 564.11 172.77 563.97 172.77 563.86 172.87 563.75 172.87 563.7 172.98 563.59 173.04 563.54 173.09 563.48 173.14 563.43 173.2 563.43 173.31 563.32 173.36 563.32 173.41 563.27 173.58 563.27 173.63 563.21 173.85 563.21 200.54 563.21 200.6 563.21 200.76 563.21 200.81 563.27 200.92 563.27 200.97 563.32 201.08 563.32 201.19 563.43 201.24 563.43 201.3 563.48 201.35 563.54 201.4 563.59 201.51 563.7 201.51 563.75 201.57 563.81 201.62 563.86 201.62 563.91 201.67 563.97 201.67 564.13 201.73 564.18 201.73 564.4 201.73 598.92 201.73 598.92 214.13 608.63 218.18 606.95 205.51 597.09 205.51 597.09 205.51 564.4 205.51 564.45 205.51 564.18 205.56 564.13 205.56 564.02 205.61 563.97 205.61 563.86 205.67 563.81 205.72 563.75 205.72 563.7 205.78 563.64 205.83 563.59 205.88 563.54 205.99 563.43 206.04 563.43 206.1 563.38 206.15 563.32 206.21 563.32 206.26 563.27 206.42 563.27 206.47 563.21 206.69 563.21 217.64 563.21 217.64 563.21 217.64 555.72 217.58 555.72 212.52 555.72 212.25 555.77 212.19 555.72 211.92 555.72 211.87 555.66 211.76 555.66 211.71 555.61 211.6 555.61 211.54 555.55 211.49 555.55 211.44 555.5 211.38 555.5 211.33 555.45 211.28 555.45 211.22 555.39 211.17 555.34 211.12 555.34 210.95 555.18 210.9 555.13 210.85 555.07 210.68 554.91 210.63 554.86 210.57 554.8 210.57 554.75 210.52 554.69 210.47 554.64 210.47 554.59 210.41 554.53 210.41 554.48 210.36 554.42 210.36 554.37 210.3 554.32 210.3 554.21 210.25 554.15 210.25 554.04 210.2 553.99 210.2 553.77 210.14 553.72 210.14 553.4 210.14 463.49 210.14 463.54 210.14 463.11 210.2 463.06 210.2 462.68 210.25 462.63 210.25 462.41 210.3 462.36 210.3 462.2 210.36 462.14 210.36 462.03 210.41 461.98 210.41 461.87 210.47 461.82 210.47 461.76 210.52 461.71 210.52 461.6 210.57 461.55 210.57 461.49 210.63 461.44 210.63 461.39 210.68 461.33 210.68 461.28 210.74 461.22 210.74 461.17 210.79 461.12 210.85 461.06 210.85 461.01 210.9 460.95 210.9 460.9 210.95 460.85 211.06 460.74 211.06 460.68 211.22 460.52 211.22 460.47 211.33 460.36 211.38 460.31 211.44 460.25 211.6 460.09 211.65 460.04 211.71 459.98 211.81 459.88 211.87 459.88 211.92 459.82 211.97 459.77 212.03 459.71 212.08 459.71 212.25 459.55 212.3 459.55 212.35 459.5 212.41 459.5 212.46 459.45 212.52 459.39 212.57 459.39 212.62 459.34 212.68 459.34 212.73 459.28 212.79 459.28 212.84 459.23 212.89 459.23 212.95 459.18 213 459.18 213.06 459.12 213.16 459.12 213.22 459.07 213.33 459.07 213.38 459.01 213.49 459.01 213.54 458.96 213.7 458.96 213.76 458.91 213.92 458.91 213.97 458.85 214.29 458.85 214.35 458.8 214.83 458.8 234.68 458.8 235.53 459.19 235.92 460.04 235.92 496.07 235.54 496.93 234.68 497.3 231.45 497.3 231.45 497.3 231.45 500.87 234.68 500.87 235.55 501.27 235.92 502.11 235.92 538.46 235.92 538.46 239 538.46 239 546.22 241.91 546.22 241.91 497.41 242.31 496.57 243.15 496.17 250.27 496.18 250.27 493.37 243.15 493.37 242.35 493.21 241.91 492.61 241.91 460.04 242.36 459.19 243.15 458.8 271.52 458.8 272.42 459.12 272.76 460.04 272.78 543.18 272.72 544.26 272.62 545.34 272.34 546.43 272.02 547.45 271.47 548.71 270.84 549.87 269.83 551.21 268.73 552.41 268.3 552.73 267.44 553.42 266.28 554.16 265.05 554.73 263.5 555.27 261.88 555.57 260.54 555.7 247.68 555.72 246.85 555.34 246.44 554.48 246.44 553.29 246.42 553.29 236.25 553.29 236.25 553.29 236.25 554.48 235.84 555.28 235.01 555.72 222.71 555.72 222.65 555.72 222.65 563.21 231.56 563.21 231.61 563.21 232.28 563.29 232.28 563.29 232.28 563.29 232.28 563.29 232.28 563.29 232.28 563.29 233.05 563.51 233.05 563.51 233.05 563.51 233.05 563.51 233.05 563.51 233.05 563.51 233.05 563.51 233.05 563.51 233.05 563.51 233.05 563.51 233.7 563.86 233.7 563.86 233.7 563.86 233.7 563.86 233.7 563.86 233.7 563.86 233.7 563.86 233.7 563.86 233.7 563.86 233.7 563.86 234.63 564.67 234.92 565.12 234.92 565.12 234.92 565.12 234.92 565.12 234.92 565.12 234.92 565.12 234.92 565.12 234.92 565.12 234.92 565.12 234.92 565.12 234.92 565.12 234.92 565.12 234.92 565.12 234.92 565.12 235.17 565.59 235.17 565.59 235.32 566.02 235.32 566.02 235.32 566.02 235.32 566.02 235.32 566.02 235.32 566.02 235.32 566.02 235.32 566.02 235.32 566.02 235.46 566.92 235.46 566.92 235.46 566.92 235.44 613.54 235.44 613.64 235.44 613.64 235.44 613.64 235.4 613.86 235.22 614.21 235.22 614.21 235.4 613.86 235.4 613.86 235.4 613.86 235.4 613.86 235.4 613.86 235.4 613.86 235.22 614.21 235.22 614.21 235.22 614.21 235.22 614.21 235.22 614.21 235.22 614.21 235.22 614.21 235.22 614.21 235.03 614.45 235.03 614.45 234.8 614.61 234.8 614.61 234.8 614.61 234.8 614.61 234.8 614.61 234.8 614.61 234.8 614.61 234.8 614.61 234.49 614.74 234.49 614.74 234.49 614.74 234.49 614.74 234.31 614.77 234.31 614.77 234.31 614.77 234.2 614.77 229.51 614.77 229.51 622.92 234.2 622.92 235.02 623.35 235.44 624.16 235.44 655.88 235.17 656.45 234.63 656.93"/>
    <polygon class="cls-17" points="154.51 473.95 103.1 509.49 25.78 545.32 3.22 554.87 40.47 554.86 40.47 668.44 231.93 668.44 235.44 663.96 235.44 662.13 235.04 661.22 234.2 660.89 84.37 660.89 84.37 660.89 84.37 645.14 84.85 645.14 84.85 645.14 84.85 643.68 84.85 637.54 83.67 637.54 83.67 637.54 83.67 636.08 83.67 636.13 83.67 635.59 83.72 635.54 83.72 635.05 83.78 635 83.78 634.68 83.83 634.62 83.83 634.57 83.83 634.57 83.83 634.41 83.88 634.35 83.88 634.19 83.94 634.14 83.94 633.98 83.99 633.92 83.99 633.81 84.04 633.76 84.04 633.65 84.1 633.6 84.1 633.49 84.15 633.44 84.15 633.33 84.21 633.27 84.21 633.22 84.26 633.17 84.26 633.06 84.31 633 84.31 632.95 84.37 632.9 84.37 632.84 84.42 632.79 84.42 632.73 84.47 632.68 84.47 632.63 84.53 632.57 84.53 632.52 84.58 632.46 84.58 632.41 84.64 632.36 84.64 632.3 84.69 632.25 84.69 632.2 84.74 632.14 84.74 632.09 84.85 631.98 84.85 631.93 84.96 631.82 84.96 631.77 85.01 631.71 85.07 631.66 85.07 631.6 85.12 631.55 85.18 631.5 85.23 631.44 85.23 631.39 85.28 631.33 85.34 631.28 85.39 631.23 85.39 631.17 85.5 631.06 85.55 631.01 85.61 630.96 85.72 630.85 85.72 630.79 86.15 630.36 86.2 630.36 86.37 630.2 86.42 630.14 86.47 630.09 86.53 630.04 86.58 630.04 86.63 629.98 86.69 629.93 86.74 629.88 86.79 629.82 86.85 629.82 86.9 629.77 86.96 629.71 87.01 629.71 87.12 629.61 87.17 629.61 87.28 629.5 87.33 629.5 87.44 629.39 87.49 629.39 87.55 629.34 87.6 629.34 87.66 629.29 87.71 629.29 87.77 629.23 87.82 629.23 87.87 629.18 87.93 629.18 87.98 629.12 88.04 629.12 88.09 629.07 88.14 629.07 88.2 629.02 88.25 629.02 88.31 628.96 88.36 628.96 88.41 628.91 88.52 628.91 88.58 628.85 88.63 628.85 88.68 628.8 88.79 628.8 88.85 628.74 88.9 628.74 88.9 555.77 88.9 555.77 90.57 555.77 90.57 555.77 87.82 548.87 87.82 553.67 40.79 553.67 40.79 553.67 40.79 547.25 40.79 547.25 58.53 540.89 58.53 540.89 85.01 528.1 85.01 528.1 93.05 528.1 93.05 528.1 93.05 543.64 88.31 543.64 99.15 555.72 102.76 555.72 102.76 545.79 99.15 543.64 94.24 543.64 94.24 528.1 94.24 528.1 99.2 528.1 107.99 522.17 107.99 517.05 135.98 505.39 139.89 504.59 143.91 504.86 161.6 509.33 200.76 509.33 202.22 508.73 202.65 507.45 202.65 485.77 202.26 484.91 201.4 484.52 196.17 484.52 196.17 476.54 196.17 476.59 201.3 476.59 202.23 476.24 202.54 475.36 202.54 423.41 200.49 421.37 194.47 427.38 154.51 473.95"/>
    <polygon class="cls-13" points="295.12 505.52 304.37 458.8 280.74 458.8 279.96 459.2 279.5 460.04 279.5 545.36 279.5 545.36 279.12 548.27 279.12 548.27 277.45 551.67 277.45 551.67 275.51 554.42 275.51 554.42 273.19 557.17 273.19 557.17 271.25 558.95 271.25 558.95 269.15 560.3 269.15 560.3 266.63 561.58 266.63 561.58 266.63 561.58 266.63 561.58 266.63 561.58 266.25 561.88 266.25 561.88 266.25 561.88 266.02 562.14 265.85 562.53 265.85 562.53 265.85 562.53 265.85 562.53 265.85 562.53 265.85 562.53 265.85 562.53 265.85 562.53 265.85 562.53 265.85 562.53 265.85 562.53 265.67 563.21 265.64 567.5 265.64 567.5 265.79 568.05 265.79 568.05 265.79 568.05 265.79 568.05 265.79 568.05 265.79 568.05 265.79 568.05 265.91 568.36 265.91 568.36 266.12 568.65 266.12 568.65 266.12 568.65 266.12 568.65 266.12 568.65 266.12 568.65 266.12 568.65 266.34 568.88 266.8 569.18 266.8 569.18 266.8 569.18 266.8 569.18 266.8 569.18 266.8 569.18 266.8 569.18 266.8 569.18 266.8 569.18 267.29 569.34 267.29 569.34 267.5 569.43 267.5 569.43 274.06 569.42 289.05 562.73 295.12 505.52"/>
    <path class="cls-13" d="M239.11,448.01v3.23l-.4.83-.84.41h-22.27s3.72-35.44,3.72-35.44l.48-.84.76-.4h17.37l.9.4.34.84v3.02h4.53v-3.02l.42-.84.82-.4h22.71l.86.44.43.8v3.02h5.02v-3.02l.43-.8.86-.44h15.16l.86.36.43.88v11.43l-.45.81-.85.43h-3.72v9.01h3.72l.87.41.43.82v11.27l-.43.81-.87.43h-15.26l-.88-.35-.42-.89v-3.07h-4.69v3.07l-.38.84-.86.4h-23.03l-.92-.39-.38-.85v-3.23h-4.48Z"/>
    <g>
      </g>
    <g>
      </g>
    <g>
      </g>
    <g>
      </g>
    <g>
      </g>
    <g>
      </g>
    <path class="cls-17" d="M142.35,389.38l5.18-5.39h0s21.46,20.77,21.46,20.77h0s-5.18,5.39-5.18,5.39h0s-7.5-7.28-7.5-7.28h0s-2.48,2.59-2.48,2.59h0s-10.73-10.36-10.73-10.36h0s2.54-2.59,2.54-2.59h0s-3.29-3.13-3.29-3.13h0Z"/>
    <g>
      </g>
    <g>
      <g>
        </g>
      <g>
        </g>
      <g>
        </g>
      <g>
        </g>
      <g>
        </g>
      </g>
    <g>
      </g>
    <g>
      <g>
        </g>
      <g>
        </g>
      <g>
        </g>
      <g>
        </g>
      <g>
        </g>
      <g>
        </g>
      <g>
        </g>
      <g>
        </g>
      <g>
        </g>
      <g>
        </g>
      <g>
        </g>
      <g>
        </g>
    </g>
    <path class="cls-13" d="M116.03,522.17v-4.42l16.34-6.74h0s0,23.36,0,23.36l-16.34-12.19Z"/>
    <g>
      </g>
    <g>
      </g>
    <g>
      </g>
    <g>
      </g>
    <g>
      </g>
    <g>
      </g>
    <g>
      </g>
    <g>
      </g>
    <g>
      <g>
        </g>
      <g>
        </g>
      <g>
        </g>
      <g>
        </g>
      <g>
        </g>
      <g>
        </g>
      <g>
        </g>
      <g>
        </g>
    </g>
    <g>
      <g>
        </g>
      <g>
        </g>
      <g>
        </g>
    </g>
    <g>
      </g>
    <g>
      </g>
    <g>
      </g>
    <path class="cls-13" d="M215,423.41l-2.27,21.52h-2.59v-21.52h4.86Z"/>
    <g>
      </g>
    <g>
      </g>
    <g>
      </g>
    <g>
      </g>
    <g>
      </g>
    <g>
      <g>
        </g>
      </g>
    <g>
      </g>
    <g>
      </g>
    <g>
      </g>
    <g>
      </g>
    <g>
      </g>
    <g>
      </g>
    <g>
      </g>
    <g>
      <path class="cls-13" d="M186.25,411.55l-3.07,3.13h0s-7.6-7.39-7.6-7.39l3.07-3.13h0s7.6,7.39,7.6,7.39h0Z"/>
      <path class="cls-13" d="M180.37,405.83l.86-.91h0s5.02,4.91,5.02,4.91h0s-.86.86-.86.86l-5.02-4.86Z"/>
    </g>
    <g>
      <path class="cls-13" d="M154.64,409.71l-3.93,4.1h0s-2.21-2.16-2.21-2.16h0s3.94-4.1,3.94-4.1h0s2.21,2.16,2.21,2.16h0Z"/>
      <g>
        </g>
      <path class="cls-13" d="M155.24,418.18l3.94-4.1s-3.13-3.02-3.13-3.02l-3.93,4.04h0s3.12,3.07,3.12,3.07h0Z"/>
    </g>
    <g id="_寮食堂" data-name="寮食堂">
      <path class="cls-13" d="M125.41,368.67l-11.11-10.46h0s4.04-4.21,4.04-4.21h0s-2.32-2.27-2.32-2.27h0s14.73-15.21,14.73-15.21h0s23.73,22.92,23.73,22.92h0s-10.3,10.68-10.3,10.68h0s-10.46-10.09-10.46-10.09h0s-8.3,8.63-8.3,8.63h0Z"/>
      <path class="cls-13" d="M124.06,371.8l3.94-4.05h0s3.77,3.67,3.77,3.67h0s4.26-4.37,4.26-4.37h0s6.26,6.04,6.26,6.04c0,0-8.14,8.41-8.14,8.41h0s-10.09-9.71-10.09-9.71h0Z"/>
    </g>
    <g id="_国際寮" data-name="国際寮">
      <path class="cls-13" d="M254.37,304.44l10.2,9.76h0s-26.11,27.34-26.11,27.34h0s-10.25-9.76-10.25-9.76h0s26.16-27.34,26.16-27.34h0Z"/>
    </g>
    <path class="cls-17" d="M259.76,326.61l1.35-1.3h0s-1.35-1.29-1.35-1.29h0s-1.3,1.29-1.3,1.29c0,0,1.3,1.3,1.3,1.3h0Z"/>
    <g>
      </g>
    <g>
      </g>
    <g>
      </g>
    </g>
</svg>