<svg xmlns="http://www.w3.org/2000/svg" viewBox="0 0 470.53 710.52">
  <style>
      .cls-1 {
        fill: #616161;
      }

      .cls-1, .cls-2, .cls-3, .cls-4, .cls-5, .cls-6, .cls-7, .cls-8, .cls-9, .cls-10, .cls-11, .cls-12, .cls-13, .cls-14, .cls-15, .cls-16, .cls-17, .cls-18, .cls-19 {
        stroke: #323232;
        stroke-width: .25px;
      }

      .cls-1, .cls-2, .cls-3, .cls-4, .cls-5, .cls-6, .cls-8, .cls-10, .cls-11, .cls-12, .cls-13, .cls-15, .cls-16, .cls-17, .cls-18, .cls-19 {
        stroke-linecap: square;
      }

      .cls-1, .cls-2, .cls-3, .cls-8, .cls-10, .cls-13, .cls-14, .cls-18, .cls-19 {
        stroke-miterlimit: 10;
      }

      .cls-2, .cls-16 {
        fill: #626262;
      }

      .cls-3, .cls-7, .cls-14, .cls-15 {
        fill: none;
      }

      .cls-4, .cls-5, .cls-6, .cls-7, .cls-9, .cls-11, .cls-12, .cls-15, .cls-16, .cls-17 {
        stroke-linejoin: round;
      }

      .cls-4, .cls-9, .cls-18 {
        fill: #616161;
      }

      .cls-5 {
        fill: #E8E8E8;
      }

      .cls-6 {
        fill: #1B1B1B;
      }

      .cls-7, .cls-9 {
        stroke-linecap: round;
      }

      .cls-8, .cls-11 {
        fill: #DADADA;
      }

      .cls-10, .cls-12 {
        fill: #303030;
      }

      .cls-13, .cls-17 {
        fill: #717171;
      }

      .cls-19 {
        fill: #404040;
      }
    </style>
  <g id="_08" data-name="08">
    <g>
      <path class="cls-18" d="M246.55,522.76h-4.64v16.77h4.64v-16.77h0Z"/>
      </g>
    <path class="cls-4" d="M270.33,492.34v53.88h0s-7.61,0-7.61,0h0v4.75h0s-48.54,0-48.54,0h0v-10.41h0s3.99,0,3.99,0h0v-69.04h0s11.76,0,11.76,0h0v74.7h0s22.49,0,22.49,0h0v-5.66h0s2.21,0,2.21,0h0v-8.68h0s-2.21,0-2.21,0h0v-25.3s2.21,0,2.21,0h0v-9.22s-2.21,0-2.21,0h0v-5.02h0s6.42,0,6.42,0h0v-3.45h0s-8.47,0-8.47,0h0v-26.05h0s19.96,0,19.96,0h0v26.05h0s-8.52,0-8.52,0h0v3.45h0s8.52,0,8.52,0Z"/>
    <path class="cls-4" d="M240.19,410.15v-14.29h0s32.74,0,32.74,0h0v14.29h0s-32.74,0-32.74,0h0Z"/>
    <path class="cls-4" d="M269.63,632.25v21.79h0s-19.14,0-19.14,0h0v-17.75h0s4.42,0,4.42,0h0s0-4.04,0-4.04h5.55s0-3.99,0-3.99h0s-9.98,0-9.98,0h0v-17.74h19.14s0,17.8,0,17.8h0-1.08v3.94h1.08,0Z"/>
    <path class="cls-18" d="M201.67,651.13h-7.82,0v-26.91h0s4.32,0,4.32,0l.15.03,2.12-.03h0,1.24v26.91Z"/>
    <path class="cls-4" d="M214.63,563.7h3.54v4.53h0s11.33,0,11.33,0c0,0,0,85.59,0,85.59h-11.33,0v-33.49h0s-26.48,0-26.48,0h0v33.49h0s-11.27,0-11.27,0h0v-85.59h0s11.27,0,11.27,0h0v40.39h0s26.48,0,26.48,0h0v-27.34h0s-3.56,0-3.56,0h0v-13.05h0s0-4.49,0-4.49l.02-.04Z"/>
    <path class="cls-4" d="M102.71,568.98v3.94h0s11.11,0,11.11,0v27.13h0s-18.5,0-18.5,0v-31.07h0s7.39,0,7.39,0Z"/>
    <path class="cls-4" d="M170.93,518.18h21.63v25.67h0s-13.37,0-13.37,0h0v3.61h0s-8.25,0-8.25,0v-29.29Z"/>
    <path class="cls-4" d="M161.28,569.15v26.32h0s-31.34,0-31.34,0h0v-26.32h0s10.95,0,10.95,0c0,0,0,4.42,0,4.42h0s4.1,0,4.1,0v-4.42h4.37,0s11.92,0,11.92,0"/>
    <g id="_機械工学科実験棟" data-name="機械工学科実験棟">
      <path class="cls-4" d="M96.02,652.53v-50.05h0s17.85,0,17.85,0h0v50.05h0s-17.85,0-17.85,0h0Z"/>
      <g>
        </g>
    </g>
    <path class="cls-18" d="M93.48,652.69h-4.91v-8.2h0s4.91,0,4.91,0h0v8.2h0Z"/>
    <g id="_実習工場" data-name="実習工場">
      <g>
        <path class="cls-4" d="M129.94,648v1.18h0s7.17,0,7.17,0c0,0,0-1.18,0-1.18h-7.17Z"/>
        <path class="cls-4" d="M158.63,648h-28.69v-47.79h0s28.69,0,28.69,0h0v47.79"/>
      </g>
      <g>
        </g>
    </g>
    <path class="cls-18" d="M125.9,628.15v9.65h0s-1.94,0-1.94,0h0v-9.65h0s1.94,0,1.94,0Z"/>
    <path class="cls-18" d="M122.45,567.69v28.21h0s6.52,0,6.52,0v-28.21h0s-6.52,0-6.52,0Z"/>
    <path class="cls-18" d="M146.66,648v2.37h0s3.83,0,3.83,0h8.14s0-2.37,0-2.37h-11.97Z"/>
    <path class="cls-18" d="M201.73,593.31h-6.26s0-24.43,0-24.43h0s5.02,0,5.02,0h1.24v24.43Z"/>
    <g>
      <path class="cls-18" d="M209.85,579.82l.02,12.3h0s-2.48,0-2.48,0h-1.89v-12.28s4.35-.02,4.35-.02Z"/>
      <path class="cls-18" d="M205.51,568.34v11.27s3.14-.02,3.14-.02v-11.27s-3.14.02-3.14.02Z"/>
    </g>
    <path class="cls-18" d="M199.63,600.27h-3.78v-3.77h0s3.78,0,3.78,0h0v3.77h0Z"/>
    <path class="cls-18" d="M172.6,591.96h4.75v-12.41s-4.75,0-4.75,0v12.41Z"/>
    <path class="cls-18" d="M173.2,610.89h4.86v-13.91h0s-4.86,0-4.86,0v13.91Z"/>
    <path class="cls-18" d="M172.6,631.12h4.75v-12.41h0s-4.75,0-4.75,0v12.41Z"/>
    <path class="cls-18" d="M204.8,646.6h4.05v-12.52h-4.05v12.52Z"/>
    <path class="cls-18" d="M205.67,624.11h6.47,0v8.47h0s-6.47,0-6.47,0h0v-8.47h0Z"/>
    <path class="cls-18" d="M218.18,625.08h-6.04v1.89h6.04v-1.89Z"/>
    <path class="cls-18" d="M207.07,657.11v-3.83h0s8.47,0,8.47,0h0v3.83h0s-8.47,0-8.47,0h0Z"/>
    <path class="cls-18" d="M241.91,463.38h4.37v14.99h0s-4.37,0-4.37,0h0v-14.99h0Z"/>
    <path class="cls-18" d="M243.21,509.82v-10.89h0s4.21,0,4.21,0v10.89h0s-4.21,0-4.21,0Z"/>
    <path class="cls-18" d="M246.98,517.96h-3.77v-6.52h3.77v6.52Z"/>
    <path class="cls-18" d="M245.9,531.34h-3.29,0v-7.34h0s3.29,0,3.29,0h0v7.34Z"/>
    <path class="cls-18" d="M231.93,494.07v-22.55h0s2.21,0,2.21,0c0,0,0,22.55,0,22.55h0s-2.21,0-2.21,0h0Z"/>
    <path class="cls-18" d="M216.08,495.69h-2.48v-11.86h0s2.48,0,2.48,0h0v11.86h0Z"/>
    <path class="cls-18" d="M213.92,535.65h-3.78v-11.92s3.78,0,3.78,0c0,0,0,11.92,0,11.92h0Z"/>
    <path class="cls-18" d="M213.92,522.49h-3.78v-20.06h3.78v20.06h0Z"/>
    <path class="cls-18" d="M212.68,550.97h-2.54s0-12.57,0-12.57h2.54s0,12.57,0,12.57Z"/>
    <g>
      <path class="cls-18" d="M233.39,469.04h-20.01,0v-4.53h0v-4.37h0s20.01,0,20.01,0h0v4.37h0s0,4.53,0,4.53h0Z"/>
      </g>
    <path class="cls-4" d="M140.84,534.36v-19.04h0s17.96,0,17.96,0h0v33.55h0s-18.45,0-18.45,0h0v-2.59h0s-10.73,0-10.73,0h-.04s-6.78,0-6.78,0h-.04s-23.62,0-23.62,0c0,0,0-24.11,0-24.11h0s30.96,0,30.96,0c0,0,0,12.19,0,12.19h0s10.73,0,10.73,0"/>
    <path class="cls-4" d="M129.62,546.28s0,2.75,0,2.75h-6.85v-2.75h6.85Z"/>
    <path class="cls-4" d="M145.64,392.51l-3.29-3.13h0s5.18-5.39,5.18-5.39h0s21.46,20.77,21.46,20.77h0s-5.18,5.39-5.18,5.39h0s-7.5-7.28-7.5-7.28h0s-2.48,2.59-2.48,2.59h0s-10.73-10.36-10.73-10.36h0s2.54-2.59,2.54-2.59h0Z"/>
    <path class="cls-18" d="M140.84,517.59h-2s0,13.43,0,13.43h2v-13.43Z"/>
    <path class="cls-18" d="M170.93,541.53h-12.13v2.48h12.13v-2.48Z"/>
    <g>
      <polygon class="cls-18" points="186.14 518.13 186.14 513.32 187.44 513.32 188.73 513.32 192.56 513.32 192.56 514.35 192.56 518.18 186.14 518.13"/>
      <path class="cls-18" d="M185.98,518.18v-5.07h-2.54v2.91h0s.65,0,.65,0h0v2.16h1.89Z"/>
    </g>
    <polyline class="cls-18" points="95.96 522.22 95.96 526.05 95.96 527.35 95.96 528.16 99.16 528.13 99.15 522.22 95.96 522.22"/>
    <g id="_ものづくり工房" data-name="ものづくり工房">
      <path class="cls-4" d="M196.44,500.49h-17.15v-12.95h0s17.15,0,17.15,0h0v12.95h0Z"/>
      <g>
        </g>
    </g>
    <path class="cls-18" d="M166.99,495.63h12.14v4.86h0s-12.14,0-12.14,0v-4.86h0Z"/>
    <g>
      <path class="cls-18" d="M183.88,506.64h-1.24v3.07l15.96-.13v-8.33h0s-14.72,0-14.72,0h0v5.39Z"/>
      </g>
    <path class="cls-18" d="M177.08,490.19h-1.89s0-1.89,0-1.89h1.89v1.89h0Z"/>
    <path class="cls-18" d="M196.17,477.3s0,6.36,0,6.36h-14.67v-6.36s14.67,0,14.67,0h0Z"/>
    <path class="cls-18" d="M201.03,475.79h-6.96v-21.68h0s1.83-5.34,1.83-5.34h0s5.12,0,5.12,0h0v27.02h0Z"/>
    <g id="_第1体育館" data-name="第1体育館">
      <path class="cls-4" d="M286.67,446.18h-60.3v-24.11h0s60.3,0,60.3,0c0,0,0,24.11,0,24.11h0Z"/>
      <g>
        </g>
    </g>
    <g id="_第2体育館" data-name="第2体育館">
      <path class="cls-4" d="M45.86,619.79v41.59h36.03s0-17.69,0-17.69h0s-1.57,0-1.57,0h0v-6.15h1.57s0-17.75,0-17.75h0s-36.03,0-36.03,0h0Z"/>
      <g>
        </g>
    </g>
    <path class="cls-18" d="M272.76,586.46v6.85s-3.18,0-3.18,0h0v-6.85h3.18Z"/>
    <g>
      <path class="cls-18" d="M276.81,661.7h-4.26,0s0-3.02,0-3.02h4.26,0s0,3.02,0,3.02Z"/>
      <path class="cls-18" d="M274.97,662.24l-.22.05h0v.32h.32l.03-.3h0l-.14-.08h0Z"/>
      <path class="cls-18" d="M273.08,661.21v-2.1h0s3.24,0,3.24,0h0v2.1h0s-3.24,0-3.24,0h0Z"/>
    </g>
  </g>
</svg>