<svg xmlns="http://www.w3.org/2000/svg" viewBox="0 0 470.53 710.52">
  <style>
      .cls-1 {
        fill: #616161;
      }

      .cls-1, .cls-2, .cls-3, .cls-4, .cls-5, .cls-6, .cls-7, .cls-8, .cls-9, .cls-10, .cls-11, .cls-12, .cls-13, .cls-14, .cls-15, .cls-16, .cls-17, .cls-18, .cls-19 {
        stroke: #323232;
        stroke-width: .25px;
      }

      .cls-1, .cls-2, .cls-3, .cls-4, .cls-5, .cls-6, .cls-8, .cls-10, .cls-11, .cls-12, .cls-13, .cls-15, .cls-16, .cls-17, .cls-18, .cls-19 {
        stroke-linecap: square;
      }

      .cls-1, .cls-2, .cls-3, .cls-8, .cls-10, .cls-13, .cls-14, .cls-18, .cls-19 {
        stroke-miterlimit: 10;
      }

      .cls-2, .cls-16 {
        fill: #626262;
      }

      .cls-3, .cls-7, .cls-14, .cls-15 {
        fill: none;
      }

      .cls-4, .cls-5, .cls-6, .cls-7, .cls-9, .cls-11, .cls-12, .cls-15, .cls-16, .cls-17 {
        stroke-linejoin: round;
      }

      .cls-4, .cls-9, .cls-18 {
        fill: #616161;
      }

      .cls-5 {
        fill: #E8E8E8;
      }

      .cls-6 {
        fill: #1B1B1B;
      }

      .cls-7, .cls-9 {
        stroke-linecap: round;
      }

      .cls-8, .cls-11 {
        fill: #DADADA;
      }

      .cls-10, .cls-12 {
        fill: #303030;
      }

      .cls-13, .cls-17 {
        fill: #717171;
      }

      .cls-19 {
        fill: #404040;
      }
    </style>
  <g id="_09" data-name="09">
    <path class="cls-4" d="M129.94,595.46v-26.32h0s10.95,0,10.95,0v4.42h0s4.1,0,4.1,0v-4.42h4.37,0s11.92,0,11.92,0h0v26.32h0s-31.34,0-31.34,0h0Z"/>
    <path class="cls-4" d="M113.81,572.92v27.13h0s-8.72,0-8.72,0c0,0,0,2.43,0,2.43l-.04-.27h-3.43l-.16.19v-2.43.08h-6.14v-31.07h0s7.39,0,7.39,0c0,0,0,3.94,0,3.94h0s11.11,0,11.11,0Z"/>
    <path class="cls-4" d="M99.15,546.28v-24.11h0s30.96,0,30.96,0c0,0,0,12.19,0,12.19h0s10.73,0,10.73,0v-19.04h0s17.96,0,17.96,0h0v33.55h0s-18.45,0-18.45,0h0v-2.59h0s-10.73,0-10.73,0h-.03s-6.78,0-6.78,0h-.04s-23.62,0-23.62,0Z"/>
    <rect class="cls-18" x="176.18" y="516.26" width="3.6" height="1.92"/>
    <path class="cls-4" d="M170.93,547.46v-29.29s21.63,0,21.63,0h0v25.67h0s-5.79,0-5.79,0l.02-.02v3.63h-7.6s0,0,0,0h-8.25Z"/>
    <path class="cls-4" d="M191.7,608.63h26.48v-27.34h0s-3.56,0-3.56,0h0v-13.05h14.89s0,85.59,0,85.59h-11.33,0v-33.49h0s-26.48,0-26.48,0h0v33.49h0s-11.27,0-11.27,0h0v-85.59h0s11.27,0,11.27,0h0v40.39h0Z"/>
    <path class="cls-4" d="M252.43,546.22v-5.66h0s2.21,0,2.21,0h0v-8.68h0s-2.21,0-2.21,0h0v-25.3s2.21,0,2.21,0h0v-9.22s-2.21,0-2.21,0h0v-5.02h0s6.42,0,6.42,0h0v-3.45h0s-8.47,0-8.47,0h0v-26.05h0s19.96,0,19.96,0h0v26.05h0s-8.52,0-8.52,0h0v3.45h0s8.52,0,8.52,0v53.88h0s-17.89.09-17.89.09l-.02-.09Z"/>
    <path class="cls-4" d="M230,550.86l-15.81.11h0v-10.41h0s3.99,0,3.99,0h0v-69.04h0s11.76,0,11.76,0h0v74.7h0s.07,4.63.07,4.63Z"/>
    <path class="cls-4" d="M250.49,654.04v-17.75h0s4.42,0,4.42,0l.13.08h5.39v-3.8l.03-.32v-3.99h0s-9.98,0-9.98,0h0v-17.74h19.14s0,17.8,0,17.8h0-1.08v3.94h1.08,0v21.79h0s-19.14,0-19.14,0h0Z"/>
    <path class="cls-4" d="M156.31,402.87l-2.48,2.59h0s-10.73-10.36-10.73-10.36h0s2.54-2.59,2.54-2.59h0s-3.29-3.13-3.29-3.13h0s5.18-5.39,5.18-5.39h0s21.46,20.77,21.46,20.77h0s-5.18,5.39-5.18,5.39h0s-7.5-7.28-7.5-7.28h0Z"/>
    <g>
      </g>
  </g>
</svg>