<svg xmlns="http://www.w3.org/2000/svg" viewBox="0 0 470.53 710.52">
  <style>
      .cls-1 {
        fill: #616161;
      }

      .cls-1, .cls-2, .cls-3, .cls-4, .cls-5, .cls-6, .cls-7, .cls-8, .cls-9, .cls-10, .cls-11, .cls-12, .cls-13, .cls-14, .cls-15, .cls-16, .cls-17, .cls-18, .cls-19 {
        stroke: #323232;
        stroke-width: .25px;
      }

      .cls-1, .cls-2, .cls-3, .cls-4, .cls-5, .cls-6, .cls-8, .cls-10, .cls-11, .cls-12, .cls-13, .cls-15, .cls-16, .cls-17, .cls-18, .cls-19 {
        stroke-linecap: square;
      }

      .cls-1, .cls-2, .cls-3, .cls-8, .cls-10, .cls-13, .cls-14, .cls-18, .cls-19 {
        stroke-miterlimit: 10;
      }

      .cls-2, .cls-16 {
        fill: #626262;
      }

      .cls-3, .cls-7, .cls-14, .cls-15 {
        fill: none;
      }

      .cls-4, .cls-5, .cls-6, .cls-7, .cls-9, .cls-11, .cls-12, .cls-15, .cls-16, .cls-17 {
        stroke-linejoin: round;
      }

      .cls-4, .cls-9, .cls-18 {
        fill: #616161;
      }

      .cls-5 {
        fill: #E8E8E8;
      }

      .cls-6 {
        fill: #1B1B1B;
      }

      .cls-7, .cls-9 {
        stroke-linecap: round;
      }

      .cls-8, .cls-11 {
        fill: #DADADA;
      }

      .cls-10, .cls-12 {
        fill: #303030;
      }

      .cls-13, .cls-17 {
        fill: #717171;
      }

      .cls-19 {
        fill: #404040;
      }
    </style>
  <g id="_10" data-name="10">
    <path class="cls-4" d="M130.11,529.64v16.56l-.11-.04-7.21.06-.03.05s-23.62,0-23.62,0v-16.65l.23.03h30.71s.02-.01.02-.01Z"/>
    <path class="cls-4" d="M95.32,568.98s7.39,0,7.39,0v3.94h0s11.11,0,11.11,0c0,0,0,27.13,0,27.13h0s-18.5,0-18.5,0v-31.07h0Z"/>
    <path class="cls-4" d="M142.07,581.35v13.92s0,.19,0,.19h-12.13v-26.32h0s10.95,0,10.95,0c0,0,0,4.42,0,4.42h0s4.1,0,4.1,0v-4.42h4.37,0s7.71,0,7.71,0v.31s0,2.25,0,2.25v2.47s4.16,0,4.16,0h.06v21.29h0s-16.25,0-16.25,0v-.19s.01-13.97.01-13.97h-2.98v.05Z"/>
    <path class="cls-4" d="M191.7,608.63h26.48v-27.34h0s-3.56,0-3.56,0h0v-13.05h14.89s0,85.59,0,85.59h-11.33,0v-33.49h0s-26.48,0-26.48,0h0v33.49h0s-11.27,0-11.27,0h0v-85.59h0s11.27,0,11.27,0h0v40.39h0Z"/>
    <polygon class="cls-4" points="180.21 569.45 177.74 569.45 177.51 569.41 177.51 575.38 177.74 575.36 180.21 575.36 180.35 575.33 180.35 569.35 180.21 569.45"/>
    <polygon class="cls-4" points="188.06 654 180.47 654 180.5 653.91 180.5 657.06 180.45 657.16 188.04 657.16 188.08 657.1 188.08 653.95 188.06 654"/>
    <polygon class="cls-4" points="218.43 654 226.02 654 225.98 654.08 225.98 657.23 218.39 657.23 218.39 654.08 218.43 654"/>
    <path class="cls-4" d="M260.47,636.38v-4.13s-.01-3.99-.01-3.99h0s-9.98,0-9.98,0h0v-17.74h19.14s0,17.8,0,17.8h0-1.08v3.94h1.08,0v21.79h0s-19.14,0-19.14,0h0v-17.75h0s4.42,0,4.42,0l.17.08h5.39Z"/>
    <path class="cls-4" d="M218.18,471.52h11.76,0v74.7h-.03v4.48l-15.72.27v-10.41h0s3.99,0,3.99,0h0v-69.04h0Z"/>
    <path class="cls-4" d="M270.33,546.22h-7.61.16s-10.47,0-10.47,0h0s0-5.66,0-5.66h0s2.21,0,2.21,0h0v-8.68h0s-2.21,0-2.21,0h0s0-25.3,0-25.3h2.21s0-9.22,0-9.22h-2.21v-5.02h0s6.42,0,6.42,0h0v-3.45h0s-8.47,0-8.47,0h0v-26.05h0s19.96,0,19.96,0h0v26.05h0s-8.52,0-8.52,0h0v3.45h0s8.52,0,8.52,0c0,0,0,53.88,0,53.88h0Z"/>
  </g>
</svg>